<svg width="96" height="96" viewBox="0 0 96 96" fill="none" xmlns="http://www.w3.org/2000/svg">
<g clip-path="url(#clip0)">
<path d="M27 63C31.1421 63 34.5 59.6421 34.5 55.5C34.5 51.3579 31.1421 48 27 48C22.8579 48 19.5 51.3579 19.5 55.5C19.5 59.6421 22.8579 63 27 63Z" fill="#DA9770"/>
<path d="M27 61.5H52.5V98.805C52.5 98.805 47.0355 102 39.75 102C32.4645 102 27 96.7845 27 96.7845V61.5Z" fill="#DA9770"/>
<path d="M52.2164 79.668C52.2164 87.7455 50.9114 86.9805 42.4169 86.9805C33.9224 86.9805 30.0029 80.433 30.0029 72.3555C30.0029 64.2795 29.6804 57 36.5354 57C55.9199 57.714 52.2164 71.5905 52.2164 79.668Z" fill="#553329"/>
<path d="M68.8289 54.15C68.8289 67.533 66.7499 83.9895 50.2499 83.9895C33.7499 83.9895 26.1419 67.533 26.1419 54.15C22.4999 38.25 23.2499 19.5 47.9999 19.5C72.7499 19.5 68.8289 40.7655 68.8289 54.15Z" fill="#DA9770"/>
<path d="M57 61.5H55.5C54.6716 61.5 54 62.1716 54 63C54 63.8284 54.6716 64.5 55.5 64.5H57C57.8284 64.5 58.5 63.8284 58.5 63C58.5 62.1716 57.8284 61.5 57 61.5Z" fill="#68463C"/>
<path d="M57 90H24C16.5442 90 10.5 96.0442 10.5 103.5V111C10.5 118.456 16.5442 124.5 24 124.5H57C64.4558 124.5 70.5 118.456 70.5 111V103.5C70.5 96.0442 64.4558 90 57 90Z" fill="#FF4DD8"/>
<path fill-rule="evenodd" clip-rule="evenodd" d="M42.177 41.196C53.871 42.909 74.397 45.915 76.5 27C78 13.5 57.75 -2.24998 36 12C22.335 14.025 18.9165 24.417 18.138 33.381C17.0844 34.4934 16.4981 35.9679 16.5 37.5C16.5 38.295 16.6545 39.0555 16.935 39.75C16.6545 40.4445 16.5 41.205 16.5 42C16.5 43.659 17.1735 45.1605 18.261 46.245C18.0094 47.07 17.9386 47.9396 18.0535 48.7944C18.1683 49.6493 18.4661 50.4693 18.9266 51.1987C19.3871 51.928 19.9994 52.5495 20.7219 53.0207C21.4443 53.492 22.2598 53.8019 23.1129 53.9295C23.9659 54.057 24.8364 53.9991 25.6651 53.7597C26.4937 53.5204 27.2611 53.1052 27.9147 52.5424C28.5684 51.9796 29.093 51.2826 29.4529 50.4987C29.8127 49.7148 29.9993 48.8625 30 48C30.9155 48.0001 31.8189 47.7907 32.641 47.3879C33.4631 46.985 34.1821 46.3994 34.743 45.6758C35.3039 44.9522 35.6917 44.1098 35.8768 43.2132C36.0619 42.3166 36.0394 41.3896 35.811 40.503C35.874 40.5 35.937 40.5 36 40.5C37.428 40.5 39.585 40.815 42.177 41.196Z" fill="#1B0B47"/>
<path d="M43.3936 69C43.3936 68.6022 43.5516 68.2206 43.8329 67.9393C44.1142 67.658 44.4957 67.5 44.8936 67.5H58.608C59.0059 67.5 59.3874 67.658 59.6687 67.9393C59.95 68.2206 60.108 68.6022 60.108 69C60.108 70.9891 59.3179 72.8968 57.9113 74.3033C56.5048 75.7098 54.5972 76.5 52.608 76.5H50.8936C48.9044 76.5 46.9968 75.7098 45.5903 74.3033C44.1837 72.8968 43.3936 70.9891 43.3936 69Z" fill="#66253C"/>
<path fill-rule="evenodd" clip-rule="evenodd" d="M55.1324 76.065C54.3222 76.354 53.4682 76.5011 52.6079 76.5H50.8934C48.9562 76.5 47.0942 75.7505 45.6973 74.4083C44.3003 73.0662 43.4769 71.2356 43.3994 69.3C44.5454 68.871 46.2464 68.9205 47.9249 68.97C48.4589 68.985 48.9899 69 49.4999 69C52.8149 69 55.4999 71.3505 55.4999 74.25C55.4999 74.8875 55.3694 75.4995 55.1324 76.065Z" fill="#B03E67"/>
<path d="M45 67.5H60V69C60 69.3978 59.842 69.7794 59.5607 70.0607C59.2794 70.342 58.8978 70.5 58.5 70.5H46.5C46.1022 70.5 45.7206 70.342 45.4393 70.0607C45.158 69.7794 45 69.3978 45 69V67.5Z" fill="white"/>
<path d="M49.5 56.25C49.5 55.0074 48.4926 54 47.25 54C46.0074 54 45 55.0074 45 56.25V57.75C45 58.9926 46.0074 60 47.25 60C48.4926 60 49.5 58.9926 49.5 57.75V56.25Z" fill="#1B0B47"/>
<path d="M64.5 56.25C64.5 55.0074 63.4926 54 62.25 54C61.0074 54 60 55.0074 60 56.25V57.75C60 58.9926 61.0074 60 62.25 60C63.4926 60 64.5 58.9926 64.5 57.75V56.25Z" fill="#1B0B47"/>
</g>
<defs>
<clipPath id="clip0">
<rect width="96" height="96" rx="48" fill="white"/>
</clipPath>
</defs>
</svg>
