<svg width="114" height="96" viewBox="0 0 114 96" fill="none" xmlns="http://www.w3.org/2000/svg">
<path d="M114 48C114 21.4903 88.4802 0 57 0C25.5198 0 0 21.4903 0 48C0 74.5097 25.5198 96 57 96C88.4802 96 114 74.5097 114 48Z" fill="#FCFEFF"/>
<path d="M40.1206 56.3965C44.1961 56.3965 47.5 53.0967 47.5 49.0261C47.5 44.9555 44.1961 41.6557 40.1206 41.6557C36.045 41.6557 32.7411 44.9555 32.7411 49.0261C32.7411 53.0967 36.045 56.3965 40.1206 56.3965Z" fill="#DA9770"/>
<path d="M40.1206 54.9224H65.2108V91.583C65.2108 91.583 59.8341 94.7228 52.6657 94.7228C45.4973 94.7228 40.1206 89.5974 40.1206 89.5974V54.9224Z" fill="#DA9770"/>
<path d="M64.9317 72.7766C64.9317 80.7145 63.6477 79.9627 55.2897 79.9627C46.9317 79.9627 43.0752 73.5283 43.0752 65.5904C43.0752 57.6539 42.7579 50.5002 49.5027 50.5002C68.5757 51.2018 64.9317 64.8386 64.9317 72.7766Z" fill="#553329"/>
<path d="M81.2773 47.6994C81.2773 60.8512 79.2317 77.0234 62.9969 77.0234C46.7621 77.0234 39.2764 60.8512 39.2764 47.6994C35.6929 32.0741 36.4308 13.648 60.7831 13.648C85.1353 13.648 81.2773 34.5461 81.2773 47.6994Z" fill="#DA9770"/>
<path d="M56.4572 64.3684C56.4572 63.9775 56.6126 63.6026 56.8894 63.3261C57.1662 63.0497 57.5416 62.8944 57.933 62.8944H71.4271C71.8186 62.8944 72.194 63.0497 72.4707 63.3261C72.7475 63.6026 72.903 63.9775 72.903 64.3684C72.903 66.3232 72.1256 68.1979 70.7416 69.5801C69.3577 70.9624 67.4807 71.7389 65.5236 71.7389H63.8366C61.8795 71.7389 60.0025 70.9624 58.6185 69.5801C57.2346 68.1979 56.4572 66.3232 56.4572 64.3684Z" fill="#66253C"/>
<path fill-rule="evenodd" clip-rule="evenodd" d="M68.0074 71.3118C67.2102 71.5958 66.3699 71.7404 65.5235 71.7393H63.8366C61.9305 71.7393 60.0984 71.0027 58.7239 69.6837C57.3495 68.3648 56.5393 66.5659 56.463 64.6637C57.5906 64.2421 59.2643 64.2907 60.9158 64.3394C61.4412 64.3541 61.9637 64.3688 62.4655 64.3688C65.7272 64.3688 68.369 66.6787 68.369 69.5282C68.369 70.1546 68.2406 70.7561 68.0074 71.3118Z" fill="#B03E67"/>
<path d="M58.0378 62.8944H72.7968V64.3684C72.7968 64.7594 72.6413 65.1343 72.3645 65.4108C72.0877 65.6872 71.7123 65.8425 71.3209 65.8425H59.5137C59.1223 65.8425 58.7469 65.6872 58.4701 65.4108C58.1933 65.1343 58.0378 64.7594 58.0378 64.3684V62.8944Z" fill="white"/>
<path d="M69.6384 54.9224H68.1625C67.3474 54.9224 66.6866 55.5824 66.6866 56.3965C66.6866 57.2106 67.3474 57.8706 68.1625 57.8706H69.6384C70.4535 57.8706 71.1143 57.2106 71.1143 56.3965C71.1143 55.5824 70.4535 54.9224 69.6384 54.9224Z" fill="#66253C"/>
<path d="M69.6384 82.9301H37.1687C32.7601 82.9301 28.4732 85.0752 26.0571 88.3774C26.0571 88.3774 32.0934 91.2541 36.3714 92.715C41.2644 94.3858 44.8106 94.7947 49.9428 95.4259C56.905 96.2822 61.4712 95.9771 68.4 94.8837C74.041 93.9935 82.1137 91.6306 82.1137 91.6306C80.2501 86.5532 75.3679 82.9301 69.6384 82.9301Z" fill="#B21919"/>
<path fill-rule="evenodd" clip-rule="evenodd" d="M56.3037 33.1082C64.5835 35.8545 76.0645 39.6605 88.0871 27.6526C92.0795 23.6651 77.9405 16.9448 69.3747 14.1338C60.5798 11.2477 52.6003 9.60038 45.6724 14.1338C38.9053 15.1351 36.7571 17.4909 34.6615 19.6395C31.5775 22.8016 30.5513 26.3112 30.9907 30.9104C31.1324 32.3889 31.2652 33.7819 31.2652 35.0231C31.2652 35.8088 31.3685 36.3969 31.5604 36.8185C31.3617 38.4235 31.2631 40.0393 31.2652 41.6565C31.2652 43.2203 31.8872 44.72 32.9943 45.8258C34.1015 46.9316 35.6031 47.5528 37.1688 47.5528C38.7345 47.5528 40.2361 46.9316 41.3432 45.8258C42.4504 44.72 43.0723 43.2203 43.0723 41.6565C43.9737 41.6566 44.863 41.4506 45.6723 41.0543C46.4816 40.6579 47.1892 40.0818 47.741 39.37C48.2928 38.6582 48.6741 37.8297 48.8557 36.9479C49.0373 36.0662 49.0143 35.1546 48.7885 34.2831L48.9759 34.286C50.7824 34.286 52.3985 33.4753 53.4818 32.2002C54.3733 32.4685 55.3164 32.781 56.3037 33.1082Z" fill="black"/>
<path d="M58.2283 54.2414C61.708 54.2414 64.5289 51.424 64.5289 47.9485C64.5289 44.4731 61.708 41.6556 58.2283 41.6556C54.7486 41.6556 51.9277 44.4731 51.9277 47.9485C51.9277 51.424 54.7486 54.2414 58.2283 54.2414Z" stroke="black" stroke-width="2"/>
<path d="M75.7863 53.7924C79.266 53.7924 82.0869 50.975 82.0869 47.4995C82.0869 44.0241 79.266 41.2066 75.7863 41.2066C72.3066 41.2066 69.4857 44.0241 69.4857 47.4995C69.4857 50.975 72.3066 53.7924 75.7863 53.7924Z" stroke="black" stroke-width="2"/>
<path d="M41.8 44.4598L51.912 45.6393" stroke="black" stroke-width="2"/>
<path d="M64.0537 47.5676L69.5661 47.4712" stroke="black" stroke-width="2"/>
<path d="M54.2858 62.9791C54.2858 61.8062 54.7523 60.6814 55.5826 59.8521C56.413 59.0227 57.5392 58.5568 58.7134 58.5568H71.9965C73.1708 58.5568 74.297 59.0227 75.1273 59.8521C75.9577 60.6814 76.4242 61.8062 76.4242 62.9791H54.2858Z" fill="#1B0B47"/>
<path d="M61.8978 47.8753C61.8978 46.5879 60.9229 45.5442 59.7204 45.5442C58.5178 45.5442 57.543 46.5879 57.543 47.8753V49.4294C57.543 50.7168 58.5178 51.7605 59.7204 51.7605C60.9229 51.7605 61.8978 50.7168 61.8978 49.4294V47.8753Z" fill="#1B0B47"/>
<path d="M79.2691 47.8753C79.2691 46.5879 78.2943 45.5442 77.0917 45.5442C75.8892 45.5442 74.9143 46.5879 74.9143 47.8753V49.4294C74.9143 50.7168 75.8892 51.7605 77.0917 51.7605C78.2943 51.7605 79.2691 50.7168 79.2691 49.4294V47.8753Z" fill="#1B0B47"/>
</svg>
