<svg width="114" height="96" viewBox="0 0 114 96" fill="none" xmlns="http://www.w3.org/2000/svg">
<path d="M114 47.9191C114 21.4541 88.4802 0 57 0C25.5198 0 0 21.4541 0 47.9191C0 74.3841 25.5198 95.8382 57 95.8382C88.4802 95.8382 114 74.3841 114 47.9191Z" fill="#FCFEFF"/>
<path d="M22.2516 70.2738C25.7593 68.6111 28.5249 68.3676 30.6991 68.9067C32.878 69.447 34.4982 70.7821 35.6944 72.3388C36.8919 73.897 37.657 75.6681 38.1229 77.0553C38.3554 77.7478 38.5126 78.3421 38.6114 78.7624C38.6608 78.9725 38.6956 79.139 38.718 79.2524C38.7265 79.2955 38.7332 79.3309 38.7382 79.3581L34.5792 90.1239C34.4656 90.1108 34.305 90.0919 34.1068 90.0676C33.6924 90.0169 33.1139 89.9424 32.4578 89.8478C31.1429 89.6583 29.5257 89.3892 28.2917 89.0694C27.0864 88.7571 25.7437 88.2221 24.6968 87.762C24.1745 87.5324 23.7284 87.3226 23.4129 87.1702C23.2552 87.0941 23.1302 87.0323 23.0449 86.9896C23.0022 86.9683 22.9695 86.9518 22.9475 86.9406L22.9287 86.9311L15.9182 82.0915C15.64 81.7269 15.3316 81.4203 15.034 81.1474C14.904 81.0281 14.7804 80.9189 14.6621 80.8145C14.4929 80.665 14.3347 80.5252 14.1847 80.3798C13.6905 79.9005 13.4246 79.486 13.5295 78.8944C13.6423 78.2586 14.1884 77.3646 15.559 75.9757C16.9159 74.6005 19.0442 72.7751 22.2516 70.2738Z" fill="black" stroke="#C2C9D2" stroke-width="0.5"/>
<path d="M36.026 61.2459C40.1016 61.2459 43.4055 57.9517 43.4055 53.8879C43.4055 49.8242 40.1016 46.5299 36.026 46.5299C31.9504 46.5299 28.6465 49.8242 28.6465 53.8879C28.6465 57.9517 31.9504 61.2459 36.026 61.2459Z" fill="#DA9770"/>
<path d="M35.8286 59.5407H60.8V92.4469C60.8 92.4469 55.4487 95.2651 48.3143 95.2651C41.1798 95.2651 35.8286 90.6646 35.8286 90.6646V59.5407Z" fill="#DA9770"/>
<path d="M60.8372 77.5984C60.8372 85.523 59.5532 84.7725 51.1952 84.7725C42.8372 84.7725 38.9807 78.3489 38.9807 70.4243C38.9807 62.5012 38.6634 55.3595 45.4082 55.3595C64.4812 56.06 60.8372 69.6738 60.8372 77.5984Z" fill="#553329"/>
<path d="M77.1126 57.2293C77.1126 68.462 75.0845 82.2744 58.9889 82.2744C42.8932 82.2744 35.4716 68.462 35.4716 57.2293C31.9189 43.8839 32.6505 28.1465 56.794 28.1465C80.9375 28.1465 77.1126 45.9953 77.1126 57.2293Z" fill="#DA9770"/>
<path d="M65.5439 59.7743H64.068C63.2529 59.7743 62.5921 60.4332 62.5921 61.2459C62.5921 62.0587 63.2529 62.7175 64.068 62.7175H65.5439C66.359 62.7175 67.0198 62.0587 67.0198 61.2459C67.0198 60.4332 66.359 59.7743 65.5439 59.7743Z" fill="#855C5C"/>
<path d="M35.5341 48.1739C35.5341 48.1739 33.4832 47.7714 32.2769 48.1739C29.2883 49.1712 29.0228 52.6558 29.5626 55.7518C30.1537 59.142 36.0769 61.7061 36.0769 61.7061L35.657 81.8046C36.4408 84.3244 37.5648 86.808 39.0857 87.6875C46.0544 91.7174 35.5341 87.6875 35.5341 87.6875L35.657 81.8046C34.645 78.5515 34.2 75.238 34.2 75.238C34.2 75.238 20.6286 61.7061 22.8 48.1739C24.5837 37.0582 29.7367 29.6046 39.0857 24.3573C47.5231 19.6218 54.8286 21.1097 54.8286 21.1097C54.8286 21.1097 64.9773 21.3507 71.3626 25.9813C77.3341 30.3116 79.8 35.7825 79.8 43.3026C79.8 52.5043 78.1714 70.9078 71.7059 77.4031C71.2632 77.9518 70.786 78.4367 70.2715 78.843C62.6006 86.5371 61.8857 87.1462 61.8857 87.1462C61.8857 87.1462 60.9271 83.8277 61.3429 82.2747C64.6 80.6508 67.6725 80.7356 70.0286 79.027C70.1105 78.9676 70.1914 78.9063 70.2715 78.843C70.7249 78.3883 71.2026 77.9087 71.7059 77.4031C76.9007 70.9648 77.3341 55.7518 77.3341 55.7518V46.0087C77.3341 41.6788 72.4483 28.688 59.4198 28.688C51.2468 28.688 50.7803 46.5503 42.3429 48.1739C37.7211 49.0632 35.5341 48.1739 35.5341 48.1739Z" fill="black" stroke="black" stroke-opacity="0.15" stroke-width="0.5"/>
<path d="M59.574 25.1958C58.0635 23.3143 55.1837 21.417 55.1837 21.417C55.1837 21.417 57.1892 22.5151 58.2792 23.4721C59.5368 24.5762 60.4469 25.7684 60.7173 26.3964C61.3755 27.9253 61.4746 29.0115 61.4746 29.0115C61.4746 29.0115 61.2064 27.2292 59.574 25.1958Z" fill="#BDBDBD" stroke="#C4C4C4" stroke-width="0.0787096"/>
<path d="M49.541 30.9175C48.1463 33.2488 46.5013 37.4602 46.5013 37.4602C46.5013 37.4602 47.513 34.5582 48.2789 32.9312C49.1626 31.0541 50.0381 29.6413 50.4626 29.1837C51.4958 28.0698 52.165 27.7838 52.165 27.7838C52.165 27.7838 51.0483 28.3979 49.541 30.9175Z" fill="#C4C4C4" stroke="#C4C4C4" stroke-width="0.0447063"/>
<path d="M42.0937 30.2401C39.6714 33.7162 36.9143 40.0547 36.9143 40.0547C36.9143 40.0547 38.5886 35.6787 39.8952 33.2387C41.4027 30.4236 42.9266 28.3192 43.681 27.6472C45.5173 26.0113 46.7364 25.6187 46.7364 25.6187C46.7364 25.6187 44.7114 26.4834 42.0937 30.2401Z" fill="#D3D3D3" stroke="#C4C4C4" stroke-width="0.0447063"/>
<path d="M33.4079 34.1104C30.9857 37.5865 28.2286 43.925 28.2286 43.925C28.2286 43.925 29.9029 39.549 31.2095 37.109C32.717 34.294 34.2409 32.1896 34.9953 31.5176C36.8316 29.8817 38.0507 29.489 38.0507 29.489C38.0507 29.489 36.0257 30.3537 33.4079 34.1104Z" fill="#D3D3D3" stroke="#C4C4C4" stroke-width="0.0447063"/>
<path d="M65.5439 87.7346H33.0743H23.8857C23.8857 87.7346 27.4591 89.5176 29.8572 90.3935C31.9355 91.1525 35.2857 92.5586 35.2857 92.5586C35.2857 92.5586 43.4333 95.2695 48.8572 95.8063C55.3556 96.4494 63.3391 95.3843 70.0286 94.1824C76.5634 93.0083 83.0572 90.3935 83.0572 90.3935C83.0572 90.3935 76.5994 88.6418 73.2857 88.2284C69.9721 87.8149 65.5439 87.7346 65.5439 87.7346Z" fill="#3633E0"/>
<path d="M34.5501 84.7914H62.5921V89.2063C62.5921 89.2063 55.2126 90.6779 48.5711 90.6779C41.9296 90.6779 34.5501 89.2063 34.5501 89.2063V84.7914Z" fill="#3633E0"/>
<path d="M34.5501 84.7914H62.5921V87.7346C62.5921 87.7346 58.1644 89.9421 48.5711 89.9421C38.9778 89.9421 34.5501 87.7346 34.5501 87.7346V84.7914Z" fill="#362ABC"/>
<path d="M33.8122 86.263C33.8122 85.4825 34.1232 84.7338 34.6768 84.1819C35.2303 83.6299 35.9811 83.3198 36.764 83.3198H60.3783C61.1611 83.3198 61.9119 83.6299 62.4655 84.1819C63.0191 84.7338 63.3301 85.4825 63.3301 86.263C63.3301 86.263 55.9506 87.7346 48.5711 87.7346C41.1917 87.7346 33.8122 86.263 33.8122 86.263Z" fill="#3633E0"/>
<path d="M52.1561 67.1324C52.1561 66.7421 52.3116 66.3678 52.5884 66.0918C52.8652 65.8158 53.2406 65.6608 53.632 65.6608H67.1261C67.5175 65.6608 67.8929 65.8158 68.1697 66.0918C68.4465 66.3678 68.602 66.7421 68.602 67.1324C68.602 69.0838 67.8245 70.9554 66.4406 72.3353C65.0567 73.7151 63.1797 74.4904 61.2225 74.4904H59.5356C57.5784 74.4904 55.7014 73.7151 54.3175 72.3353C52.9336 70.9554 52.1561 69.0838 52.1561 67.1324Z" fill="#66253C"/>
<path fill-rule="evenodd" clip-rule="evenodd" d="M63.7064 74.064C62.9091 74.3475 62.0688 74.4919 61.2224 74.4908H59.5355C57.6294 74.4908 55.7973 73.7554 54.4228 72.4387C53.0484 71.122 52.2382 69.3261 52.1619 67.4271C53.2895 67.0062 54.9632 67.0548 56.6147 67.1033C57.1401 67.1181 57.6626 67.1328 58.1644 67.1328C61.4261 67.1328 64.068 69.4388 64.068 72.2834C64.068 72.9088 63.9396 73.5092 63.7064 74.064Z" fill="#B03E67"/>
<path d="M53.7367 65.6608H68.4956V67.1324C68.4956 67.5226 68.3401 67.897 68.0633 68.1729C67.7866 68.4489 67.4112 68.604 67.0197 68.604H55.2126C54.8212 68.604 54.4458 68.4489 54.169 68.1729C53.8922 67.897 53.7367 67.5226 53.7367 67.1324V65.6608Z" fill="white"/>
<path d="M58.7134 54.1702C58.7134 52.9511 57.7222 51.9628 56.4995 51.9628C55.2769 51.9628 54.2857 52.9511 54.2857 54.1702V55.6418C54.2857 56.8609 55.2769 57.8492 56.4995 57.8492C57.7222 57.8492 58.7134 56.8609 58.7134 55.6418V54.1702Z" fill="#1B0B47"/>
<path d="M73.4723 54.1702C73.4723 52.9511 72.4811 51.9628 71.2585 51.9628C70.0358 51.9628 69.0446 52.9511 69.0446 54.1702V55.6418C69.0446 56.8609 70.0358 57.8492 71.2585 57.8492C72.4811 57.8492 73.4723 56.8609 73.4723 55.6418V54.1702Z" fill="#1B0B47"/>
<path d="M54.8286 60.6233C58.7261 60.6233 61.8857 57.9575 61.8857 54.6692C61.8857 51.3808 58.7261 48.7151 54.8286 48.7151C50.931 48.7151 47.7714 51.3808 47.7714 54.6692C47.7714 57.9575 50.931 60.6233 54.8286 60.6233Z" stroke="black"/>
<path d="M71.6571 60.6233C75.2549 60.6233 78.1714 57.9575 78.1714 54.6692C78.1714 51.3808 75.2549 48.7151 71.6571 48.7151C68.0594 48.7151 65.1428 51.3808 65.1428 54.6692C65.1428 57.9575 68.0594 60.6233 71.6571 60.6233Z" stroke="black"/>
<path d="M61.4333 54.5151L65.5952 54.5152" stroke="black"/>
<path d="M33.8725 48.4687L48.7738 52.6631" stroke="black"/>
<ellipse cx="62.4286" cy="43.8436" rx="1.62857" ry="1.62384" fill="#CA0808"/>
</svg>
