<svg width="114" height="96" viewBox="0 0 114 96" fill="none" xmlns="http://www.w3.org/2000/svg">
<g clip-path="url(#clip0)">
<path d="M114 50.1688C114 23.6591 88.4802 2.16877 57 2.16877C25.5198 2.16877 0 23.6591 0 50.1688C0 76.6784 25.5198 98.1688 57 98.1688C88.4802 98.1688 114 76.6784 114 50.1688Z" fill="#FCFEFF"/>
<path d="M32.0625 63.0001C36.9813 63.0001 40.9688 59.6423 40.9688 55.5001C40.9688 51.358 36.9813 48.0001 32.0625 48.0001C27.1437 48.0001 23.1562 51.358 23.1562 55.5001C23.1562 59.6423 27.1437 63.0001 32.0625 63.0001Z" fill="#DA9770"/>
<path d="M32.0625 61.5001H62.3438V98.8051C62.3438 98.8051 55.8547 102 47.2031 102C38.5516 102 32.0625 96.7846 32.0625 96.7846V61.5001Z" fill="#DA9770"/>
<path d="M62.3432 80.8021C62.3432 89.2831 60.7721 88.4791 50.5567 88.4791C40.3412 88.4791 35.628 81.6046 35.628 73.1236C35.628 64.6426 35.2397 57.0001 43.4833 57.0001C66.7963 57.7501 62.3432 72.3211 62.3432 80.8021Z" fill="#553329"/>
<path d="M81.7367 54.1501C81.7367 67.5331 88.3023 83.9896 59.6741 83.9896C31.0458 83.9896 31.0458 67.5331 31.0458 54.1501C26.721 38.2501 27.6116 19.5001 57.0022 19.5001C86.3928 19.5001 81.7367 40.7656 81.7367 54.1501Z" fill="#DA9770"/>
<path d="M67.6875 61.5001H65.9062C64.9225 61.5001 64.125 62.1717 64.125 63.0001C64.125 63.8285 64.9225 64.5001 65.9062 64.5001H67.6875C68.6713 64.5001 69.4688 63.8285 69.4688 63.0001C69.4688 62.1717 68.6713 61.5001 67.6875 61.5001Z" fill="#855C5C"/>
<path d="M67.6875 90H28.5C19.6462 90 12.4688 96.0442 12.4688 103.5V111C12.4688 118.456 19.6462 124.5 28.5 124.5H67.6875C76.5413 124.5 83.7188 118.456 83.7188 111V103.5C83.7188 96.0442 76.5413 90 67.6875 90Z" fill="#E05A33"/>
<path d="M41.7852 39.534L41.6814 39.7504L41.7854 39.9667C42.1826 40.7936 42.3305 41.6848 42.221 42.5644C42.1113 43.4444 41.746 44.2959 41.1476 45.0429C40.5486 45.7906 39.7342 46.4108 38.7702 46.8422C37.8062 47.2736 36.7268 47.5007 35.6278 47.5002L35.1276 47.5V48.0002C35.1276 49.4285 34.4546 50.8197 33.2187 51.8604C31.9803 52.9033 30.2848 53.5002 28.5026 53.5002C26.7204 53.5002 25.025 52.9033 23.7866 51.8604C22.5507 50.8197 21.8776 49.4285 21.8776 48.0002C21.8776 46.4467 21.993 43.8866 22.52 41.6326L22.5636 41.4459L22.4713 41.2779C21.9458 40.3219 21.7635 39.2659 21.9385 38.2338C22.1138 37.2005 22.6424 36.2199 23.4766 35.4144C24.3116 34.6081 25.4152 34.0144 26.6589 33.7153C27.9026 33.4161 29.2237 33.4266 30.4601 33.7454L30.71 33.8098L30.9073 33.6434C31.8296 32.8653 33.0147 32.3279 34.3158 32.1092C35.6168 31.8905 36.9649 32.0022 38.1869 32.4279C39.4089 32.8536 40.4404 33.5707 41.1594 34.4765C41.8773 35.3808 42.2527 36.4332 42.2526 37.5002C42.2526 38.2171 42.0874 38.904 41.7852 39.534ZM86.1813 42.5337L86.0773 42.7501L86.1812 42.9665C86.5305 43.6944 86.6871 44.4728 86.6444 45.2499C86.6016 46.0272 86.3599 46.792 85.9303 47.4925C85.5004 48.1935 84.8914 48.8151 84.1393 49.3104C83.5559 49.6946 82.8986 49.9948 82.1948 50.1979L82.2296 49.2415L82.2296 49.2409L82.2318 49.1827C82.3999 44.7047 82.5862 39.7448 81.6894 35.176C82.4375 35.3373 83.1462 35.6063 83.7832 35.9708C84.616 36.4474 85.3014 37.0726 85.7932 37.794C86.2846 38.5148 86.5708 39.3137 86.6372 40.1305C86.7036 40.947 86.5491 41.7682 86.1813 42.5337Z" fill="black" stroke="#C2C9D2"/>
<path d="M51.5272 69C51.5272 68.6022 51.7149 68.2206 52.0489 67.9393C52.383 67.658 52.8361 67.5 53.3085 67.5H69.5944C70.0669 67.5 70.5199 67.658 70.854 67.9393C71.188 68.2206 71.3757 68.6022 71.3757 69C71.3757 70.9891 70.4374 72.8968 68.7671 74.3033C67.0969 75.7098 64.8315 76.5 62.4694 76.5H60.4335C58.0714 76.5 55.806 75.7098 54.1358 74.3033C52.4656 72.8968 51.5272 70.9891 51.5272 69Z" fill="#66253C"/>
<path fill-rule="evenodd" clip-rule="evenodd" d="M65.469 76.0647C64.5068 76.3537 63.4926 76.5008 62.4711 76.4997H60.4351C58.1347 76.4997 55.9235 75.7502 54.2647 74.408C52.6059 73.0659 51.628 71.2353 51.536 69.2997C52.8969 68.8707 54.9168 68.9202 56.91 68.9697C57.5442 68.9847 58.1747 68.9997 58.7804 68.9997C62.7169 68.9997 65.9054 71.3502 65.9054 74.2497C65.9054 74.8872 65.7504 75.4992 65.469 76.0647Z" fill="#B03E67"/>
<path d="M53.4375 67.5H71.25V69C71.25 69.3978 71.0623 69.7794 70.7283 70.0607C70.3942 70.342 69.9412 70.5 69.4688 70.5H55.2188C54.7463 70.5 54.2933 70.342 53.9592 70.0607C53.6252 69.7794 53.4375 69.3978 53.4375 69V67.5Z" fill="white"/>
<path d="M57 67.95C57 67.8307 57.0563 67.7162 57.1565 67.6318C57.2567 67.5474 57.3926 67.5 57.5344 67.5H60.0281C60.1699 67.5 60.3058 67.5474 60.406 67.6318C60.5062 67.7162 60.5625 67.8307 60.5625 67.95V71.55C60.5625 71.6693 60.5062 71.7838 60.406 71.8682C60.3058 71.9526 60.1699 72 60.0281 72H57.5344C57.3926 72 57.2567 71.9526 57.1565 71.8682C57.0563 71.7838 57 71.6693 57 71.55V67.95Z" fill="#B03E67"/>
<path d="M58.7812 56.2502C58.7812 55.0076 57.585 54.0002 56.1094 54.0002C54.6337 54.0002 53.4375 55.0076 53.4375 56.2502V57.7502C53.4375 58.9928 54.6337 60.0002 56.1094 60.0002C57.585 60.0002 58.7812 58.9928 58.7812 57.7502V56.2502Z" fill="#1B0B47"/>
<path d="M76.5938 56.2499C76.5938 55.0073 75.3975 53.9999 73.9219 53.9999C72.4462 53.9999 71.25 55.0073 71.25 56.2499V57.7499C71.25 58.9926 72.4462 59.9999 73.9219 59.9999C75.3975 59.9999 76.5938 58.9926 76.5938 57.7499V56.2499Z" fill="#1B0B47"/>
<path fill-rule="evenodd" clip-rule="evenodd" d="M66.7969 64.5C55.2188 66.75 47.2031 67.5 47.2031 67.5C47.2031 67.5 48.9844 71.25 53.4375 70.5C57 69.9 64.125 68.5005 66.7969 67.5V64.5ZM67.6875 64.5C78.375 66 85.5 67.134 85.5 67.134C85.5 67.134 83.5068 70.4085 79.2656 69.75L78.6956 69.6615C75.2685 69.132 70.0922 68.3295 67.6875 67.5V64.5Z" fill="#1B0B47"/>
</g>
<defs>
<clipPath id="clip0">
<path d="M0 48C0 21.4903 21.4903 0 48 0H66C92.5097 0 114 21.4903 114 48C114 74.5097 92.5097 96 66 96H48C21.4903 96 0 74.5097 0 48Z" fill="white"/>
</clipPath>
</defs>
</svg>
