<svg width="96" height="96" viewBox="0 0 96 96" fill="none" xmlns="http://www.w3.org/2000/svg">
<g clip-path="url(#clip0)">
<path d="M27 63C31.1421 63 34.5 59.6421 34.5 55.5C34.5 51.3579 31.1421 48 27 48C22.8579 48 19.5 51.3579 19.5 55.5C19.5 59.6421 22.8579 63 27 63Z" fill="#D1916C"/>
<path d="M27 61.5H52.5V98.805C52.5 98.805 47.0355 102 39.75 102C32.4645 102 27 96.7845 27 96.7845V61.5Z" fill="#D1916C"/>
<path d="M52.2165 79.668C52.2165 87.7455 50.9115 86.9805 42.417 86.9805C33.9225 86.9805 30.003 80.433 30.003 72.3555C30.003 64.2795 29.6805 57 36.5355 57C55.92 57.714 52.2165 71.5905 52.2165 79.668Z" fill="#553329"/>
<path d="M68.829 54.15C68.829 67.533 66.75 83.9895 50.25 83.9895C33.75 83.9895 26.142 67.533 26.142 54.15C22.5 38.25 23.25 19.5 48 19.5C72.75 19.5 68.829 40.7655 68.829 54.15Z" fill="#D1916C"/>
<path d="M57 61.5H55.5C54.6716 61.5 54 62.1716 54 63C54 63.8284 54.6716 64.5 55.5 64.5H57C57.8284 64.5 58.5 63.8284 58.5 63C58.5 62.1716 57.8284 61.5 57 61.5Z" fill="#9B6E60"/>
<path d="M57 90H24C16.5442 90 10.5 96.0442 10.5 103.5V111C10.5 118.456 16.5442 124.5 24 124.5H57C64.4558 124.5 70.5 118.456 70.5 111V103.5C70.5 96.0442 64.4558 90 57 90Z" fill="#0B7D6C"/>
<path d="M25.5 87H54V91.5C54 91.5 46.5 93 39.75 93C33 93 25.5 91.5 25.5 91.5V87Z" fill="#4FB6B2"/>
<path d="M25.5 87H54V90C54 90 49.5 92.25 39.75 92.25C30 92.25 25.5 90 25.5 90V87Z" fill="#4FB6B2"/>
<path d="M24.75 88.5C24.75 87.7044 25.0661 86.9413 25.6287 86.3787C26.1913 85.8161 26.9544 85.5 27.75 85.5H51.75C52.5456 85.5 53.3087 85.8161 53.8713 86.3787C54.4339 86.9413 54.75 87.7044 54.75 88.5C54.75 88.5 47.25 90 39.75 90C32.25 90 24.75 88.5 24.75 88.5Z" fill="#0B7D6C"/>
<path d="M55.25 48.1217C55.25 48.7421 54.7454 49.2435 54.125 49.2435C53.5046 49.2435 53 48.7421 53 48.1217C53 47.5013 53.5046 47 54.125 47C54.7454 47 55.25 47.5013 55.25 48.1217Z" fill="#CA0808"/>
<path fill-rule="evenodd" clip-rule="evenodd" d="M72 37.5C71.9993 30.4046 69.2055 23.5947 64.223 18.543C59.2405 13.4914 52.4698 10.6041 45.3751 10.5055C38.2804 10.407 31.432 13.1051 26.3111 18.0164C21.1902 22.9277 18.2084 29.6574 18.0105 36.75H18C18 36.75 13.2355 37.7168 11.2363 39.2112C8.50452 41.253 7.94368 42.6217 7.31674 45.4197C6.69669 48.1869 6.64232 51.2114 7.31672 54.1485C8.50226 59.3117 9.26145 59.9118 12.1025 62.3228C14.1039 64.0213 16.2811 64.3525 18.5549 65.3426C20.671 66.264 24.7846 65.3426 24.7846 65.3426C24.7846 65.3426 25.8885 69.6797 25.8885 71.4933C25.8885 74.2991 27.0234 79.3001 27.2226 78.9472V73.701C27.2226 73.701 26.8971 66.0535 27.1283 62.9286C27.2541 61.2278 29.5964 58.3461 31.6075 56.0389C32.4428 55.0806 33.5154 53.6787 33.9342 53.1347C34.9898 51.8935 34.9003 51.7466 34.9003 51.7466C38.6278 51.0296 37.9809 41.5249 43.6282 39.2112C49.1502 36.9487 52.5769 39.3485 58.1144 39.2112C62.5129 39.102 67.2231 38.9387 68.814 37.806C69.177 41.592 69.051 45.546 68.934 49.221C68.88 50.94 68.8275 52.596 68.8275 54.1485C68.8275 54.7605 68.8155 55.3755 68.79 55.992C69.1365 55.8825 69.4605 55.7625 69.7485 55.632C71.9985 54.606 71.9985 53.2365 71.9985 53.2365V37.5H72ZM22.5 49.5C21.4229 50.3057 20.5834 51.3872 20.07 52.6305C19.4331 54.1689 19.3261 55.8755 19.7661 57.4814C19.983 58.2732 20.856 60.2828 22.5 61.5C24.1903 62.7514 27.1283 62.9286 27.1283 62.9286C27.1283 62.9286 27.0567 62.5118 27.8124 61.0981C28.2265 60.3237 29.1507 59.0345 29.1507 59.0345L35.0872 51.6955C35.0872 51.6955 30.2702 53.0592 27.8124 52.6305C25.3547 52.2018 22.5 49.5 22.5 49.5Z" fill="black"/>
<path d="M43.3936 69C43.3936 68.6022 43.5516 68.2206 43.8329 67.9393C44.1142 67.658 44.4957 67.5 44.8936 67.5H58.608C59.0059 67.5 59.3874 67.658 59.6687 67.9393C59.95 68.2206 60.108 68.6022 60.108 69C60.108 70.9891 59.3179 72.8968 57.9113 74.3033C56.5048 75.7098 54.5972 76.5 52.608 76.5H50.8936C48.9044 76.5 46.9968 75.7098 45.5903 74.3033C44.1837 72.8968 43.3936 70.9891 43.3936 69Z" fill="#66253C"/>
<path fill-rule="evenodd" clip-rule="evenodd" d="M55.1325 76.065C54.3222 76.354 53.4682 76.5011 52.608 76.5H50.8935C48.9563 76.5 47.0942 75.7505 45.6973 74.4083C44.3004 73.0662 43.477 71.2356 43.3995 69.3C44.5455 68.871 46.2465 68.9205 47.925 68.97C48.459 68.985 48.99 69 49.5 69C52.815 69 55.5 71.3505 55.5 74.25C55.5 74.8875 55.3695 75.4995 55.1325 76.065Z" fill="#B03E67"/>
<path d="M45 67.5H60V69C60 69.3978 59.842 69.7794 59.5607 70.0607C59.2794 70.342 58.8978 70.5 58.5 70.5H46.5C46.1022 70.5 45.7206 70.342 45.4393 70.0607C45.158 69.7794 45 69.3978 45 69V67.5Z" fill="white"/>
<path d="M49.1479 54.6163C49.1479 53.3737 48.1406 52.3663 46.8979 52.3663C45.6553 52.3663 44.6479 53.3737 44.6479 54.6163V56.1163C44.6479 57.359 45.6553 58.3663 46.8979 58.3663C48.1406 58.3663 49.1479 57.359 49.1479 56.1163V54.6163Z" fill="#1B0B47"/>
<path d="M64.1479 54.6163C64.1479 53.3737 63.1406 52.3663 61.8979 52.3663C60.6553 52.3663 59.6479 53.3737 59.6479 54.6163V56.1163C59.6479 57.359 60.6553 58.3663 61.8979 58.3663C63.1406 58.3663 64.1479 57.359 64.1479 56.1163V54.6163Z" fill="#1B0B47"/>
<path d="M19.5257 60.3183C19.3464 59.1873 20.1251 58.1087 21.2596 57.9538C22.5321 57.78 23.7424 59.0492 23.5453 60.3183C23.395 61.2863 22.7076 61.9572 21.7325 62.0523C20.6417 62.1586 19.6973 61.4008 19.5257 60.3183Z" stroke="#F8E119" stroke-width="0.564433"/>
</g>
<defs>
<clipPath id="clip0">
<rect width="96" height="96" rx="48" fill="white"/>
</clipPath>
</defs>
</svg>
