<svg width="148" height="145" viewBox="0 0 148 145" fill="none" xmlns="http://www.w3.org/2000/svg">
<rect x="47.6667" y="25.6666" width="46.6667" height="46.6667" fill="#07213C"/>
<path d="M71 15.6666C52.6 15.6666 37.6667 30.6 37.6667 49C37.6667 67.4 52.6 82.3333 71 82.3333C89.4 82.3333 104.333 67.4 104.333 49C104.333 30.6 89.4 15.6666 71 15.6666ZM87.6667 52.3333H74.3333V65.6666H67.6667V52.3333H54.3333V45.6666H67.6667V32.3333H74.3333V45.6666H87.6667V52.3333Z" fill="#F9E24D"/>
<path d="M25.7296 124L24.4464 120.432H19.5333L18.2765 124H16.0616L20.8693 111.098H23.1544L27.962 124H25.7296ZM23.8927 118.621L22.6886 115.123C22.6007 114.889 22.4776 114.52 22.3194 114.016C22.1671 113.512 22.0616 113.143 22.003 112.908C21.8448 113.629 21.6134 114.417 21.3087 115.272L20.1485 118.621H23.8927ZM32.7529 124.176C31.54 124.176 30.5937 123.736 29.914 122.857C29.2344 121.979 28.8945 120.745 28.8945 119.157C28.8945 117.563 29.2373 116.324 29.9228 115.439C30.6142 114.549 31.5693 114.104 32.7881 114.104C34.0654 114.104 35.0381 114.575 35.706 115.519H35.8115C35.7119 114.821 35.6621 114.271 35.6621 113.866V110.324H37.7363V124H36.1191L35.7588 122.726H35.6621C35 123.692 34.0303 124.176 32.7529 124.176ZM33.3066 122.506C34.1562 122.506 34.7744 122.269 35.1611 121.794C35.5478 121.313 35.747 120.537 35.7588 119.465V119.175C35.7588 117.95 35.5595 117.08 35.1611 116.564C34.7627 116.049 34.1386 115.791 33.289 115.791C32.5625 115.791 32.0029 116.087 31.6103 116.679C31.2178 117.265 31.0215 118.103 31.0215 119.192C31.0215 120.271 31.2119 121.094 31.5928 121.662C31.9736 122.225 32.5449 122.506 33.3066 122.506ZM44.0038 124.176C42.7909 124.176 41.8446 123.736 41.1649 122.857C40.4852 121.979 40.1454 120.745 40.1454 119.157C40.1454 117.563 40.4881 116.324 41.1737 115.439C41.8651 114.549 42.8202 114.104 44.0389 114.104C45.3163 114.104 46.2889 114.575 46.9569 115.519H47.0623C46.9627 114.821 46.9129 114.271 46.9129 113.866V110.324H48.9872V124H47.37L47.0096 122.726H46.9129C46.2508 123.692 45.2811 124.176 44.0038 124.176ZM44.5575 122.506C45.4071 122.506 46.0252 122.269 46.412 121.794C46.7987 121.313 46.9979 120.537 47.0096 119.465V119.175C47.0096 117.95 46.8104 117.08 46.412 116.564C46.0135 116.049 45.3895 115.791 44.5399 115.791C43.8133 115.791 43.2538 116.087 42.8612 116.679C42.4686 117.265 42.2723 118.103 42.2723 119.192C42.2723 120.271 42.4627 121.094 42.8436 121.662C43.2245 122.225 43.7957 122.506 44.5575 122.506ZM62.4625 124L58.7359 113.269H58.6656C58.7652 114.862 58.815 116.356 58.815 117.751V124H56.9078V111.15H59.8697L63.4381 121.372H63.4908L67.1646 111.15H70.1353V124H68.1138V117.646C68.1138 117.007 68.1285 116.175 68.1578 115.149C68.1929 114.124 68.2222 113.503 68.2457 113.286H68.1754L64.317 124H62.4625ZM77.5805 124.176C76.0688 124.176 74.8852 123.736 74.0297 122.857C73.1801 121.973 72.7553 120.757 72.7553 119.21C72.7553 117.622 73.1508 116.374 73.9418 115.466C74.7328 114.558 75.8198 114.104 77.2026 114.104C78.4858 114.104 79.4994 114.493 80.2436 115.272C80.9877 116.052 81.3598 117.124 81.3598 118.489V119.605H74.8823C74.9116 120.549 75.1664 121.275 75.6469 121.785C76.1274 122.289 76.8041 122.541 77.6772 122.541C78.2514 122.541 78.7846 122.488 79.2768 122.383C79.7748 122.271 80.308 122.09 80.8764 121.838V123.517C80.3725 123.757 79.8627 123.927 79.3471 124.026C78.8315 124.126 78.2426 124.176 77.5805 124.176ZM77.2026 115.668C76.5463 115.668 76.019 115.876 75.6205 116.292C75.228 116.708 74.9936 117.314 74.9174 118.111H79.3295C79.3178 117.309 79.1244 116.702 78.7494 116.292C78.3744 115.876 77.8588 115.668 77.2026 115.668ZM91.9339 124H89.8597V118.006C89.8597 117.262 89.719 116.708 89.4378 116.345C89.1565 115.976 88.7171 115.791 88.1194 115.791C87.3226 115.791 86.7366 116.052 86.3616 116.573C85.9925 117.089 85.8079 117.95 85.8079 119.157V124H83.7425V114.279H85.3597L85.6497 115.554H85.7552C86.0247 115.091 86.4144 114.733 86.9241 114.481C87.4397 114.229 88.0052 114.104 88.6204 114.104C90.1145 114.104 91.1048 114.613 91.5911 115.633H91.7317C92.0188 115.152 92.4231 114.777 92.9446 114.508C93.4661 114.238 94.0638 114.104 94.7376 114.104C95.8978 114.104 96.7415 114.396 97.2688 114.982C97.802 115.568 98.0686 116.462 98.0686 117.663V124H96.0032V118.006C96.0032 117.262 95.8597 116.708 95.5726 116.345C95.2913 115.976 94.8519 115.791 94.2542 115.791C93.4515 115.791 92.8626 116.043 92.4876 116.547C92.1185 117.045 91.9339 117.812 91.9339 118.85V124ZM105.953 114.104C107.166 114.104 108.11 114.543 108.783 115.422C109.463 116.301 109.803 117.534 109.803 119.122C109.803 120.716 109.46 121.958 108.775 122.849C108.089 123.733 107.137 124.176 105.918 124.176C104.688 124.176 103.733 123.733 103.053 122.849H102.912L102.534 124H100.987V110.324H103.053V113.576C103.053 113.816 103.041 114.174 103.018 114.648C102.994 115.123 102.977 115.425 102.965 115.554H103.053C103.709 114.587 104.676 114.104 105.953 114.104ZM105.417 115.791C104.585 115.791 103.985 116.037 103.615 116.529C103.252 117.016 103.065 117.833 103.053 118.981V119.122C103.053 120.306 103.24 121.164 103.615 121.697C103.99 122.225 104.603 122.488 105.452 122.488C106.185 122.488 106.738 122.198 107.113 121.618C107.494 121.038 107.685 120.2 107.685 119.104C107.685 116.896 106.929 115.791 105.417 115.791ZM116.483 124.176C114.972 124.176 113.788 123.736 112.933 122.857C112.083 121.973 111.658 120.757 111.658 119.21C111.658 117.622 112.054 116.374 112.845 115.466C113.636 114.558 114.723 114.104 116.105 114.104C117.389 114.104 118.402 114.493 119.147 115.272C119.891 116.052 120.263 117.124 120.263 118.489V119.605H113.785C113.814 120.549 114.069 121.275 114.55 121.785C115.03 122.289 115.707 122.541 116.58 122.541C117.154 122.541 117.688 122.488 118.18 122.383C118.678 122.271 119.211 122.09 119.779 121.838V123.517C119.275 123.757 118.766 123.927 118.25 124.026C117.734 124.126 117.146 124.176 116.483 124.176ZM116.105 115.668C115.449 115.668 114.922 115.876 114.523 116.292C114.131 116.708 113.897 117.314 113.82 118.111H118.232C118.221 117.309 118.027 116.702 117.652 116.292C117.277 115.876 116.762 115.668 116.105 115.668ZM127.576 114.104C127.992 114.104 128.335 114.133 128.604 114.191L128.402 116.116C128.109 116.046 127.805 116.011 127.488 116.011C126.662 116.011 125.991 116.28 125.475 116.819C124.966 117.358 124.711 118.059 124.711 118.92V124H122.645V114.279H124.263L124.535 115.993H124.641C124.963 115.413 125.382 114.953 125.897 114.613C126.419 114.273 126.978 114.104 127.576 114.104Z" fill="#07213C"/>
</svg>
