<svg width="24" height="24" viewBox="0 0 24 24" fill="none" xmlns="http://www.w3.org/2000/svg">
<path d="M17.4001 17.2001C18.3942 17.2001 19.2001 16.3942 19.2001 15.4001C19.2001 14.406 18.3942 13.6001 17.4001 13.6001C16.406 13.6001 15.6001 14.406 15.6001 15.4001C15.6001 16.3942 16.406 17.2001 17.4001 17.2001Z" fill="#0B7D6C"/>
<path d="M6.59983 8L4.57983 6.632L5.19983 4H7.99983L8.61983 6.632L6.59983 8Z" fill="#0B7D6C"/>
<path d="M7.86418 3.2H5.33618L5.60018 2H7.60018L7.86418 3.2Z" fill="#0B7D6C"/>
<path d="M11.2 11.2001V15.1361L2 11.5761V11.2001C2 9.98808 2.9 8.98808 4.064 8.82808L4.332 7.68768L6.6 9.20008L8.868 7.68408L9.136 8.82808C10.3 8.98808 11.2 9.98808 11.2 11.2001Z" fill="#0B7D6C"/>
<path d="M5.6436 17.1759C5.5196 17.4843 5.668 17.8323 5.9756 17.9559L11.2 20.0443V21.2003C11.2 21.8643 10.664 22.4003 10 22.4003H3.2C2.536 22.4003 2 21.8643 2 21.2003V16.5247L3.5756 17.1563C3.652 17.1883 3.7244 17.2003 3.8 17.2003C4.036 17.2003 4.264 17.0563 4.3564 16.8247C4.4804 16.5163 4.332 16.1683 4.0244 16.0447L2.0244 15.2447C2.016 15.2403 2.008 15.2403 2 15.2363V12.8643L11.2 16.4243V18.7559L6.4244 16.8443C6.116 16.7203 5.768 16.8683 5.6436 17.1759Z" fill="#0B7D6C"/>
<path d="M19.1999 8.4236V7.6C19.5243 7.2756 19.5999 6.8412 19.5999 6.4C19.5999 5.6 18.7999 4 18.7999 4H15.9999C15.9999 4 15.1999 5.6 15.1999 6.4C15.1999 6.8412 15.2755 7.2756 15.5999 7.6V8.4236C13.7999 8.6228 12.3999 10.1476 12.3999 12V21.2C12.3999 21.8628 12.9371 22.4 13.5999 22.4H21.1999C21.8623 22.4 22.3999 21.8628 22.3999 21.2V12C22.3999 10.1472 20.9999 8.6228 19.1999 8.4236ZM20.7999 19.2H13.9999V12H20.7999V19.2Z" fill="#0B7D6C"/>
<path d="M18.8 3.2H16V2.4C16 2.1788 16.1788 2 16.4 2H18.4C18.6212 2 18.8 2.1788 18.8 2.4V3.2Z" fill="#0B7D6C"/>
</svg>
