<svg width="24" height="24" viewBox="0 0 24 24" fill="none" xmlns="http://www.w3.org/2000/svg">
<path d="M21.2 8.2453C21.2 10.4033 19.358 12.0001 17.2 12.0001C16.0468 12.0001 15.4916 11.5641 14.8 10.7709C14.8 9.8105 14.8476 8.6969 13.8696 7.7145C13.7168 7.5617 13.4668 7.5617 13.3144 7.7145C13.1616 7.8669 13.1616 8.1173 13.3144 8.2697C13.8228 8.7781 14.0084 9.1361 14 9.8873C13.9828 11.4065 12.5984 12.7729 10.8 12.8001V14.8913C10.8 17.0489 8.8532 18.8001 6.6952 18.8001C4.5372 18.8001 2.8 17.0489 2.8 14.8913C2.8 14.1329 2.8696 13.7565 3.2448 13.1545C3.2448 13.1349 3.968 12.2285 4.5352 11.9625C4.7304 11.8725 4.8476 11.6729 4.7812 11.4661C4.7108 11.2629 4.492 11.1537 4.2848 11.2201C3.7024 11.4193 3.1396 11.9197 2.6976 12.4241C2.2992 11.8569 2 10.9465 2 10.2001C2 8.4569 3.3156 7.0141 4.9812 6.7329C4.8524 6.3497 4.8 5.9393 4.8 5.5089C4.8 3.3513 6.5328 1.6001 8.6908 1.6001C10.2 1.6001 11.5056 2.4565 12.1584 3.7073C12.6744 2.6909 13.7256 2.0001 14.9452 2.0001C16.4268 2.0001 17.6624 3.0193 17.9868 4.4029C19.8124 4.7313 21.2 6.3261 21.2 8.2453Z" fill="#0B7D6C"/>
<path d="M20.8001 17.7998C18.5281 22.3158 13.6001 22.3998 13.6001 22.3998C12.1081 20.0958 10.9161 18.8798 10.0361 18.2998C10.6521 17.7478 11.1201 17.0478 11.3761 16.2678C12.5961 16.7958 13.6001 17.4242 13.6001 17.4242C13.3281 16.4602 12.5881 14.8518 11.9601 13.4242C12.6841 13.2038 13.3077 12.7878 13.7601 12.2358C14.9681 14.1758 15.7961 15.3358 16.6281 15.9158C16.4601 15.0918 16.4161 13.7242 16.4037 12.7438C16.6565 12.7798 16.9201 12.7998 17.2001 12.7998C17.7757 12.7998 18.3245 12.7078 18.8321 12.5398C18.8565 13.0718 18.9001 13.6758 18.9641 13.9998C19.2601 15.4754 20.8001 17.7998 20.8001 17.7998Z" fill="#0B7D6C"/>
</svg>
