<svg width="24" height="24" viewBox="0 0 24 24" fill="none" xmlns="http://www.w3.org/2000/svg">
<path d="M22.4 13.0479V10.6479L2 14.9139V17.3139L22.4 13.0479Z" fill="#0B7D6C"/>
<path d="M19.6 16.7998C18 16.7998 18.4 16.3998 16.8 16.3998C15.2 16.3998 14.8 18.3998 13.2 18.3998C11.6 18.3998 11.6 17.9998 10 17.9998C8.4 17.9998 8 19.5998 6.4 19.5998C4.8 19.5998 4.8 19.1998 3.2 19.1998C2.6568 19.1998 2.2996 19.2926 2 19.4146V22.3998C2 22.6206 2.1792 22.7998 2.4 22.7998C2.428 22.7998 2.482 22.7914 2.482 22.7914L22.0816 18.6998C22.2672 18.6614 22.4 18.4978 22.4 18.3082V14.9902C21.4044 15.4898 20.8952 16.7998 19.6 16.7998Z" fill="#0B7D6C"/>
<path d="M6.4001 18.8002C6.84193 18.8002 7.2001 18.442 7.2001 18.0002C7.2001 17.5584 6.84193 17.2002 6.4001 17.2002C5.95827 17.2002 5.6001 17.5584 5.6001 18.0002C5.6001 18.442 5.95827 18.8002 6.4001 18.8002Z" fill="#0B7D6C"/>
<path d="M13.1999 17.6C13.6417 17.6 13.9999 17.2418 13.9999 16.8C13.9999 16.3582 13.6417 16 13.1999 16C12.7581 16 12.3999 16.3582 12.3999 16.8C12.3999 17.2418 12.7581 17.6 13.1999 17.6Z" fill="#0B7D6C"/>
<path d="M19.6 15.9999C20.0419 15.9999 20.4 15.6417 20.4 15.1999C20.4 14.7581 20.0419 14.3999 19.6 14.3999C19.1582 14.3999 18.8 14.7581 18.8 15.1999C18.8 15.6417 19.1582 15.9999 19.6 15.9999Z" fill="#0B7D6C"/>
<path d="M2.6 7.5999C2.2688 7.5999 2 7.3311 2 6.9999C2 6.6687 2.2688 6.3999 2.6 6.3999H4.2C4.5312 6.3999 4.8 6.6687 4.8 6.9999C4.8 7.3311 4.5312 7.5999 4.2 7.5999H2.6Z" fill="#0B7D6C"/>
<path d="M3.6001 3.3998C3.6001 3.5654 3.6673 3.7154 3.7757 3.8242L4.9757 5.0242C5.0845 5.13261 5.2345 5.19981 5.4001 5.19981C5.7313 5.19981 6.0001 4.93141 6.0001 4.5998C6.0001 4.4342 5.9329 4.2842 5.8245 4.1754L4.6245 2.9754C4.5157 2.867 4.3657 2.7998 4.2001 2.7998C3.8689 2.7998 3.6001 3.0682 3.6001 3.3998Z" fill="#0B7D6C"/>
<path d="M21.82 9.27499L15.658 5.16699C15.8736 5.66659 16 6.14899 16 6.55659C16 9.60019 11.1828 9.60019 9.6 9.60019C9.0068 9.60019 8.4792 9.33539 8.1124 8.92419L2.1664 13.2842C2.068 13.357 2 13.4682 2 13.6002C2 13.821 2.1792 14.0002 2.4 14.0002C2.428 14.0002 2.482 13.9918 2.482 13.9918L21.6836 9.98339C21.8632 9.94379 22 9.79139 22 9.60019C22 9.46259 21.926 9.34699 21.82 9.27499Z" fill="#0B7D6C"/>
<path d="M11.3999 2.3999C9.1875 2.3999 8.3999 6.3999 8.3999 7.5999C8.3999 8.2627 8.9371 8.7999 9.5999 8.7999C11.1999 8.7999 15.1999 8.7563 15.1999 6.5563C15.1999 5.1999 13.1935 2.3999 11.3999 2.3999ZM10.3999 7.9999C9.9583 7.9999 9.5999 7.6415 9.5999 7.1999C9.5999 6.7579 9.9583 6.3999 10.3999 6.3999C10.8415 6.3999 11.1999 6.7579 11.1999 7.1999C11.1999 7.6415 10.8415 7.9999 10.3999 7.9999ZM11.1999 5.1999C10.7583 5.1999 10.3999 4.8415 10.3999 4.3999C10.3999 3.9579 10.7583 3.5999 11.1999 3.5999C11.6415 3.5999 11.9999 3.9579 11.9999 4.3999C11.9999 4.8415 11.6415 5.1999 11.1999 5.1999ZM13.1999 7.1999C12.7583 7.1999 12.3999 6.8415 12.3999 6.3999C12.3999 5.9579 12.7583 5.5999 13.1999 5.5999C13.6415 5.5999 13.9999 5.9579 13.9999 6.3999C13.9999 6.8415 13.6415 7.1999 13.1999 7.1999Z" fill="#0B7D6C"/>
<path d="M14.9584 3.93659L16.8 3.2002L15.6 2.4002L14.8 1.2002L14.106 2.9354C14.42 3.2422 14.7068 3.58139 14.9584 3.93659Z" fill="#0B7D6C"/>
</svg>
