<svg width="34" height="34" viewBox="0 0 34 34" fill="none" xmlns="http://www.w3.org/2000/svg">
<path d="M20.5366 21.4377L22.4625 24.1542C22.4625 24.1542 23.3131 24.8374 22.8461 25.718C22.379 26.5986 24.1412 26.8673 24.2664 26.0497C24.3916 25.2321 24.4783 25.3233 24.4783 25.3233C24.4783 25.3233 25.9548 25.7711 26.1618 24.8441C26.3448 24.0149 25.958 23.2868 25.2839 23.5389C24.6099 23.791 22.6342 20.98 22.6342 20.98L20.5366 21.4377Z" fill="#CEC3BC"/>
<path d="M11.1766 8.47569C7.27239 10.7061 7.62655 17.3415 13.9723 19.0646C18.4789 20.2885 20.0967 21.0464 20.2812 21.592C20.4658 22.1376 21.6695 23.4361 21.9808 23.4809C22.2922 23.5257 23.552 23.7147 23.7831 23.2122C24.0142 22.7097 24.8536 23.1509 23.284 21.4527C23.1347 21.2868 22.1895 20.0115 21.8171 17.5969C21.4448 15.1823 19.3279 3.81889 11.1766 8.47569Z" fill="#0B7D6C"/>
</svg>
