<svg width="166" height="116" viewBox="0 0 166 116" fill="none" xmlns="http://www.w3.org/2000/svg">
<path fill-rule="evenodd" clip-rule="evenodd" d="M152.688 67.0015C152.074 80.9933 147.644 95.5698 137.22 104.999C127.539 113.758 113.165 113.373 100.124 114.551C89.858 115.479 79.8639 114.517 70.1604 111.06C60.7263 107.699 53.1772 101.646 45.6028 95.1261C35.5666 86.4869 19.5912 80.1794 18.9773 67.0015C18.3678 53.9181 35.5475 47.7974 42.8914 36.9199C50.6889 25.3705 49.6313 5.11284 63.1641 1.55347C76.9048 -2.06057 85.7391 17.7383 99.2601 22.094C112.795 26.4541 129.801 17.3892 140.663 26.519C151.746 35.8349 153.32 52.5928 152.688 67.0015Z" fill="#EEF8FF"/>
<path d="M127.34 94.1113H109.609L102.481 58.918H134.468L127.34 94.1113Z" fill="#56CCF2" stroke="black" stroke-width="0.053423"/>
<path d="M68.3928 52.1569L68.061 47.7427C76.4844 48.7083 79.6174 48.4547 83.0853 46.9424C82.9974 48.2876 83.0008 49.0551 83.0853 50.4477C83.4671 52.3741 83.729 53.1054 84.2386 54.1071C85.6557 55.2123 86.4746 55.7563 87.9766 56.6109L102.69 64.3919C102.69 64.3919 103.499 64.6728 103.843 64.3919C104.136 64.1534 105.606 63.0141 105.606 63.0141L107.542 61.9266C107.542 61.9266 108.475 61.6286 108.804 61.9266C109.051 62.151 108.934 62.7355 108.934 62.7355C108.934 62.7355 106.801 64.2907 106.764 64.6874C106.727 65.0841 107.008 65.2362 107.205 65.586C107.339 65.8251 109.411 65.9712 109.411 65.9712L115.455 64.3919C115.455 64.3919 116.21 64.4954 116.33 64.8541C116.424 65.1353 116.131 65.586 116.131 65.586C116.131 65.586 111.67 67.0727 111.558 67.1653C111.31 67.37 111.558 67.9742 111.558 67.9742C111.558 67.9742 117.777 67.3758 117.722 67.9742C117.685 68.3776 117.612 68.6049 117.444 68.9757C117.275 69.3465 111.381 69.5718 111.836 70.1698C112.79 71.4218 115.734 71.441 115.734 71.441C115.734 71.441 116.43 71.8219 116.33 72.1729C116.253 72.4426 115.734 72.5966 115.734 72.5966C115.734 72.5966 110.852 71.9831 110.524 72.1729C110.271 72.3194 110.198 72.5966 110.286 72.8662C110.365 73.1119 112.831 74.0603 112.831 74.0603C112.831 74.0603 113.903 74.5341 113.705 74.9848C113.559 75.3193 112.831 75.37 112.831 75.37L107.263 74.0603L99.31 70.8247L94.9755 69.3224C94.96 69.247 89.564 67.721 86.2024 66.6968C83.8066 65.9668 81.3297 64.9734 80.1399 64.4896C78.153 63.6817 75.4723 62.1973 75.4939 62.1639C75.4939 62.1639 72.0336 60.0752 70.9288 58.8847C70.3305 58.24 70.157 57.9072 69.7644 57.1283C68.8541 55.3225 68.3928 52.1569 68.3928 52.1569Z" fill="#DA9770" stroke="#DA9770" stroke-width="0.053423"/>
<path d="M93.1227 54.6088L91.1078 47.2046C90.4939 47.1744 90.1967 47.1902 89.5933 47.0532C90.2884 48.0693 90.5856 48.6943 91.0304 49.8603C91.3398 51.4375 91.5521 52.3495 91.6149 53.9299C91.5915 55.5698 91.5835 56.5196 91.32 58.1515L102.471 64.1673C102.721 64.3538 103.089 64.4251 103.346 64.3697L102.434 60.9228C98.7035 59.2079 96.7568 57.6876 93.1227 54.6088Z" fill="#DA9770" stroke="#DA9770" stroke-width="0.053423"/>
<path d="M58.5351 49.0973C54.0775 47.2749 51.853 46.0588 47.7451 43.5341C49.2096 42.2995 49.9231 41.4776 50.9564 39.7163C53.0641 41.3041 54.3133 42.0639 56.6231 43.2613C59.5089 44.8351 61.1135 45.4975 63.9661 46.509C61.8783 47.6676 60.6851 48.2357 58.5351 49.0973Z" fill="#DA9770" stroke="#DA9770" stroke-width="0.053423"/>
<path d="M66.975 85.0428C67.7799 84.1763 67.9709 83.1736 67.7824 80.3145L67.8154 80.3206C71.1987 80.9483 73.1059 81.3021 76.5174 81.8076C76.8615 82.5508 77.1081 82.9308 77.5817 83.5852C78.6804 84.4339 79.3268 84.7941 80.5179 85.2916C81.1639 85.7515 92.0218 88.4912 91.6862 90.2557C90.9226 91.5574 78.0728 91.5505 76.7376 91.5131C72.3773 91.3909 69.471 90.9247 66.975 89.9844C66.0287 88.1113 65.8888 87.0377 66.975 85.0428Z" fill="#DA9770" stroke="#DA9770" stroke-width="0.053423"/>
<path d="M55.2817 81.9469C55.1491 79.4381 54.3921 77.525 52.7911 73.7371C52.589 72.8367 52.6652 72.4922 52.7912 71.792C53.0158 71.0582 53.1641 70.6717 53.615 70.2808C54.7374 70.6132 55.3614 70.8542 56.4874 71.0164C57.9281 71.2544 58.7139 71.2623 60.0848 71.0919L61.7426 76.415C60.7437 77.0863 60.5432 77.8755 60.4835 79.3482C61.5817 83.1764 64.6873 87.0536 63.8664 87.6592C62.0014 88.4973 56.1044 84.5666 55.2817 81.9469Z" fill="#DA9770" stroke="#DA9770" stroke-width="0.053423"/>
<path d="M43.2302 65.9103C44.5164 65.8769 45.0905 65.8244 46.9763 66.5999C46.9763 66.5999 45.5252 64.1133 44.8162 62.4254C43.9886 60.4548 43.541 59.3307 43.2302 57.2247C42.8182 54.4342 43.4143 50.0088 43.4143 50.0088L36.4067 62.7326C34.464 66.1295 33.2467 67.5013 30.808 68.9608C30.6628 69.3997 39.1179 67.873 39.1186 67.7321C39.1193 67.5912 41.9439 65.9436 43.2302 65.9103Z" fill="#F8E542" stroke="#F8E542" stroke-width="0.053423"/>
<path d="M89.0957 34.5247C87.6517 39.4709 86.4708 43.4707 85.6326 44.2117C84.8762 44.0482 84.4568 43.9766 83.7132 43.8816L83.6399 40.9799L83.471 38.099C83.4515 36.2314 83.1566 35.1463 82.4775 33.2429C83.1456 32.783 83.4219 32.4113 83.8189 31.6357C84.2655 31.7785 86.0866 32.9468 89.0957 34.5247Z" fill="#F8E542" stroke="#F8E542" stroke-width="0.053423"/>
<path d="M67.5493 46.7847C65.3538 47.1378 64.1923 47.4097 62.2349 48.017C64.4238 46.8081 65.6139 45.9199 67.6865 44.0532L67.5493 46.7847Z" fill="#F8E542" stroke="#F8E542" stroke-width="0.053423"/>
<path d="M121.369 59.0322C122.154 58.1028 122.313 57.4946 122.783 56.4169C123.255 55.3381 123.612 54.2217 123.848 53.0829C124.082 51.9449 124.218 50.7926 124.256 49.636C124.282 48.4837 124.231 47.3112 124.271 46.1454C124.315 44.9791 124.391 43.8128 124.541 42.6523C124.672 41.4896 124.882 40.335 125.169 39.1949C125.451 38.0526 125.84 36.9338 126.335 35.8508C126.821 34.7633 127.528 33.7656 128.42 32.9082C127.583 33.7978 126.929 34.8131 126.489 35.9069C126.03 36.9905 125.674 38.1069 125.425 39.2441C124.926 41.5214 124.653 43.8336 124.611 46.1538C124.561 47.3147 124.601 48.47 124.565 49.6448C124.523 50.8156 124.369 51.9811 124.103 53.1283C123.835 54.274 123.444 55.3941 122.937 56.4733C122.679 57.0102 122.386 57.5329 122.059 58.0388C121.883 58.3977 121.651 58.7322 121.369 59.0322Z" fill="#38B42E" fill-opacity="0.78"/>
<path d="M122.098 57.8111C121.698 57.5996 121.326 57.3482 120.989 57.0616C120.823 56.918 120.662 56.7684 120.503 56.6143C120.358 56.4537 120.211 56.2912 120.075 56.1204C119.938 55.9506 119.768 55.7882 119.614 55.6153C119.466 55.4438 119.386 55.2335 119.385 55.017C119.382 54.7834 119.433 54.5519 119.534 54.3365C119.658 54.0694 119.849 53.8313 120.091 53.6405L120.317 53.6118C120.597 53.7221 120.862 53.8623 121.105 54.0296C121.279 54.1494 121.435 54.2895 121.568 54.4462C121.683 54.5843 121.74 54.7538 121.73 54.9254C121.715 55.1072 121.72 55.2898 121.743 55.4708C121.771 55.6482 121.812 55.824 121.852 56.0027C121.887 56.1843 121.926 56.3675 121.972 56.5505C122.053 56.9223 122.163 57.2956 122.273 57.6818L122.098 57.8111Z" fill="#38B42E" fill-opacity="0.78"/>
<path d="M123.191 54.8912C122.791 54.6797 122.419 54.4283 122.082 54.1417C121.916 53.9981 121.756 53.8484 121.596 53.6944C121.451 53.5337 121.304 53.3712 121.168 53.2004C121.032 53.0306 120.861 52.8682 120.707 52.6953C120.559 52.5238 120.479 52.3136 120.478 52.0971C120.475 51.8635 120.526 51.6319 120.627 51.4165C120.751 51.1495 120.942 50.9114 121.185 50.7205L121.41 50.6919C121.69 50.8021 121.955 50.9424 122.198 51.1097C122.372 51.2294 122.528 51.3695 122.662 51.5262C122.776 51.6644 122.833 51.8338 122.823 52.0055C122.808 52.1872 122.813 52.3698 122.837 52.5508C122.864 52.7283 122.905 52.9041 122.946 53.0828C122.98 53.2644 123.019 53.4476 123.066 53.6305C123.147 54.0024 123.256 54.3757 123.367 54.7618L123.191 54.8912Z" fill="#38B42E" fill-opacity="0.78"/>
<path d="M124.257 51.7535C123.856 51.542 123.484 51.2906 123.148 51.004C122.982 50.8604 122.821 50.7107 122.662 50.5567C122.517 50.3961 122.37 50.2335 122.233 50.0627C122.097 49.8929 121.927 49.7306 121.773 49.5576C121.625 49.3861 121.544 49.1759 121.544 48.9594C121.541 48.7258 121.592 48.4942 121.693 48.2788C121.817 48.0118 122.007 47.7737 122.25 47.5829L122.475 47.5542C122.756 47.6644 123.02 47.8047 123.263 47.972C123.438 48.0917 123.594 48.2319 123.727 48.3886C123.841 48.5267 123.898 48.6962 123.888 48.8678C123.874 49.0496 123.878 49.2322 123.902 49.4131C123.93 49.5906 123.971 49.7664 124.011 49.9451C124.046 50.1267 124.084 50.3099 124.131 50.4929C124.212 50.8647 124.321 51.238 124.432 51.6242L124.257 51.7535Z" fill="#38B42E" fill-opacity="0.78"/>
<path d="M124.466 47.6251C124.065 47.4136 123.693 47.1622 123.357 46.8756C123.191 46.732 123.03 46.5823 122.871 46.4283C122.726 46.2677 122.579 46.1052 122.443 45.9343C122.306 45.7645 122.136 45.6022 121.982 45.4292C121.834 45.2577 121.753 45.0475 121.753 44.831C121.75 44.5974 121.801 44.3658 121.902 44.1504C122.026 43.8834 122.216 43.6453 122.459 43.4544L122.684 43.4258C122.965 43.536 123.23 43.6763 123.472 43.8435C123.647 43.9633 123.803 44.1034 123.936 44.2602C124.05 44.3983 124.107 44.5677 124.097 44.7394C124.083 44.9212 124.087 45.1037 124.111 45.2847C124.139 45.4622 124.18 45.638 124.22 45.8167C124.255 45.9983 124.293 46.1815 124.34 46.3644C124.421 46.7363 124.53 47.1096 124.641 47.4958L124.466 47.6251Z" fill="#38B42E" fill-opacity="0.78"/>
<path d="M124.663 43.4077C124.263 43.1963 123.891 42.9449 123.554 42.6583C123.388 42.5147 123.227 42.365 123.068 42.211C122.923 42.0504 122.776 41.8878 122.64 41.717C122.503 41.5472 122.333 41.3848 122.179 41.2119C122.031 41.0404 121.951 40.8302 121.95 40.6137C121.947 40.3801 121.998 40.1485 122.099 39.9331C122.223 39.6661 122.413 39.428 122.656 39.2371L122.882 39.2085C123.162 39.3187 123.427 39.459 123.67 39.6263C123.844 39.746 124 39.8861 124.133 40.0428C124.248 40.181 124.305 40.3504 124.295 40.5221C124.28 40.7039 124.285 40.8864 124.308 41.0674C124.336 41.2449 124.377 41.4207 124.417 41.5994C124.452 41.781 124.491 41.9642 124.537 42.1471C124.618 42.519 124.728 42.8923 124.838 43.2785L124.663 43.4077Z" fill="#38B42E" fill-opacity="0.78"/>
<path d="M125.414 39.4688C125.014 39.2574 124.642 39.0059 124.305 38.7193C124.14 38.5757 123.979 38.4261 123.819 38.2721C123.675 38.1114 123.527 37.9489 123.391 37.7781C123.255 37.6083 123.085 37.4459 122.93 37.273C122.783 37.1015 122.702 36.8912 122.701 36.6747C122.699 36.4411 122.749 36.2096 122.85 35.9942C122.974 35.7271 123.165 35.489 123.408 35.2982L123.633 35.2695C123.914 35.3798 124.178 35.52 124.421 35.6873C124.596 35.8071 124.752 35.9472 124.885 36.1039C124.999 36.242 125.056 36.4115 125.046 36.5832C125.031 36.7649 125.036 36.9475 125.06 37.1285C125.087 37.3059 125.128 37.4817 125.169 37.6605C125.203 37.842 125.242 38.0252 125.289 38.2082C125.37 38.58 125.479 38.9533 125.59 39.3395L125.414 39.4688Z" fill="#38B42E" fill-opacity="0.78"/>
<path d="M126.427 35.9155C126.027 35.7041 125.655 35.4527 125.319 35.1661C125.153 35.0225 124.992 34.8729 124.833 34.7188C124.688 34.5582 124.541 34.3956 124.404 34.2248C124.268 34.055 124.098 33.8927 123.944 33.7198C123.796 33.5483 123.715 33.338 123.714 33.1215C123.712 32.8879 123.763 32.6564 123.864 32.441C123.987 32.1739 124.178 31.9358 124.421 31.745L124.646 31.7163C124.927 31.8265 125.191 31.9668 125.434 32.1341C125.609 32.2539 125.765 32.394 125.898 32.5507C126.012 32.6888 126.069 32.8583 126.059 33.0299C126.045 33.2117 126.049 33.3943 126.073 33.5753C126.101 33.7527 126.141 33.9285 126.182 34.1072C126.217 34.2888 126.255 34.472 126.302 34.6549C126.383 35.0268 126.492 35.4001 126.603 35.7863L126.427 35.9155Z" fill="#38B42E" fill-opacity="0.78"/>
<path d="M121.958 57.4639C122.324 57.2353 122.679 57.0156 123.011 56.7805C123.18 56.6688 123.343 56.5522 123.501 56.4345C123.662 56.3224 123.821 56.2128 123.971 56.0942C124.121 55.9706 124.258 55.8346 124.379 55.6881C124.496 55.5519 124.663 55.4565 124.851 55.4183C125.066 55.3768 125.286 55.3612 125.506 55.3719C125.812 55.3862 126.115 55.4337 126.408 55.5134L126.559 55.6661C126.604 55.9524 126.575 56.244 126.475 56.5188C126.394 56.7411 126.264 56.9464 126.092 57.1221C125.934 57.2861 125.719 57.3988 125.482 57.4429C125.239 57.4845 124.992 57.5087 124.765 57.5581C124.537 57.6086 124.307 57.6463 124.08 57.6838C123.847 57.7081 123.616 57.7281 123.385 57.7406C122.921 57.7622 122.455 57.7366 121.998 57.6642L121.958 57.4639Z" fill="#38B42E" fill-opacity="0.78"/>
<path d="M123.434 54.7262C123.698 54.4053 123.956 54.0959 124.187 53.7783C124.307 53.6244 124.42 53.4675 124.528 53.3107C124.641 53.1586 124.752 53.0094 124.853 52.8541C124.95 52.6942 125.031 52.5265 125.094 52.3531C125.157 52.1906 125.281 52.0526 125.445 51.9629C125.634 51.8622 125.837 51.7846 126.049 51.7321C126.344 51.6584 126.649 51.617 126.955 51.6089L127.152 51.7109C127.297 51.9693 127.374 52.2539 127.377 52.5429C127.38 52.7765 127.33 53.0082 127.229 53.2238C127.138 53.4243 126.975 53.5922 126.766 53.7016C126.551 53.8103 126.325 53.9038 126.127 54.0154C125.929 54.1282 125.724 54.2295 125.523 54.3299C125.31 54.4193 125.099 54.5041 124.885 54.5817C124.452 54.7345 124.002 54.843 123.542 54.9049L123.434 54.7262Z" fill="#38B42E" fill-opacity="0.78"/>
<path d="M124.066 51.6113C124.277 51.2603 124.484 50.9215 124.663 50.5779C124.757 50.4104 124.844 50.2409 124.927 50.0721C125.014 49.9074 125.101 49.7455 125.175 49.5792C125.247 49.4086 125.301 49.2323 125.335 49.0528C125.372 48.884 125.473 48.7318 125.621 48.6223C125.793 48.4988 125.982 48.3963 126.183 48.3176C126.464 48.2075 126.759 48.1282 127.061 48.0815L127.271 48.1578C127.456 48.3952 127.577 48.6673 127.625 48.9531C127.665 49.184 127.652 49.4197 127.587 49.6458C127.528 49.8558 127.393 50.0426 127.203 50.1772C127.007 50.3119 126.798 50.4329 126.62 50.5684C126.442 50.705 126.255 50.831 126.072 50.9558C125.875 51.0711 125.679 51.1818 125.48 51.2855C125.076 51.4913 124.647 51.6554 124.201 51.7745L124.066 51.6113Z" fill="#38B42E" fill-opacity="0.78"/>
<path d="M124.458 47.2685C124.67 46.9175 124.877 46.5787 125.055 46.2351C125.15 46.0676 125.237 45.8981 125.319 45.7293C125.406 45.5645 125.494 45.4027 125.568 45.2364C125.64 45.0658 125.693 44.8896 125.728 44.71C125.764 44.5412 125.865 44.389 126.014 44.2795C126.185 44.156 126.374 44.0535 126.576 43.9748C126.857 43.8647 127.151 43.7854 127.453 43.7388L127.664 43.815C127.848 44.0524 127.969 44.3245 128.018 44.6103C128.058 44.8412 128.045 45.0769 127.979 45.303C127.92 45.513 127.786 45.6998 127.596 45.8344C127.4 45.9691 127.191 46.0902 127.013 46.2256C126.835 46.3622 126.648 46.4882 126.464 46.613C126.268 46.7283 126.072 46.839 125.872 46.9427C125.468 47.1485 125.039 47.3126 124.594 47.4318L124.458 47.2685Z" fill="#38B42E" fill-opacity="0.78"/>
<path d="M124.734 43.1084C124.945 42.7573 125.152 42.4185 125.331 42.075C125.425 41.9075 125.512 41.738 125.595 41.5692C125.682 41.4044 125.769 41.2426 125.843 41.0762C125.915 40.9057 125.969 40.7294 126.003 40.5498C126.04 40.381 126.141 40.2288 126.289 40.1194C126.461 39.9959 126.65 39.8934 126.851 39.8147C127.132 39.7045 127.427 39.6253 127.729 39.5786L127.939 39.6548C128.124 39.8923 128.245 40.1644 128.293 40.4502C128.333 40.681 128.32 40.9167 128.255 41.1429C128.196 41.3529 128.061 41.5396 127.871 41.6743C127.675 41.809 127.466 41.93 127.288 42.0655C127.11 42.202 126.923 42.3281 126.74 42.4529C126.543 42.5681 126.347 42.6788 126.147 42.7825C125.744 42.9883 125.315 43.1524 124.869 43.2716L124.734 43.1084Z" fill="#38B42E" fill-opacity="0.78"/>
<path d="M125.209 39.1695C125.524 38.8873 125.831 38.6156 126.112 38.3323C126.256 38.196 126.394 38.0558 126.527 37.9151C126.663 37.7796 126.798 37.6469 126.923 37.5066C127.047 37.3615 127.154 37.2064 127.245 37.0432C127.334 36.8908 127.48 36.7709 127.657 36.704C127.861 36.6295 128.075 36.5797 128.293 36.5559C128.597 36.5223 128.905 36.5217 129.209 36.5543L129.387 36.6814C129.488 36.9561 129.516 37.2478 129.471 37.534C129.435 37.7654 129.347 37.9879 129.212 38.1878C129.088 38.3739 128.899 38.5183 128.675 38.5987C128.443 38.6776 128.205 38.7401 127.99 38.8242C127.776 38.9095 127.557 38.9825 127.341 39.055C127.116 39.1152 126.892 39.171 126.668 39.2192C126.215 39.313 125.751 39.3605 125.287 39.3606L125.209 39.1695Z" fill="#38B42E" fill-opacity="0.78"/>
<path d="M126.221 35.7715C126.432 35.4204 126.639 35.0816 126.818 34.7381C126.912 34.5706 126.999 34.401 127.081 34.2322C127.169 34.0675 127.256 33.9056 127.33 33.7393C127.402 33.5687 127.456 33.3925 127.49 33.2129C127.527 33.0441 127.628 32.8919 127.776 32.7825C127.947 32.6589 128.136 32.5565 128.338 32.4778C128.619 32.3676 128.913 32.2883 129.215 32.2417L129.426 32.3179C129.611 32.5554 129.732 32.8275 129.78 33.1133C129.82 33.3441 129.807 33.5798 129.742 33.8059C129.683 34.0159 129.548 34.2027 129.358 34.3373C129.162 34.4721 128.953 34.5931 128.775 34.7285C128.597 34.8651 128.41 34.9912 128.226 35.1159C128.03 35.2312 127.834 35.3419 127.634 35.4456C127.23 35.6514 126.802 35.8155 126.356 35.9347L126.221 35.7715Z" fill="#38B42E" fill-opacity="0.78"/>
<path d="M134.309 51.0898C133.422 51.8381 132.685 52.7163 132.129 53.6866C132.1 53.7302 132.074 53.7767 132.048 53.8231C132.038 53.837 132.029 53.8516 132.022 53.8667C132.018 53.8696 132.018 53.8725 132.015 53.8754C131.478 54.8026 131.024 55.766 130.657 56.7569V56.7598C130.649 56.7806 130.641 56.8009 130.631 56.8208V56.8266C130.598 56.9137 130.569 56.998 130.536 57.0851C130.523 57.1228 130.51 57.1606 130.497 57.1984C130.484 57.2274 130.475 57.2576 130.468 57.2884C130.293 57.7822 130.13 58.2818 129.981 58.7814H129.675C129.841 58.2266 130.03 57.6718 130.244 57.1287C130.26 57.0909 130.273 57.0502 130.29 57.0125C130.377 56.7888 130.468 56.5681 130.566 56.3473V56.3444C130.923 55.4829 131.351 54.646 131.846 53.8406C131.853 53.8319 131.856 53.8261 131.862 53.8174C131.866 53.8145 131.866 53.8087 131.869 53.8057C131.94 53.6925 132.015 53.5821 132.096 53.4688V53.4659C132.674 52.5652 133.423 51.7612 134.309 51.0898Z" fill="#38B42E" fill-opacity="0.78"/>
<path d="M130.499 57.3074C130.128 57.0572 129.79 56.77 129.492 56.4515C129.345 56.2922 129.204 56.1273 129.065 55.9583C128.941 55.7842 128.815 55.6079 128.701 55.4245C128.587 55.2421 128.438 55.0637 128.307 54.8764C128.181 54.6912 128.128 54.4742 128.154 54.259C128.181 54.0266 128.26 53.8016 128.388 53.5977C128.544 53.3447 128.764 53.1273 129.029 52.9619L129.256 52.9561C129.521 53.0937 129.767 53.2596 129.987 53.4502C130.145 53.5867 130.283 53.7415 130.395 53.9106C130.492 54.0593 130.527 54.2334 130.496 54.403C130.458 54.5822 130.44 54.7641 130.441 54.9463C130.446 55.1254 130.465 55.3042 130.482 55.4858C130.494 55.6697 130.509 55.8557 130.533 56.0421C130.567 56.4198 130.628 56.8017 130.69 57.1965L130.499 57.3074Z" fill="#38B42E" fill-opacity="0.78"/>
<path d="M131.951 53.8792C131.58 53.6289 131.242 53.3418 130.943 53.0232C130.796 52.864 130.655 52.6991 130.516 52.5301C130.393 52.356 130.267 52.1797 130.153 51.9963C130.038 51.8139 129.89 51.6355 129.758 51.4482C129.633 51.263 129.579 51.046 129.606 50.8307C129.632 50.5984 129.712 50.3734 129.839 50.1694C129.996 49.9165 130.215 49.699 130.481 49.5337L130.708 49.5278C130.973 49.6655 131.218 49.8314 131.438 50.022C131.597 50.1585 131.734 50.3133 131.847 50.4824C131.943 50.6312 131.979 50.8053 131.947 50.9748C131.91 51.154 131.891 51.3358 131.892 51.5181C131.898 51.6972 131.916 51.876 131.934 52.0576C131.945 52.2415 131.961 52.4274 131.984 52.6139C132.018 52.9915 132.08 53.3734 132.142 53.7683L131.951 53.8792Z" fill="#38B42E" fill-opacity="0.78"/>
<path d="M130.331 56.9898C130.68 56.741 131.018 56.5017 131.333 56.2483C131.494 56.1274 131.648 56.0018 131.798 55.8755C131.951 55.7545 132.102 55.6361 132.243 55.5092C132.384 55.3775 132.511 55.2341 132.621 55.081C132.729 54.9385 132.889 54.8339 133.073 54.7852C133.285 54.7316 133.504 54.7036 133.724 54.7019C134.03 54.6989 134.336 54.7292 134.634 54.7921L134.795 54.9362C134.86 55.2192 134.852 55.512 134.771 55.7918C134.707 56.0182 134.592 56.2304 134.432 56.4155C134.286 56.588 134.08 56.7126 133.846 56.77C133.607 56.8252 133.362 56.8634 133.138 56.9255C132.915 56.9887 132.688 57.0393 132.464 57.0896C132.233 57.127 132.004 57.16 131.774 57.1854C131.313 57.2332 130.846 57.2339 130.384 57.1875L130.331 56.9898Z" fill="#38B42E" fill-opacity="0.78"/>
<path d="M131.764 53.7146C132.018 53.387 132.266 53.071 132.486 52.7476C132.601 52.5906 132.709 52.4308 132.812 52.2714C132.919 52.1164 133.026 51.9643 133.121 51.8065C133.214 51.6442 133.289 51.4744 133.346 51.2995C133.404 51.1354 133.523 50.9943 133.684 50.9004C133.87 50.7948 134.071 50.712 134.281 50.654C134.574 50.5726 134.876 50.5234 135.182 50.5073L135.382 50.6042C135.536 50.8587 135.622 51.1412 135.634 51.43C135.645 51.6634 135.602 51.8963 135.509 52.1145C135.424 52.3172 135.267 52.4893 135.061 52.6041C134.849 52.7183 134.627 52.8176 134.433 52.9343C134.239 53.0522 134.037 53.1588 133.839 53.2643C133.63 53.3592 133.421 53.4495 133.209 53.5325C132.782 53.6966 132.335 53.8166 131.878 53.8904L131.764 53.7146Z" fill="#38B42E" fill-opacity="0.78"/>
<path d="M116.533 58.915C116.546 58.9528 116.559 58.9905 116.575 59.0283L116.361 58.8685C116.28 58.854 116.213 58.7918 116.135 58.7744C115.972 58.3415 115.935 58.2266 115.792 57.7909C115.786 57.7734 115.782 57.756 115.776 57.7386C115.487 56.844 115.217 55.9435 114.989 55.0344C114.934 54.8223 114.882 54.6074 114.833 54.3954C114.811 54.2908 114.785 54.1891 114.762 54.0845V54.0816C114.527 53.083 114.353 52.0736 114.242 51.0579C114.235 51.0172 114.232 50.9766 114.229 50.9359C114.206 50.6977 114.183 50.4595 114.167 50.2213V50.2184C114.097 49.3045 114.098 48.3873 114.17 47.4735C114.17 47.4647 114.171 47.4559 114.174 47.4474V47.4328C114.187 47.2992 114.203 47.1714 114.222 47.0378V47.0349C114.331 46.0029 114.639 44.9956 115.132 44.0576C114.675 45.0662 114.413 46.1367 114.356 47.2237C114.349 47.2789 114.346 47.3312 114.343 47.3864V47.3893C114.343 47.4038 114.339 47.4183 114.339 47.4328V47.4445C114.284 48.4843 114.321 49.5265 114.45 50.5612C114.45 50.5895 114.453 50.6177 114.46 50.6454C114.466 50.7354 114.479 50.8226 114.489 50.9127C114.495 50.9504 114.499 50.9882 114.505 51.0259C114.508 51.0571 114.512 51.0881 114.518 51.1189C114.68 52.2964 114.91 53.4657 115.207 54.6219V54.6277C115.22 54.6858 115.233 54.7352 115.253 54.7933C115.253 54.8054 115.256 54.8174 115.262 54.8281C115.27 54.8742 115.281 54.9198 115.295 54.9647C115.535 55.8854 115.812 56.7975 116.117 57.7037C116.211 57.9942 116.309 58.2788 116.41 58.5664V58.5693C116.436 58.6478 116.465 58.7204 116.491 58.7988V58.8017C116.504 58.8395 116.52 58.8772 116.533 58.915Z" fill="#38B42E" fill-opacity="0.78"/>
<path d="M116.614 58.9734L116.666 58.7642L116.361 58.9245C116.28 58.91 116.159 58.8165 116.081 58.799C115.707 58.7119 115.528 58.8833 115.177 58.741C114.969 58.6509 114.765 58.5522 114.56 58.4505C114.365 58.3372 114.17 58.2239 113.982 58.099C113.793 57.977 113.572 57.8696 113.367 57.7475C113.167 57.6256 113.017 57.4479 112.942 57.2421C112.858 57.0208 112.826 56.7865 112.847 56.5537C112.87 56.2654 112.968 55.9858 113.133 55.7375L113.338 55.6475C113.643 55.6752 113.943 55.7347 114.232 55.8246C114.439 55.8911 114.635 55.9809 114.817 56.0918C114.974 56.192 115.088 56.3378 115.138 56.5044C115.187 56.6811 115.254 56.8533 115.34 57.0185C115.428 57.1782 115.528 57.3351 115.629 57.4948C115.678 57.5762 115.723 57.6575 115.775 57.7388C115.827 57.8202 115.879 57.9015 115.935 57.9799C116.074 58.2065 116.23 58.4301 116.39 58.6596C116.422 58.706 116.455 58.7526 116.49 58.799V58.8019C116.516 58.8368 116.542 58.8716 116.568 58.9094C116.585 58.9297 116.598 58.953 116.614 58.9734Z" fill="#38B42E" fill-opacity="0.78"/>
<path d="M115.212 55.0801C114.758 54.9903 114.317 54.8546 113.898 54.6757C113.69 54.5853 113.485 54.4877 113.28 54.3856C113.087 54.2731 112.89 54.1595 112.702 54.035C112.513 53.9115 112.295 53.8044 112.088 53.6829C111.888 53.561 111.738 53.3835 111.662 53.1779C111.578 52.9566 111.546 52.7224 111.567 52.4896C111.592 52.2014 111.691 51.9221 111.855 51.6733L112.059 51.5835C112.364 51.6103 112.665 51.6702 112.953 51.7617C113.161 51.8271 113.358 51.9169 113.539 52.0289C113.696 52.1284 113.809 52.2736 113.859 52.4396C113.908 52.6164 113.976 52.7887 114.062 52.9541C114.15 53.1152 114.25 53.2709 114.35 53.4295C114.446 53.5925 114.547 53.7559 114.655 53.9168C114.861 54.2477 115.095 54.5722 115.334 54.9084L115.212 55.0801Z" fill="#38B42E" fill-opacity="0.78"/>
<path d="M114.557 51.1265C114.104 51.0367 113.663 50.901 113.243 50.7221C113.035 50.6317 112.831 50.5341 112.626 50.4319C112.432 50.3195 112.235 50.2059 112.047 50.0814C111.858 49.9579 111.64 49.8508 111.433 49.7293C111.233 49.6074 111.083 49.4299 111.007 49.2243C110.924 49.003 110.891 48.7688 110.913 48.536C110.937 48.2478 111.036 47.9685 111.2 47.7197L111.404 47.6299C111.709 47.6567 112.01 47.7165 112.299 47.8081C112.506 47.8734 112.703 47.9633 112.884 48.0753C113.041 48.1748 113.154 48.32 113.204 48.486C113.254 48.6628 113.321 48.8351 113.407 49.0005C113.495 49.1615 113.595 49.3173 113.695 49.4759C113.791 49.6389 113.892 49.8023 114 49.9632C114.206 50.2941 114.44 50.6185 114.679 50.9548L114.557 51.1265Z" fill="#38B42E" fill-opacity="0.78"/>
<path d="M114.285 47.4693C113.831 47.3795 113.39 47.2438 112.97 47.0649C112.763 46.9745 112.558 46.8769 112.353 46.7747C112.159 46.6623 111.963 46.5487 111.774 46.4241C111.585 46.3007 111.367 46.1936 111.16 46.072C110.96 45.9501 110.81 45.7727 110.734 45.5671C110.651 45.3458 110.618 45.1116 110.64 44.8788C110.664 44.5906 110.763 44.3113 110.927 44.0624L111.132 43.9727C111.437 43.9995 111.737 44.0593 112.026 44.1509C112.233 44.2162 112.43 44.3061 112.611 44.4181C112.768 44.5176 112.881 44.6628 112.931 44.8287C112.981 45.0056 113.048 45.1779 113.134 45.3433C113.222 45.5043 113.322 45.66 113.422 45.8187C113.518 45.9816 113.619 46.1451 113.727 46.3059C113.933 46.6369 114.167 46.9613 114.407 47.2976L114.285 47.4693Z" fill="#38B42E" fill-opacity="0.78"/>
<path d="M116.361 58.8064C116.44 58.414 116.518 58.0346 116.569 57.6585C116.601 57.473 116.624 57.2877 116.644 57.1044C116.669 56.9235 116.696 56.7455 116.709 56.5667C116.718 56.3847 116.707 56.2023 116.678 56.022C116.654 55.8514 116.697 55.6787 116.8 55.5334C116.92 55.3685 117.064 55.2186 117.228 55.0877C117.457 54.905 117.709 54.7479 117.98 54.6196L118.207 54.6335C118.465 54.808 118.674 55.033 118.82 55.2913C118.938 55.4995 119.008 55.7272 119.024 55.9603C119.041 56.1763 118.978 56.3912 118.844 56.5719C118.705 56.7544 118.548 56.9274 118.426 57.1057C118.304 57.285 118.171 57.4566 118.039 57.6263C117.893 57.7903 117.745 57.9501 117.591 58.1041C117.279 58.4119 116.928 58.6869 116.546 58.9239L116.361 58.8064Z" fill="#38B42E" fill-opacity="0.78"/>
<path d="M115.176 54.7752C115.255 54.3828 115.333 54.0034 115.384 53.6272C115.415 53.4417 115.439 53.2564 115.459 53.0731C115.484 52.8923 115.511 52.7143 115.524 52.5355C115.533 52.3534 115.522 52.171 115.493 51.9907C115.469 51.8202 115.512 51.6474 115.615 51.5022C115.735 51.3372 115.879 51.1873 116.043 51.0565C116.272 50.8738 116.524 50.7166 116.795 50.5884L117.022 50.6023C117.28 50.7768 117.489 51.0018 117.635 51.26C117.753 51.4683 117.823 51.6959 117.839 51.929C117.856 52.145 117.793 52.36 117.659 52.5406C117.52 52.7232 117.363 52.8962 117.241 53.0744C117.119 53.2537 116.986 53.4254 116.854 53.5951C116.708 53.7591 116.56 53.9188 116.406 54.0729C116.094 54.3807 115.743 54.6557 115.361 54.8927L115.176 54.7752Z" fill="#38B42E" fill-opacity="0.78"/>
<path d="M114.258 50.8996C114.459 50.5438 114.656 50.2004 114.825 49.8529C114.915 49.6834 114.997 49.5119 115.074 49.3413C115.157 49.1746 115.239 49.0108 115.309 48.8428C115.376 48.6707 115.425 48.4933 115.454 48.313C115.486 48.1434 115.582 47.9889 115.727 47.8761C115.895 47.7488 116.081 47.642 116.281 47.5587C116.558 47.4422 116.85 47.3563 117.151 47.3027L117.364 47.3741C117.555 47.6073 117.684 47.8766 117.74 48.1612C117.787 48.391 117.781 48.6269 117.722 48.8545C117.669 49.0658 117.539 49.2556 117.353 49.3945C117.161 49.5336 116.956 49.6594 116.781 49.7989C116.608 49.9394 116.424 50.0697 116.244 50.1986C116.051 50.3183 115.858 50.4334 115.662 50.5416C115.264 50.7566 114.84 50.9304 114.398 51.0597L114.258 50.8996Z" fill="#38B42E" fill-opacity="0.78"/>
<path d="M114.039 47.3894C114.118 46.997 114.197 46.6176 114.247 46.2414C114.279 46.056 114.302 45.8707 114.322 45.6873C114.348 45.5065 114.374 45.3285 114.387 45.1497C114.396 44.9677 114.386 44.7852 114.356 44.6049C114.332 44.4344 114.375 44.2617 114.478 44.1164C114.598 43.9515 114.742 43.8016 114.906 43.6707C115.135 43.4881 115.387 43.3309 115.658 43.2026L115.885 43.2165C116.143 43.391 116.353 43.616 116.498 43.8743C116.616 44.0825 116.686 44.3102 116.702 44.5433C116.719 44.7593 116.656 44.9742 116.523 45.1549C116.383 45.3374 116.227 45.5104 116.104 45.6887C115.983 45.8679 115.849 46.0397 115.718 46.2093C115.571 46.3733 115.423 46.5331 115.269 46.6871C114.957 46.9949 114.607 47.2699 114.225 47.5069L114.039 47.3894Z" fill="#38B42E" fill-opacity="0.78"/>
<path d="M107.69 58.7255C107.696 58.7455 107.702 58.7659 107.706 58.7865V58.7894C107.657 58.8214 107.608 58.8533 107.559 58.8824L107.455 58.8185C107.441 58.8159 107.427 58.812 107.413 58.8068C107.414 58.8009 107.413 58.7949 107.41 58.7894C107.403 58.7575 107.397 58.7313 107.387 58.6994V58.6964C107.325 58.4292 107.257 58.1678 107.186 57.9035V57.9006C107.088 57.5433 106.981 57.1889 106.867 56.8345C106.637 56.1635 106.38 55.4926 106.13 54.8158C105.967 54.383 105.811 53.9502 105.668 53.5145C105.662 53.4913 105.652 53.468 105.645 53.4448V53.4419C105.356 52.5531 105.09 51.6584 104.865 50.7551C104.81 50.543 104.758 50.331 104.709 50.1189C104.687 50.0144 104.661 49.9127 104.638 49.8082V49.8053C104.404 48.8064 104.231 47.797 104.118 46.7815C104.111 46.7408 104.108 46.6973 104.105 46.6566C104.082 46.4184 104.059 46.1831 104.043 45.9449V45.942C103.973 45.0271 103.974 44.109 104.046 43.1942C104.046 43.1854 104.047 43.1766 104.05 43.168V43.1535C104.063 43.0228 104.079 42.895 104.098 42.7614V42.7585C104.207 41.7255 104.514 40.7172 105.008 39.7783C104.552 40.7889 104.29 41.8614 104.235 42.9502C104.228 43.0025 104.225 43.0519 104.222 43.1042V43.1071C104.222 43.1216 104.221 43.1362 104.219 43.1506V43.1651C104.162 44.205 104.198 45.2472 104.326 46.2819C104.326 46.3102 104.329 46.3384 104.336 46.3661V46.369C104.342 46.4591 104.355 46.5433 104.365 46.6333C104.371 46.6711 104.375 46.7118 104.381 46.7495C104.384 46.7786 104.388 46.8105 104.394 46.8396C104.557 48.0179 104.787 49.1881 105.083 50.3455V50.3484C105.096 50.4036 105.109 50.453 105.125 50.5082C105.128 50.5221 105.133 50.5357 105.138 50.5489V50.5518C105.146 50.5969 105.157 50.6415 105.171 50.6854V50.6883C105.411 51.6091 105.691 52.5211 105.993 53.4274C106.087 53.7179 106.185 54.0054 106.282 54.293C106.286 54.2959 106.286 54.2988 106.282 54.2988C106.312 54.3714 106.341 54.4469 106.367 54.5195V54.5225C106.38 54.5631 106.396 54.6009 106.409 54.6386C106.422 54.6764 106.435 54.7141 106.448 54.749V54.7519C106.689 55.4171 106.939 56.0793 107.163 56.759C107.29 57.1744 107.41 57.5898 107.521 58.0081C107.569 58.1968 107.615 58.3857 107.657 58.5774V58.5803C107.671 58.628 107.682 58.6765 107.69 58.7255Z" fill="#38B42E" fill-opacity="0.78"/>
<path d="M107.726 58.677L107.69 58.7263L107.605 58.8483C107.553 58.8396 107.505 58.828 107.456 58.8193C107.441 58.8167 107.427 58.8128 107.414 58.8077C107.027 58.7189 106.65 58.5973 106.289 58.4446C106.081 58.3545 105.877 58.2558 105.672 58.1541C105.48 58.0408 105.282 57.9275 105.093 57.8026C104.905 57.6806 104.687 57.5732 104.479 57.4512C104.28 57.3282 104.131 57.1509 104.053 56.9457C103.97 56.7244 103.938 56.4902 103.959 56.2573C103.985 55.9692 104.084 55.69 104.248 55.4411L104.453 55.3511C104.758 55.3785 105.058 55.439 105.347 55.5312C105.555 55.5953 105.752 55.6852 105.932 55.7984C106.088 55.8976 106.201 56.0425 106.25 56.208C106.301 56.3844 106.37 56.5565 106.455 56.7221C106.543 56.8847 106.643 57.0387 106.741 57.1984C106.838 57.3611 106.939 57.5238 107.046 57.6864C107.092 57.759 107.137 57.8287 107.186 57.9014V57.9043C107.277 58.0379 107.368 58.1715 107.466 58.308C107.527 58.3981 107.592 58.4852 107.657 58.5782V58.5811C107.68 58.6131 107.703 58.645 107.726 58.677Z" fill="#38B42E" fill-opacity="0.78"/>
<path d="M106.369 54.8667C105.915 54.7769 105.474 54.6412 105.054 54.4623C104.846 54.3719 104.642 54.2743 104.437 54.1722C104.243 54.0597 104.047 53.9462 103.858 53.8216C103.669 53.6981 103.451 53.5911 103.244 53.4695C103.044 53.3476 102.894 53.1701 102.818 52.9645C102.735 52.7433 102.702 52.509 102.724 52.2762C102.748 51.988 102.847 51.7088 103.011 51.4599L103.215 51.3701C103.521 51.3969 103.821 51.4568 104.11 51.5483C104.317 51.6137 104.514 51.7036 104.695 51.8155C104.852 51.915 104.965 52.0602 105.015 52.2262C105.065 52.403 105.132 52.5753 105.218 52.7408C105.306 52.9018 105.406 53.0575 105.506 53.2161C105.602 53.3791 105.703 53.5425 105.811 53.7034C106.017 54.0343 106.251 54.3588 106.491 54.6951L106.369 54.8667Z" fill="#38B42E" fill-opacity="0.78"/>
<path d="M105.091 50.8018C104.637 50.712 104.196 50.5763 103.776 50.3974C103.569 50.307 103.364 50.2094 103.159 50.1072C102.965 49.9948 102.769 49.8812 102.58 49.7566C102.391 49.6332 102.173 49.5261 101.966 49.4045C101.766 49.2826 101.617 49.1052 101.541 48.8996C101.457 48.6783 101.425 48.4441 101.446 48.2113C101.471 47.9231 101.569 47.6438 101.734 47.395L101.938 47.3052C102.243 47.332 102.543 47.3918 102.832 47.4834C103.04 47.5487 103.236 47.6386 103.417 47.7506C103.574 47.8501 103.687 47.9953 103.738 48.1612C103.787 48.3381 103.855 48.5103 103.94 48.6758C104.028 48.8368 104.128 48.9926 104.229 49.1512C104.325 49.3141 104.425 49.4775 104.533 49.6384C104.739 49.9694 104.973 50.2938 105.213 50.6301L105.091 50.8018Z" fill="#38B42E" fill-opacity="0.78"/>
<path d="M104.434 46.8501C103.981 46.7603 103.54 46.6246 103.12 46.4457C102.912 46.3553 102.707 46.2577 102.503 46.1556C102.309 46.0431 102.112 45.9296 101.924 45.805C101.735 45.6815 101.517 45.5745 101.31 45.4529C101.11 45.331 100.96 45.1535 100.884 44.9479C100.801 44.7266 100.768 44.4924 100.789 44.2596C100.814 43.9714 100.913 43.6922 101.077 43.4433L101.281 43.3535C101.586 43.3803 101.887 43.4402 102.176 43.5317C102.383 43.5971 102.58 43.6869 102.761 43.7989C102.918 43.8984 103.031 44.0436 103.081 44.2096C103.13 44.3864 103.198 44.5587 103.284 44.7241C103.372 44.8852 103.472 45.0409 103.572 45.1995C103.668 45.3625 103.769 45.5259 103.877 45.6868C104.083 46.0177 104.317 46.3421 104.556 46.6784L104.434 46.8501Z" fill="#38B42E" fill-opacity="0.78"/>
<path d="M104.162 43.1914C103.708 43.1016 103.267 42.9659 102.847 42.787C102.64 42.6966 102.435 42.599 102.23 42.4969C102.036 42.3844 101.84 42.2709 101.651 42.1463C101.462 42.0229 101.244 41.9158 101.038 41.7942C100.837 41.6723 100.688 41.4948 100.612 41.2892C100.528 41.068 100.496 40.8337 100.517 40.6009C100.542 40.3127 100.64 40.0335 100.805 39.7846L101.009 39.6948C101.314 39.7216 101.614 39.7815 101.903 39.873C102.111 39.9384 102.308 40.0282 102.489 40.1402C102.646 40.2397 102.759 40.3849 102.809 40.5509C102.858 40.7278 102.926 40.9 103.011 41.0655C103.099 41.2265 103.199 41.3822 103.3 41.5408C103.396 41.7038 103.496 41.8672 103.604 42.0281C103.811 42.3591 104.044 42.6835 104.284 43.0198L104.162 43.1914Z" fill="#38B42E" fill-opacity="0.78"/>
<path d="M110.039 55.9191C110.055 56.1348 109.991 56.349 109.857 56.5291C109.718 56.7121 109.562 56.8864 109.438 57.0636C109.318 57.2436 109.185 57.415 109.051 57.5835C108.905 57.7491 108.759 57.9088 108.606 58.0628C108.334 58.3301 108.032 58.5724 107.706 58.786V58.7889C107.657 58.8209 107.609 58.8528 107.56 58.8819L107.456 58.818L107.41 58.7889L107.375 58.7657C107.378 58.7425 107.384 58.7221 107.387 58.6989V58.696C107.413 58.5653 107.44 58.4346 107.466 58.3068C107.485 58.208 107.505 58.1063 107.521 58.0076C107.543 57.8769 107.563 57.7462 107.583 57.6154C107.615 57.4325 107.638 57.2466 107.657 57.0636C107.683 56.8806 107.709 56.7034 107.722 56.5262C107.732 56.3437 107.722 56.1609 107.693 55.9801C107.668 55.8099 107.711 55.6372 107.813 55.4921C107.933 55.3264 108.077 55.176 108.242 55.0448C108.471 54.863 108.723 54.706 108.993 54.5771L109.22 54.5917C109.478 54.7665 109.688 54.9909 109.835 55.2481C109.952 55.4573 110.022 55.6855 110.039 55.9191Z" fill="#38B42E" fill-opacity="0.78"/>
<path d="M106.238 54.5291C106.317 54.1367 106.395 53.7573 106.446 53.3811C106.477 53.1956 106.501 53.0103 106.521 52.827C106.546 52.6462 106.573 52.4682 106.586 52.2894C106.595 52.1073 106.584 51.9249 106.555 51.7446C106.531 51.574 106.574 51.4013 106.677 51.2561C106.797 51.0911 106.941 50.9412 107.105 50.8104C107.334 50.6277 107.586 50.4705 107.857 50.3423L108.084 50.3562C108.342 50.5307 108.551 50.7557 108.697 51.0139C108.815 51.2222 108.885 51.4498 108.901 51.6829C108.918 51.8989 108.855 52.1139 108.721 52.2945C108.582 52.4771 108.425 52.6501 108.303 52.8283C108.181 53.0076 108.048 53.1793 107.916 53.349C107.77 53.513 107.622 53.6727 107.468 53.8268C107.156 54.1346 106.805 54.4096 106.423 54.6466L106.238 54.5291Z" fill="#38B42E" fill-opacity="0.78"/>
<path d="M105.054 50.4973C105.133 50.1049 105.212 49.7255 105.262 49.3494C105.294 49.1639 105.317 48.9786 105.337 48.7953C105.363 48.6144 105.389 48.4364 105.402 48.2576C105.411 48.0756 105.401 47.8932 105.371 47.7129C105.347 47.5423 105.39 47.3696 105.493 47.2244C105.613 47.0594 105.757 46.9095 105.922 46.7786C106.15 46.596 106.403 46.4388 106.673 46.3105L106.9 46.3244C107.158 46.4989 107.368 46.7239 107.513 46.9822C107.631 47.1904 107.701 47.4181 107.717 47.6512C107.734 47.8672 107.671 48.0821 107.538 48.2628C107.398 48.4453 107.242 48.6184 107.119 48.7966C106.998 48.9758 106.864 49.1476 106.733 49.3172C106.586 49.4812 106.438 49.641 106.285 49.795C105.972 50.1028 105.622 50.3778 105.24 50.6148L105.054 50.4973Z" fill="#38B42E" fill-opacity="0.78"/>
<path d="M104.135 46.6227C104.337 46.267 104.534 45.9235 104.702 45.5761C104.792 45.4064 104.874 45.235 104.952 45.0644C105.034 44.8977 105.117 44.7339 105.187 44.5659C105.253 44.3938 105.302 44.2164 105.331 44.0361C105.363 43.8665 105.46 43.712 105.605 43.5993C105.773 43.4719 105.959 43.3651 106.158 43.2818C106.435 43.1653 106.728 43.0794 107.028 43.0259L107.241 43.0973C107.432 43.3305 107.561 43.5997 107.618 43.8843C107.664 44.1142 107.658 44.3501 107.599 44.5776C107.546 44.7889 107.417 44.9787 107.231 45.1176C107.039 45.2568 106.833 45.3825 106.659 45.5219C106.485 45.6625 106.302 45.7928 106.122 45.9217C105.929 46.0414 105.736 46.1566 105.539 46.2648C105.141 46.4797 104.717 46.6535 104.275 46.7828L104.135 46.6227Z" fill="#38B42E" fill-opacity="0.78"/>
<path d="M103.916 43.1116C103.995 42.7192 104.074 42.3398 104.124 41.9636C104.156 41.7781 104.179 41.5929 104.199 41.4095C104.225 41.2287 104.251 41.0507 104.264 40.8719C104.273 40.6898 104.263 40.5074 104.233 40.3271C104.209 40.1566 104.252 39.9838 104.355 39.8386C104.475 39.6736 104.619 39.5237 104.783 39.3929C105.012 39.2102 105.264 39.053 105.535 38.9248L105.762 38.9387C106.02 39.1132 106.23 39.3382 106.375 39.5964C106.493 39.8047 106.563 40.0323 106.579 40.2654C106.596 40.4814 106.533 40.6964 106.4 40.8771C106.26 41.0596 106.104 41.2326 105.981 41.4109C105.859 41.5901 105.726 41.7618 105.594 41.9315C105.448 42.0955 105.3 42.2552 105.146 42.4092C104.834 42.717 104.484 42.9921 104.102 43.2291L103.916 43.1116Z" fill="#38B42E" fill-opacity="0.78"/>
<path d="M103.385 64.4721C103.123 63.5362 102.869 62.599 102.621 61.6606L101.893 58.843C101.881 58.7959 101.88 58.747 101.892 58.6997C101.903 58.6525 101.926 58.608 101.959 58.5697C101.992 58.5313 102.034 58.4998 102.082 58.4776C102.13 58.4554 102.183 58.443 102.237 58.4412L102.266 58.4404L106.328 58.3278L110.391 58.2437C113.099 58.2058 115.807 58.1582 118.515 58.149C121.223 58.1265 123.931 58.1185 126.639 58.1482C129.348 58.1708 132.056 58.2591 134.764 58.3209L134.792 58.3215C134.925 58.3246 135.051 58.3747 135.142 58.4608C135.234 58.547 135.283 58.6621 135.28 58.7809C135.279 58.8079 135.276 58.8348 135.27 58.8613C134.575 61.8258 133.855 64.7862 133.225 67.7611C132.592 70.7355 132.016 73.7191 131.473 76.7079L130.694 81.1967L129.958 85.6923C129.468 88.6893 128.927 91.6783 128.372 94.6648C128.343 94.8221 128.252 94.9652 128.117 95.069C127.982 95.1728 127.81 95.2307 127.631 95.2327L127.614 95.2327L123.065 95.2798C121.548 95.2915 120.032 95.3202 118.515 95.318L113.965 95.3211L109.416 95.2826L109.402 95.2825C109.21 95.2808 109.025 95.2189 108.879 95.1075C108.733 94.9962 108.635 94.8426 108.603 94.6735C108.267 92.9021 107.968 91.125 107.648 89.351L106.746 84.0202C106.453 82.242 106.171 80.4622 105.899 78.6807C105.644 76.8965 105.364 75.1162 105.137 73.3277C105.134 73.3093 105.14 73.2908 105.152 73.2759C105.165 73.2611 105.183 73.251 105.204 73.2478C105.224 73.2446 105.245 73.2484 105.262 73.2586C105.28 73.2687 105.292 73.2844 105.297 73.3024C105.77 75.0521 106.191 76.81 106.636 78.5641C107.065 80.3209 107.482 82.0794 107.889 83.8396L109.085 89.1241C109.465 90.8885 109.865 92.6499 110.228 94.4169L109.416 93.8079L113.965 93.7693L118.515 93.7725C120.032 93.7703 121.548 93.7989 123.065 93.8106L127.614 93.8577L126.857 94.4255C127.481 91.4493 128.119 88.4754 128.808 85.5095L130.863 76.6105C131.519 73.6396 132.142 70.6635 132.707 67.6782C133.276 64.6933 133.754 61.694 134.258 58.6988L134.764 59.2391C132.056 59.3009 129.348 59.3892 126.639 59.4119C123.931 59.4415 121.223 59.4335 118.515 59.411C115.807 59.4018 113.099 59.3542 110.391 59.3164L106.328 59.2322L102.266 59.1196L102.639 58.7171L103.11 61.5782C103.263 62.5324 103.408 63.4881 103.545 64.4452C103.548 64.4636 103.542 64.4822 103.53 64.4972C103.518 64.5122 103.5 64.5225 103.479 64.5259C103.459 64.5294 103.438 64.5257 103.42 64.5157C103.403 64.5057 103.39 64.4901 103.385 64.4721H103.385Z" fill="#020202"/>
<path d="M60.9967 70.7046C60.8864 70.7597 60.7728 70.812 60.6592 70.8642C60.6969 70.8153 60.7473 70.7752 60.8061 70.7474C60.8649 70.7197 60.9303 70.705 60.9967 70.7046Z" fill="#020202"/>
<path d="M68.9361 65.0779C68.1255 65.9345 67.2399 66.7319 66.2875 67.4626C65.3363 68.1845 64.3368 68.8538 63.2944 69.4668C62.5404 69.9025 61.78 70.3208 60.9968 70.7042C61.0085 70.7018 61.0206 70.7008 61.0326 70.7013C61.1434 70.7001 61.2513 70.7326 61.3387 70.7935C61.426 70.8544 61.4875 70.9401 61.5131 71.0364C61.5387 71.1328 61.5268 71.234 61.4794 71.3235C61.4319 71.413 61.3518 71.4854 61.2522 71.5288C61.1526 71.5721 61.0394 71.5839 60.9314 71.5621C60.8233 71.5402 60.7268 71.4862 60.6577 71.4088C60.5886 71.3314 60.5511 71.2352 60.5513 71.1362C60.5515 71.0372 60.5894 70.9412 60.6588 70.864C60.4638 70.957 60.2656 71.0441 60.0674 71.1312L62.5242 78.9738C62.5242 78.9738 65.215 78.9738 66.6189 77.9282C66.8567 77.6642 67.0395 77.3641 67.1584 77.0422C67.2985 76.728 67.419 76.407 67.5191 76.0808C67.7336 75.433 67.9026 74.7708 68.0683 74.1085C68.3933 72.784 68.6728 71.4508 68.9328 70.1117C69.1993 68.7756 69.4365 67.4336 69.6803 66.0945C69.8265 65.2754 69.963 64.4534 70.0994 63.6343C69.7439 64.1356 69.3554 64.6176 68.9361 65.0779ZM61.8905 72.723C62.0168 72.727 62.1364 72.7746 62.2242 72.8559C62.3119 72.9372 62.361 73.0457 62.361 73.1587C62.361 73.2716 62.3119 73.3801 62.2242 73.4614C62.1364 73.5427 62.0168 73.5903 61.8905 73.5944C61.7642 73.5903 61.6446 73.5427 61.5568 73.4614C61.4691 73.3801 61.42 73.2716 61.42 73.1587C61.42 73.0457 61.4691 72.9372 61.5568 72.8559C61.6446 72.7746 61.7642 72.727 61.8905 72.723ZM62.5925 76.2435C62.466 76.2397 62.3461 76.1922 62.2581 76.1109C62.1701 76.0296 62.1209 75.9209 62.1209 75.8077C62.1209 75.6946 62.1701 75.5859 62.2581 75.5046C62.3461 75.4233 62.466 75.3758 62.5925 75.372C62.719 75.3758 62.8389 75.4233 62.9269 75.5046C63.0149 75.5859 63.0641 75.6946 63.0641 75.8077C63.0641 75.9209 63.0149 76.0296 62.9269 76.1109C62.8389 76.1922 62.719 76.2397 62.5925 76.2435ZM63.4504 78.4742C63.3239 78.4705 63.204 78.4229 63.116 78.3416C63.028 78.2603 62.9788 78.1516 62.9788 78.0385C62.9788 77.9254 63.028 77.8167 63.116 77.7354C63.204 77.6541 63.3239 77.6066 63.4504 77.6028C63.5769 77.6066 63.6968 77.6541 63.7848 77.7354C63.8728 77.8167 63.922 77.9254 63.922 78.0385C63.922 78.1516 63.8728 78.2603 63.7848 78.3416C63.6968 78.4229 63.5769 78.4705 63.4504 78.4742Z" fill="#020202"/>
<path d="M71.2211 59.5246C66.7753 56.039 67.8055 46.8079 67.8055 46.8079C65.2805 46.744 58.6639 49.1724 58.6639 49.1724C58.6054 49.1491 58.5436 49.1258 58.4851 49.0998C57.3323 49.5289 56.1287 49.8398 54.8974 50.0263C54.2864 50.1454 53.6592 50.1774 53.0385 50.2442C52.7265 50.2645 52.4113 50.2674 52.0993 50.2819C51.7874 50.2964 51.4753 50.2964 51.1601 50.2906C50.5361 50.2848 49.9122 50.2384 49.2882 50.1919C48.6675 50.1222 48.0468 50.0554 47.4359 49.9392C46.2084 49.7368 45.0125 49.4032 43.8741 48.9458C45.0863 49.184 46.2984 49.3611 47.5138 49.4918C48.7283 49.6238 49.9498 49.6965 51.1731 49.7097C52.3936 49.7344 53.6147 49.6907 54.8291 49.579C56.0543 49.4918 57.2567 49.2856 58.4851 49.0998C53.0385 46.898 47.2669 43.2759 47.2669 43.2759C47.2669 43.2759 37.6052 51.3683 46.9646 66.6352C46.9646 66.6352 53.7502 72.0727 60.0678 71.1316C62.1703 69.97 64.1471 68.6359 65.9727 67.1464C66.8685 66.3992 67.7067 65.5986 68.4815 64.7501C69.2287 63.8967 69.8664 62.9711 70.3826 61.9906L70.3859 61.9877C70.4172 61.9251 70.4728 61.8748 70.5424 61.8459C70.612 61.8171 70.6909 61.8117 70.7646 61.8308C70.8382 61.85 70.9017 61.8923 70.9432 61.9499C70.9847 62.0076 71.0014 62.0767 70.9903 62.1446C70.7889 63.4953 70.5516 64.8402 70.3014 66.185C70.0512 67.5299 69.7652 68.866 69.4629 70.2021C69.1477 71.5383 68.8097 72.8686 68.4002 74.1844C68.1923 74.8409 67.9616 75.4916 67.6983 76.1335C67.5692 76.4566 67.4217 76.7736 67.2563 77.0833C67.1038 77.3976 66.8879 77.6841 66.6194 77.9286V80.0199C66.6194 80.0199 82.4134 83.7844 88.146 81.693L88.8479 71.6545L89.1144 67.5676C81.2629 65.2061 75.6668 63.0102 71.2211 59.5246ZM68.2085 78.9626C68.082 78.9589 67.9621 78.9114 67.8741 78.8301C67.7861 78.7487 67.7369 78.6401 67.7369 78.5269C67.7369 78.4138 67.7861 78.3051 67.8741 78.2238C67.9621 78.1425 68.082 78.095 68.2085 78.0912C68.335 78.095 68.4549 78.1425 68.5429 78.2238C68.6309 78.3051 68.6801 78.4138 68.6801 78.5269C68.6801 78.6401 68.6309 78.7487 68.5429 78.8301C68.4549 78.9114 68.335 78.9589 68.2085 78.9626ZM71.0943 79.5203C70.9678 79.5166 70.8479 79.4691 70.7599 79.3878C70.6719 79.3065 70.6227 79.1978 70.6227 79.0846C70.6227 78.9715 70.6719 78.8628 70.7599 78.7815C70.8479 78.7002 70.9678 78.6527 71.0943 78.6489C71.2208 78.6527 71.3408 78.7002 71.4288 78.7815C71.5168 78.8628 71.566 78.9715 71.566 79.0846C71.566 79.1978 71.5168 79.3065 71.4288 79.3878C71.3408 79.4691 71.2208 79.5166 71.0943 79.5204V79.5203ZM74.5261 80.2174C74.3996 80.2137 74.2797 80.1662 74.1917 80.0849C74.1037 80.0036 74.0545 79.8949 74.0545 79.7817C74.0545 79.6686 74.1037 79.5599 74.1917 79.4786C74.2797 79.3973 74.3996 79.3498 74.5261 79.346C74.6526 79.3498 74.7725 79.3973 74.8605 79.4786C74.9485 79.5599 74.9977 79.6686 74.9977 79.7817C74.9977 79.8949 74.9485 80.0036 74.8605 80.0849C74.7725 80.1662 74.6526 80.2137 74.5261 80.2174ZM78.1919 80.6357C78.0654 80.632 77.9455 80.5844 77.8575 80.5031C77.7695 80.4218 77.7202 80.3131 77.7202 80.2C77.7202 80.0869 77.7695 79.9782 77.8575 79.8969C77.9455 79.8156 78.0654 79.768 78.1919 79.7643C78.3184 79.768 78.4383 79.8156 78.5263 79.8969C78.6143 79.9782 78.6635 80.0869 78.6635 80.2C78.6635 80.3131 78.6143 80.4218 78.5263 80.5031C78.4383 80.5844 78.3184 80.632 78.1919 80.6357ZM81.9357 80.8449C81.8092 80.8411 81.6892 80.7936 81.6012 80.7123C81.5132 80.631 81.464 80.5223 81.464 80.4092C81.464 80.296 81.5132 80.1873 81.6012 80.106C81.6892 80.0247 81.8092 79.9772 81.9357 79.9735C82.0622 79.9771 82.1822 80.0247 82.2702 80.106C82.3583 80.1873 82.4075 80.296 82.4075 80.4092C82.4075 80.5223 82.3583 80.631 82.2702 80.7124C82.1822 80.7937 82.0622 80.8412 81.9357 80.8449V80.8449ZM85.9134 80.8449C85.7869 80.8411 85.667 80.7936 85.579 80.7123C85.491 80.631 85.4418 80.5223 85.4418 80.4092C85.4418 80.296 85.491 80.1873 85.579 80.106C85.667 80.0247 85.7869 79.9772 85.9134 79.9735C86.0399 79.9772 86.1599 80.0247 86.2479 80.106C86.3359 80.1873 86.3852 80.296 86.3852 80.4092C86.3852 80.5223 86.3359 80.631 86.2479 80.7123C86.1599 80.7936 86.0399 80.8412 85.9134 80.8449V80.8449Z" fill="#020202"/>
<path d="M64.2876 46.5978C62.9622 46.2367 61.6699 45.7846 60.4223 45.2457C59.8042 44.9671 59.1777 44.6998 58.5735 44.397C57.9644 44.1011 57.3737 43.7783 56.777 43.4637C55.5961 42.8172 54.4341 42.1427 53.3149 41.4145C52.1946 40.6865 51.1182 39.9113 50.0622 39.1064L50.055 39.1009C50.0183 39.073 49.9956 39.0332 49.9918 38.9903C49.988 38.9473 50.0034 38.9048 50.0346 38.8721C50.0437 38.8627 50.0538 38.8542 50.0649 38.8468C51.3124 38.0223 52.5781 37.2312 53.8299 36.4195C55.0786 35.6045 56.3434 34.8102 57.6029 34.0069C60.1191 32.3903 62.7316 30.8969 65.4288 29.5332C68.1163 28.1273 70.9667 26.9864 73.9299 26.1307C75.4204 25.6966 76.9672 25.4354 78.5322 25.3535C79.3185 25.3157 80.1071 25.3695 80.8779 25.5135C81.6472 25.6598 82.3748 25.9456 83.0157 26.353C83.0226 26.3576 83.0273 26.3645 83.0286 26.3721C83.0299 26.3797 83.0277 26.3875 83.0226 26.3937C83.0177 26.3994 83.0106 26.4034 83.0026 26.4048C82.9947 26.4062 82.9865 26.4049 82.9795 26.4013C81.6441 25.695 80.0612 25.5813 78.5591 25.7125C77.0428 25.8698 75.5515 26.1809 74.114 26.6398C71.2295 27.5799 68.4295 28.7153 65.7384 30.0362C63.0343 31.3492 60.3833 32.7597 57.7762 34.2373C55.1669 35.7132 52.6687 37.3403 50.2976 39.1083L50.3002 38.8488C51.3865 39.596 52.521 40.296 53.6457 40.9989C54.7742 41.6985 55.9044 42.3955 57.0587 43.06C57.642 43.3828 58.2202 43.7142 58.8158 44.0184C59.3995 44.3418 59.9999 44.6378 60.5967 44.9417C61.8075 45.5193 63.0359 46.0672 64.309 46.543C64.317 46.5458 64.3234 46.5514 64.3268 46.5584C64.3303 46.5655 64.3304 46.5735 64.3272 46.5807C64.3241 46.5874 64.3183 46.5928 64.3111 46.5959C64.3038 46.5991 64.2954 46.5998 64.2876 46.5978Z" fill="#020202"/>
<path d="M88.5842 67.4052C84.5473 66.654 80.6598 65.3645 77.052 63.5798C75.2534 62.6693 73.5461 61.6218 71.9489 60.4489C71.7481 60.3038 71.5542 60.1514 71.3564 60.003C71.1609 59.8547 70.9614 59.7085 70.763 59.5324C70.3856 59.1877 70.0574 58.8024 69.786 58.3855C69.2647 57.5668 68.8646 56.6911 68.5958 55.7802C68.0685 53.9885 67.7495 52.1529 67.6438 50.3026C67.516 48.4652 67.5014 46.6228 67.6003 44.784C67.6233 44.3247 67.6529 43.8656 67.6892 43.4066C67.7225 42.946 67.7961 42.4844 67.8526 42.0324C67.9758 41.1223 68.096 40.212 68.2379 39.3039C68.3777 38.3957 68.5235 37.4881 68.6844 36.5825C68.8239 35.6734 69.0325 34.7739 69.3087 33.8901C69.1873 34.3348 69.0959 34.7855 69.0347 35.2399C68.967 35.6935 68.9012 36.1472 68.8428 36.6019C68.7265 37.5114 68.6253 38.4225 68.5301 39.334L68.2499 42.069C68.1484 42.9828 68.1033 43.8809 68.0817 44.7984C68.0418 46.623 68.0801 48.4496 68.2346 50.265C68.3662 52.0752 68.6933 53.8697 69.2115 55.6237C69.4728 56.4848 69.8524 57.3138 70.3418 58.0915C70.5841 58.4684 70.8776 58.817 71.2157 59.1295C71.38 59.2772 71.5756 59.4235 71.7699 59.5723C71.9636 59.7193 72.1537 59.8704 72.3505 60.0142C73.9134 61.1781 75.5767 62.23 77.3248 63.1599C79.0763 64.0929 80.9036 64.907 82.7915 65.5954C84.6844 66.2919 86.6181 66.896 88.5842 67.4052Z" fill="#020202"/>
<path d="M47.7407 43.5423C47.9071 43.1481 48.1132 42.7682 48.3563 42.4073C48.5898 42.0491 48.8439 41.702 49.1175 41.3673C49.3908 41.0324 49.6836 40.7106 49.9946 40.4032C50.3057 40.0865 50.6485 39.7959 51.0189 39.5352C50.8532 39.9297 50.6474 40.3098 50.4041 40.6707C50.1707 41.0289 49.9163 41.3758 49.6421 41.7101C49.3682 42.0447 49.0752 42.3663 48.7642 42.6738C48.4531 42.9904 48.1105 43.281 47.7407 43.5423Z" fill="#020202"/>
<path d="M70.3032 31.2403C70.5657 30.8519 70.8931 30.5016 71.2739 30.2016C71.6487 29.8919 72.0675 29.6276 72.5195 29.4156C72.9776 29.1908 73.4796 29.0463 73.9983 28.9898C74.5209 28.9221 75.0537 29.0151 75.5093 29.2535C75.0316 29.2425 74.5552 29.3035 74.1001 29.4339C73.6575 29.564 73.2293 29.7301 72.8207 29.9302C72.4034 30.1242 71.9898 30.3376 71.577 30.5629C71.1635 30.7883 70.7473 31.0173 70.3032 31.2403Z" fill="#020202"/>
<path d="M78.4418 29.4338C79.6231 29.7941 80.6412 30.4882 81.3422 31.4113C82.0561 32.3185 82.588 33.3298 82.914 34.4C83.2406 35.4662 83.4408 36.5601 83.5114 37.6637C83.5815 38.7567 83.6371 39.8502 83.6782 40.9443C83.7224 42.0386 83.7341 43.134 83.7265 44.2308C83.7166 45.3252 83.679 46.4313 83.5625 47.5235C83.4727 48.5951 83.5258 49.6724 83.7208 50.7328C83.9073 51.795 84.1983 52.8404 84.5904 53.8568L84.5654 53.812C84.7554 54.034 84.9755 54.2339 85.2207 54.4073C85.4743 54.5995 85.7407 54.7843 86.0112 54.9651C86.5527 55.3267 87.1121 55.6728 87.6758 56.0131C88.8076 56.689 89.9507 57.353 91.1053 58.0051C93.4138 59.3072 95.7525 60.5701 98.1016 61.8171C99.2749 62.4426 100.455 63.0572 101.643 63.6608L102.533 64.1147C102.673 64.1919 102.818 64.2607 102.968 64.3206C103.113 64.3671 103.268 64.3825 103.421 64.3656C103.574 64.3487 103.721 64.2999 103.849 64.2233C103.969 64.1494 104.105 64.0322 104.233 63.9382L105.012 63.3415C105.276 63.1423 105.555 62.9583 105.845 62.7906C106.136 62.6187 106.44 62.4774 106.724 62.316C107.014 62.1549 107.292 61.9872 107.578 61.812C107.733 61.7169 107.911 61.6559 108.098 61.6338C108.284 61.6117 108.474 61.6293 108.651 61.685C108.747 61.713 108.835 61.7585 108.909 61.8185C108.984 61.8785 109.044 61.9518 109.085 62.0336C109.152 62.1993 109.155 62.3801 109.093 62.5474C109.04 62.7078 108.95 62.8564 108.828 62.9834C108.704 63.1124 108.573 63.2038 108.45 63.3104L106.945 64.5542L106.967 64.5295C106.877 64.6357 106.834 64.768 106.846 64.9009C106.858 65.0338 106.925 65.158 107.033 65.2497C107.284 65.4397 107.579 65.5762 107.897 65.6488C108.217 65.7379 108.547 65.7938 108.881 65.8154C109.219 65.7992 109.554 65.7566 109.884 65.688C111.235 65.4264 112.571 65.0637 113.899 64.696L114.893 64.4127C115.065 64.3646 115.208 64.3166 115.404 64.2674C115.604 64.2199 115.813 64.2128 116.016 64.2466C116.126 64.2654 116.231 64.2997 116.329 64.3482C116.445 64.4069 116.537 64.4969 116.593 64.6054C116.674 64.8028 116.666 65.0208 116.57 65.2128C116.426 65.5459 116.169 65.8308 115.836 66.0283C115.675 66.125 115.499 66.2025 115.315 66.259L114.822 66.4149L113.836 66.7265L111.865 67.3498L111.912 67.3305C111.836 67.3696 111.765 67.4161 111.701 67.4693C111.669 67.4918 111.645 67.5226 111.634 67.5575C111.632 67.5529 111.637 67.5805 111.69 67.6236C111.748 67.6683 111.813 67.705 111.883 67.7326L111.761 67.7141L115.038 67.5243L116.676 67.4325C117.008 67.4106 117.34 67.4734 117.634 67.6136C117.792 67.6896 117.931 67.7928 118.044 67.9171C118.113 67.9942 118.163 68.0832 118.192 68.1784C118.22 68.2737 118.227 68.3732 118.211 68.4707C118.175 68.6391 118.091 68.7961 117.966 68.9263C117.861 69.0423 117.738 69.1441 117.6 69.2287C117.33 69.3923 117.019 69.4943 116.695 69.5258L115.051 69.657L113.416 69.7865L113.007 69.8188L112.803 69.835C112.748 69.8387 112.694 69.8458 112.641 69.8562C112.544 69.8741 112.451 69.9068 112.366 69.9527C112.295 69.9912 112.233 70.0426 112.186 70.1037C112.174 70.1199 112.167 70.1383 112.165 70.1575C112.163 70.1767 112.166 70.1959 112.175 70.2137C112.198 70.2721 112.24 70.3227 112.297 70.359C112.328 70.3804 112.363 70.398 112.4 70.4113C112.446 70.4276 112.494 70.4397 112.543 70.4474L112.943 70.5297L114.543 70.8596L115.342 71.0278C115.483 71.0596 115.589 71.0751 115.766 71.1223C115.934 71.1693 116.092 71.2414 116.233 71.3356C116.384 71.437 116.508 71.5669 116.597 71.716C116.651 71.8076 116.684 71.9085 116.691 72.0121C116.699 72.1157 116.682 72.2195 116.641 72.3168C116.564 72.4795 116.44 72.6213 116.283 72.7281C116.125 72.8349 115.939 72.903 115.742 72.9255C115.584 72.9413 115.424 72.9439 115.265 72.9334C115.121 72.9279 114.982 72.9175 114.842 72.9073C114.564 72.8845 114.288 72.8583 114.015 72.8287L112.385 72.6454L111.577 72.5625C111.332 72.5334 111.084 72.5242 110.836 72.535C110.755 72.5417 110.677 72.5654 110.607 72.6041C110.561 72.6417 110.573 72.6341 110.572 72.6444C110.567 72.7185 110.742 72.8869 110.848 72.8973C110.865 72.8989 110.881 72.9029 110.896 72.9091L110.918 72.9184L113.127 73.848L113.059 73.8272C113.254 73.8596 113.437 73.9315 113.596 74.0374C113.755 74.1433 113.884 74.2804 113.974 74.4381C114.025 74.537 114.051 74.645 114.049 74.754C114.046 74.863 114.017 74.9702 113.961 75.0674C113.867 75.2262 113.73 75.3618 113.564 75.4625C113.25 75.6534 112.866 75.7291 112.492 75.6739C112.295 75.6422 112.174 75.6002 112.028 75.566L111.604 75.4571L108.206 74.5861L107.781 74.4773L107.569 74.4228L107.516 74.4092L107.503 74.4058L107.496 74.4041C107.507 74.4062 107.463 74.397 107.519 74.4083L107.489 74.4036L107.371 74.3824C107.065 74.3175 106.77 74.2205 106.49 74.0934L104.882 73.4293C103.814 72.981 102.754 72.5194 101.697 72.0559C99.6065 71.0962 97.4474 70.2616 95.2336 69.5575L88.5739 67.4325C88.5699 67.4312 88.5662 67.4293 88.563 67.4267C88.5598 67.4241 88.5573 67.421 88.5554 67.4176C88.5536 67.4142 88.5526 67.4104 88.5524 67.4066C88.5521 67.4028 88.5528 67.399 88.5542 67.3954C88.5572 67.3883 88.563 67.3825 88.5707 67.3792C88.5783 67.3759 88.5871 67.3753 88.5951 67.3776L95.3253 69.3075C97.5702 69.9711 99.7635 70.7672 101.891 71.6904L105.098 73.0118L106.709 73.6535C106.956 73.7635 107.217 73.8466 107.486 73.9009L107.584 73.9173L107.609 73.9209L107.665 73.933L107.718 73.946L107.931 73.9978L108.358 74.1015L111.768 74.9307L112.195 75.0344C112.334 75.0667 112.492 75.1111 112.586 75.1228C112.8 75.1526 113.019 75.1079 113.198 74.9979C113.275 74.95 113.34 74.8866 113.386 74.8127C113.399 74.7925 113.406 74.7697 113.406 74.7465C113.406 74.7233 113.399 74.7004 113.386 74.6803C113.336 74.6052 113.269 74.5408 113.188 74.4917C113.107 74.4426 113.015 74.4101 112.919 74.3965C112.897 74.3926 112.876 74.3864 112.856 74.3782L112.85 74.3757L110.638 73.4523L110.707 73.4733C110.51 73.431 110.331 73.338 110.192 73.2059C110.043 73.0738 109.946 72.9024 109.915 72.7172C109.898 72.5982 109.92 72.4772 109.98 72.3697C110.035 72.2737 110.115 72.1907 110.212 72.1275C110.371 72.0284 110.554 71.966 110.746 71.9462C111.045 71.9267 111.345 71.9343 111.642 71.9688L112.466 72.051L114.094 72.2294C114.364 72.2579 114.633 72.2827 114.9 72.3038C115.033 72.3131 115.166 72.3226 115.295 72.3271C115.409 72.3344 115.524 72.3336 115.638 72.3248C115.714 72.3176 115.788 72.2934 115.851 72.2545C115.915 72.2156 115.967 72.1632 116.002 72.102C116.01 72.0843 116.013 72.0652 116.01 72.0464C116.008 72.0275 116 72.0096 115.988 71.9941C115.945 71.9277 115.888 71.8697 115.819 71.8238C115.74 71.7719 115.652 71.7323 115.558 71.7068C115.473 71.6831 115.31 71.6533 115.185 71.6261L114.386 71.46L112.788 71.1212L112.389 71.0362C112.303 71.0203 112.22 70.9973 112.139 70.9676C112.05 70.934 111.965 70.8903 111.888 70.8375C111.724 70.7262 111.601 70.5727 111.537 70.3974C111.501 70.2989 111.489 70.1948 111.502 70.0919C111.515 69.989 111.552 69.8897 111.611 69.8008C111.714 69.6563 111.853 69.5354 112.017 69.4477C112.167 69.3669 112.331 69.3097 112.503 69.2785C112.584 69.2635 112.665 69.2533 112.747 69.248L112.952 69.2332L113.361 69.2036L114.997 69.0853L116.625 68.9668C116.847 68.9473 117.061 68.8795 117.248 68.7694C117.411 68.6802 117.536 68.5443 117.602 68.3837C117.606 68.36 117.604 68.3358 117.596 68.3128C117.588 68.2898 117.575 68.2686 117.557 68.2508C117.496 68.1857 117.421 68.1314 117.338 68.0905C117.146 67.9989 116.929 67.9577 116.711 67.9716L115.072 68.0521L111.793 68.207L111.783 68.2075C111.744 68.2092 111.706 68.2026 111.671 68.1884C111.541 68.1374 111.421 68.0675 111.316 67.9815C111.245 67.9266 111.188 67.8587 111.149 67.7823C111.11 67.7059 111.09 67.623 111.09 67.5391C111.106 67.3786 111.19 67.2297 111.325 67.1235C111.422 67.0441 111.528 66.975 111.642 66.9176C111.657 66.9098 111.673 66.9033 111.69 66.8982L113.671 66.2985L114.661 65.9987L115.156 65.8488C115.303 65.8071 115.444 65.7485 115.574 65.6743C115.83 65.5297 116.03 65.3178 116.146 65.0676C116.2 64.9747 116.215 64.8676 116.188 64.7658C116.169 64.7079 116.068 64.6529 115.928 64.625C115.788 64.5997 115.643 64.6027 115.504 64.6338C115.364 64.6657 115.177 64.7214 115.016 64.7634L114.011 65.0296C112.668 65.3733 111.325 65.7161 109.945 65.9609C109.594 66.0281 109.237 66.067 108.878 66.0771C108.516 66.0504 108.159 65.9852 107.815 65.8828C107.457 65.794 107.127 65.6322 106.851 65.41C106.702 65.2815 106.613 65.1082 106.6 64.9238C106.597 64.7456 106.652 64.5705 106.76 64.4204C106.766 64.4112 106.773 64.4029 106.782 64.3956L108.296 63.1606C108.419 63.0561 108.558 62.9569 108.657 62.8537C108.759 62.7488 108.836 62.6258 108.881 62.4926C108.929 62.3679 108.93 62.2325 108.883 62.1073C108.854 62.0497 108.811 61.9983 108.758 61.9563C108.705 61.9144 108.642 61.8829 108.575 61.8639C108.429 61.818 108.272 61.8035 108.119 61.8215C107.965 61.8395 107.819 61.8896 107.691 61.9677C107.412 62.1368 107.122 62.3086 106.83 62.4688C106.537 62.6334 106.232 62.7705 105.952 62.9373C105.67 63.1031 105.4 63.2847 105.144 63.4811L104.373 64.0827C104.237 64.1834 104.13 64.2828 103.971 64.385C103.815 64.4801 103.636 64.5412 103.448 64.5633C103.261 64.5853 103.07 64.5678 102.892 64.512C102.729 64.4499 102.571 64.3774 102.419 64.2952L101.525 63.848L97.9503 62.0508C95.5691 60.8497 93.1982 59.6316 90.8535 58.3699C89.6818 57.738 88.514 57.0987 87.3727 56.418C86.8016 56.0781 86.2341 55.7323 85.6781 55.3662C85.4001 55.1829 85.1249 54.9949 84.8558 54.7937C84.563 54.5896 84.3023 54.3511 84.0807 54.0848C84.0713 54.0727 84.0636 54.0596 84.0579 54.0457L84.0555 54.0399C83.6349 52.9928 83.3341 51.9104 83.1578 50.8091C82.9662 49.7084 82.9219 48.5912 83.0258 47.4811C83.2218 45.3101 83.2843 43.1311 83.2131 40.9539C83.1426 38.7725 83.2417 36.5697 82.6101 34.4737C82.3261 33.4214 81.8419 32.4206 81.1785 31.515C80.8387 31.0678 80.4353 30.6619 79.9785 30.3076C79.5265 29.9466 78.9993 29.6689 78.427 29.4903L78.4228 29.4891C78.4147 29.4868 78.408 29.4817 78.4041 29.475C78.4001 29.4682 78.3993 29.4604 78.4018 29.4531C78.4043 29.4458 78.4099 29.4397 78.4174 29.4361C78.4248 29.4325 78.4336 29.4316 78.4418 29.4337L78.4418 29.4338Z" fill="#020202"/>
<path d="M67.8052 47.6574C69.1245 47.6714 70.4352 47.7058 71.7447 47.7333C73.0539 47.7568 74.3606 47.7838 75.6649 47.7734C76.969 47.7714 78.2709 47.734 79.5635 47.6329C80.2083 47.5812 80.8491 47.4958 81.4828 47.3773C82.1224 47.2712 82.7361 47.0651 83.2957 46.7686C82.799 47.171 82.2104 47.4723 81.5707 47.6516C80.9381 47.8425 80.2889 47.9866 79.6299 48.0823C78.3192 48.2646 76.9946 48.3555 75.6681 48.354C74.3462 48.3529 73.0268 48.3006 71.7145 48.1841C70.4008 48.0785 69.0954 47.9026 67.8052 47.6574Z" fill="#020202"/>
<path d="M96.9491 31.9157C95.633 31.6803 94.8141 31.2284 93.3259 30.3157C93.1935 30.1316 93.0962 30.0905 92.915 30.0376C92.915 28.9223 92.0551 27.0893 91.8503 25.3688C91.7084 24.0274 91.7701 23.4312 92.1601 22.6875C91.3946 21.5749 91.2382 20.9418 91.3188 19.7999C91.2564 19.5531 92.1894 17.346 93.558 17.3128C94.666 17.2859 94.8067 17.4981 95.0839 18.1874C95.361 18.8767 95.3102 19.1702 95.5143 19.7999C95.4329 19.9491 98.825 19.5213 101.103 19.0687C102.788 18.7338 105.133 17.8978 105.207 17.7164C105.207 17.7055 105.207 17.6999 105.207 17.6999C105.21 17.7046 105.21 17.7101 105.207 17.7164C105.215 17.9129 105.274 19.8178 104.897 20.9812C104.642 21.7688 103.968 22.8937 103.968 22.8937C103.877 22.894 103.593 24.9604 103.755 26.2875C103.823 26.8476 104.106 27.3779 103.628 27.8004C103.269 28.1171 102.618 28.0174 102.644 27.9647C101.561 29.0777 100.948 29.6526 99.8511 30.6004C98.649 31.4683 97.9061 32.0479 96.9491 31.9157Z" fill="#DA9770" stroke="#DA9770" stroke-width="0.0677399"/>
<path d="M105.56 37.3693C105.086 36.5737 103.883 35.9439 103.586 35.9771C103.29 36.0102 101.621 36.1097 101.064 35.5425C100.947 35.4254 100.806 35.3292 100.648 35.2589C100.402 35.1574 100.134 35.1089 99.863 35.1172C99.5925 35.1255 99.3279 35.1905 99.0906 35.3068C98.151 35.7414 96.2514 35.5167 95.5385 35.0784C94.7226 34.5738 92.79 35.0784 92.79 35.0784C92.5427 32.5445 92.8271 31.1964 93.2062 30.4856C94.1622 31.1522 96.033 32.3197 97.5782 32.1651C99.2471 31.9994 102.77 28.2868 102.77 28.2868C103.66 28.4194 104.402 27.9884 104.105 26.5963C103.809 25.2041 104.254 23.0494 104.254 23.0494C104.602 22.5006 104.877 21.9171 105.074 21.311C105.713 23.5503 105.7 29.8447 105.144 30.9055C104.588 31.9662 104.81 33.9035 104.81 33.9035C105.848 35.1079 105.56 37.3693 105.56 37.3693Z" fill="#020202"/>
<path d="M87.4819 15.1387C87.4819 15.1387 82.2114 24.5085 79.9368 25.304C77.6621 26.0996 78.1566 28.6108 79.3434 29.2115C80.5302 29.8122 84.7827 31.9336 85.1783 32.464C85.5739 32.9943 92.7456 36.3533 92.7695 35.381C92.7897 34.5606 93.4793 30.6409 92.5804 28.2812C92.0073 26.872 91.7581 25.3739 91.8478 23.8766C91.9025 23.2153 92.0261 22.7185 92.2742 22.7185C92.2742 22.7185 90.049 20.5971 92.2742 17.9452C92.2742 17.9452 94.9073 15.6249 95.5007 19.8678C95.5007 19.8678 103.66 19.2712 105.811 17.2823C105.811 17.2823 103.474 8.5644 95.3524 9.75772C95.3524 9.75772 89.5506 10.5754 87.4819 15.1387Z" fill="#020202"/>
<path d="M105.528 17.5142C105.63 18.7927 105.477 20.0774 105.074 21.3078V21.3114C104.878 21.9176 104.603 22.501 104.254 23.0499C104.254 23.0499 103.809 25.2045 104.106 26.5967C104.403 27.9889 103.661 28.4198 102.771 28.2872C102.771 28.2872 99.2477 31.9998 97.5788 32.1655C96.0335 32.3202 94.1627 31.1527 93.2067 30.486C93.1284 30.4345 93.0584 30.3829 92.9966 30.3387" stroke="#020202" stroke-width="0.655566" stroke-linecap="round" stroke-linejoin="round"/>
<path d="M101.285 24.0648C101.445 24.0598 101.597 23.9996 101.708 23.8966C101.819 23.7937 101.882 23.6562 101.882 23.5131C101.882 23.37 101.819 23.2325 101.708 23.1296C101.597 23.0266 101.445 22.9664 101.285 22.9614C101.125 22.9664 100.974 23.0266 100.862 23.1296C100.751 23.2325 100.689 23.37 100.689 23.5131C100.689 23.6562 100.751 23.7937 100.862 23.8966C100.974 23.9996 101.125 24.0598 101.285 24.0648Z" fill="#020202"/>
<path d="M92.4591 21.4793C92.6191 21.4744 92.7707 21.4141 92.8819 21.3112C92.9932 21.2083 93.0553 21.0707 93.0553 20.9276C93.0553 20.7845 92.9932 20.647 92.8819 20.5441C92.7707 20.4412 92.6191 20.3809 92.4591 20.376C92.2991 20.3809 92.1474 20.4412 92.0362 20.5441C91.925 20.647 91.8628 20.7845 91.8628 20.9276C91.8628 21.0707 91.925 21.2083 92.0362 21.3112C92.1474 21.4141 92.2991 21.4744 92.4591 21.4793Z" fill="#020202"/>
<path d="M99.1943 20.9283C99.5948 20.9179 99.9947 20.9611 100.381 21.0565C100.769 21.1479 101.145 21.2779 101.501 21.4439C101.859 21.6111 102.191 21.82 102.488 22.0652C102.786 22.3076 103.032 22.5962 103.216 22.9171C102.898 22.6965 102.608 22.4762 102.287 22.2897C101.973 22.0995 101.646 21.9258 101.309 21.7695C100.622 21.4551 99.9158 21.1743 99.1943 20.9283Z" fill="#020202"/>
<path d="M98.7632 28.2871C99.065 28.4734 99.3355 28.6972 99.5664 28.952C99.6775 29.0737 99.7895 29.1912 99.8938 29.3156C99.9994 29.4452 100.117 29.5665 100.246 29.6784C100.043 29.6916 99.8421 29.6388 99.6797 29.5298C99.5205 29.435 99.3769 29.3207 99.2531 29.1904C99.0017 28.9343 98.8324 28.6222 98.7632 28.2871Z" fill="#020202"/>
<path d="M101.433 26.2656C101.45 26.4173 101.439 26.5703 101.402 26.719C101.374 26.8384 101.332 26.9145 101.285 27.1263C101.229 27.114 101.176 27.0901 101.133 27.0565C101.089 27.0228 101.054 26.9804 101.032 26.9327C100.988 26.8401 100.977 26.7376 101.001 26.6392C101.022 26.5452 101.075 26.4592 101.152 26.3925C101.229 26.3258 101.327 26.2816 101.433 26.2656Z" fill="#020202"/>
<path d="M91.6356 35.0557C91.5619 36.4206 91.4175 37.7741 91.2866 39.1266C91.2097 39.8016 91.1515 40.4778 91.0854 41.15C91.0532 41.4863 91.0293 41.8225 91.0136 42.1555C91.0099 42.3199 90.9906 42.4906 90.9974 42.6486L91.0003 42.8879L91.0258 43.091L91.035 43.15C91.0472 43.4718 91.0806 43.8054 91.1121 44.1326C91.1474 44.4609 91.1966 44.7872 91.2614 45.1094C91.32 45.4293 91.4056 45.7448 91.5173 46.0532C91.6094 46.3491 91.7761 46.6223 92.0046 46.8517L92.0225 46.8672C92.0457 46.8872 92.0622 46.9126 92.0703 46.9405C92.0783 46.9683 92.0777 46.9977 92.0683 47.0252C92.059 47.0528 92.0413 47.0776 92.0173 47.0967C91.9933 47.1159 91.9638 47.1289 91.9321 47.1341C91.5257 47.2001 91.1131 47.2312 90.7 47.2269C90.4936 47.2249 90.2878 47.2067 90.085 47.1723C89.8819 47.1414 89.6877 47.0749 89.5137 46.9764C89.7001 47.0402 89.8984 47.0719 90.098 47.0699C90.2957 47.0739 90.4934 47.0631 90.6891 47.0377C91.0799 46.9913 91.4662 46.9182 91.8445 46.8188L91.772 47.1012C91.4592 46.8598 91.2202 46.5514 91.0773 46.2048C90.9275 45.8827 90.8078 45.5501 90.7194 45.2103C90.5475 44.5396 90.4412 43.8567 90.4018 43.1695L90.4111 43.2283L90.3638 42.9256L90.3551 42.6553C90.3463 42.4732 90.36 42.3044 90.3653 42.1291C90.3874 41.7831 90.4179 41.4408 90.4562 41.1002C90.524 40.4178 90.6366 39.7426 90.7439 39.0677C90.9809 37.7205 91.2574 36.3802 91.6356 35.0557Z" fill="#020202"/>
<path d="M83.8094 31.6162C83.7231 31.9744 83.5407 32.3086 83.278 32.5899C83.0314 32.8784 82.7256 33.1224 82.377 33.3088C82.5523 32.988 82.769 32.6866 83.0227 32.4108C83.2667 32.132 83.5294 31.8666 83.8094 31.6162Z" fill="#020202"/>
<path d="M67.8888 43.8398L67.8123 43.9027L67.8146 43.901C67.2587 44.5748 66.6269 45.1958 65.9293 45.7544C65.2332 46.3184 64.4836 46.8273 63.6889 47.2754C62.8928 47.722 62.0535 48.1039 61.181 48.4166C60.3131 48.7331 59.4085 48.9623 58.4839 49.1002C59.3279 48.7396 60.1588 48.3877 60.9703 48.007C61.7795 47.6233 62.5747 47.2235 63.3431 46.7842C64.1174 46.3534 64.8651 45.8852 65.6032 45.3998C66.3397 44.9117 67.0581 44.3982 67.7939 43.8833L67.7964 43.8815L67.8888 43.8398Z" fill="#020202"/>
<path d="M53.6031 70.3078C53.1103 70.8526 52.8043 71.5131 52.722 72.2097C52.6825 72.5515 52.6854 72.8961 52.7307 73.2373C52.7433 73.4082 52.7958 73.576 52.8257 73.7447L52.9741 74.243L52.9685 74.228C53.5112 75.4752 54.0184 76.7317 54.452 78.0134C54.6681 78.6544 54.8509 79.305 55.0178 79.9602C55.0995 80.2885 55.1748 80.6184 55.2338 80.9531C55.2632 81.1205 55.289 81.2888 55.3025 81.4611C55.3254 81.6418 55.3164 81.8245 55.2757 82.0026L55.2636 81.9174C55.7204 82.6521 56.2488 83.3494 56.8427 84.0012C57.4307 84.6558 58.0875 85.2588 58.8039 85.8017C59.5066 86.3422 60.2856 86.7979 61.1209 87.1573C61.9323 87.5115 62.824 87.6937 63.7269 87.6898L63.759 87.6908C63.8439 87.6811 63.9365 87.6225 63.9506 87.4106C63.956 87.3018 63.9489 87.1929 63.9293 87.0855C63.8997 86.9688 63.8726 86.8508 63.8336 86.7326C63.653 86.2453 63.428 85.772 63.1608 85.3176C62.8902 84.8531 62.5987 84.3997 62.3044 83.9373L61.8599 83.2283L61.4629 82.4953C60.9345 81.5079 60.5966 80.4477 60.4634 79.3596C60.4049 78.809 60.4578 78.2535 60.6194 77.7197C60.7067 77.4529 60.8413 77.2004 61.018 76.9717C61.2008 76.7472 61.4443 76.5679 61.7258 76.4505C61.7297 76.449 61.7339 76.4481 61.7382 76.4481C61.7425 76.448 61.7467 76.4487 61.7507 76.4501C61.7547 76.4515 61.7583 76.4536 61.7614 76.4562C61.7644 76.4589 61.7669 76.462 61.7686 76.4655C61.7715 76.4722 61.7717 76.4796 61.7692 76.4864C61.7666 76.4931 61.7614 76.4989 61.7545 76.5026C61.512 76.6436 61.3097 76.8333 61.1635 77.0564C61.0266 77.2823 60.9311 77.5262 60.8806 77.7791C60.7814 78.2876 60.7801 78.8076 60.8767 79.3165C61.0894 80.3426 61.474 81.3342 62.0177 82.2577L62.4345 82.9495L62.8818 83.6275L63.3451 84.3208C63.5015 84.5517 63.6338 84.7979 63.7792 85.0358C64.0697 85.5249 64.3046 86.0389 64.4802 86.57C64.5783 86.861 64.6172 87.1654 64.595 87.4687C64.5803 87.6593 64.5016 87.8415 64.3691 87.9915C64.2896 88.076 64.1894 88.143 64.0763 88.1873C63.9594 88.2326 63.8322 88.2527 63.7051 88.2462L63.7371 88.2472C63.2369 88.243 62.7392 88.1825 62.256 88.067C61.7816 87.9475 61.3233 87.7819 60.8893 87.5732C60.4581 87.3728 60.0488 87.1369 59.6667 86.8685C59.2854 86.6069 58.9216 86.3256 58.5771 86.0259C57.8974 85.4284 57.2644 84.7899 56.6826 84.1149C56.096 83.4452 55.5483 82.749 55.0415 82.0292C55.0261 82.0072 55.0208 81.9808 55.0267 81.9554L55.0294 81.9438C55.0495 81.7925 55.0427 81.6393 55.0093 81.4899C54.9831 81.3308 54.9444 81.1703 54.902 81.0107C54.8174 80.6912 54.7151 80.3733 54.6086 80.0564C54.3941 79.4225 54.146 78.7962 53.9137 78.1656L52.5009 74.382L52.4958 74.3683L52.4954 74.3668C52.4507 74.1856 52.4009 74.0057 52.3664 73.8231C52.3457 73.6379 52.3034 73.4561 52.3018 73.2694C52.2777 72.8982 52.306 72.5258 52.3859 72.161C52.4701 71.7988 52.6127 71.4495 52.8094 71.124C52.9971 70.7981 53.2516 70.5066 53.5597 70.2647C53.5659 70.26 53.5738 70.2575 53.5819 70.2578C53.59 70.2581 53.5977 70.2612 53.6035 70.2663C53.6092 70.2714 53.6126 70.2783 53.613 70.2856C53.6133 70.2928 53.6106 70.2999 53.6054 70.3055L53.6031 70.3078Z" fill="#020202"/>
<path d="M48.4558 75.2071C48.9099 74.2157 49.9819 73.2607 52.4929 73.7462C52.4929 73.7462 55.4641 80.1597 55.1522 81.9722C56.2585 81.9365 57.3381 81.6584 58.2959 81.1622C59.2537 80.666 60.0604 79.9669 60.6449 79.1266C60.6449 79.1266 63.6536 81.5539 62.6397 83.8544C62.6397 83.8544 60.7654 85.7272 58.3878 85.6622C58.3878 85.6622 61.4698 88.0371 63.7316 87.9674C63.7316 87.9674 66.1495 89.6405 63.4196 89.9193C61.6182 90.0569 59.8082 90.0826 58.0028 89.9961C57.4862 89.9775 56.9805 89.8572 56.5218 89.6439C56.0631 89.4307 55.6626 89.1296 55.349 88.7622C53.9778 87.1518 51.4333 83.7401 48.5338 77.7882C48.3292 77.3843 48.2169 76.9479 48.2035 76.5047C48.1901 76.0615 48.2759 75.6203 48.4558 75.2071Z" fill="#020202"/>
<path d="M67.8368 80.2856C67.9214 80.972 67.9496 81.663 67.9212 82.3531C67.9103 82.7012 67.8742 83.0483 67.8133 83.3922C67.7582 83.744 67.6599 84.0893 67.5202 84.4219C67.4469 84.5947 67.3552 84.7609 67.2464 84.918C67.1811 84.9945 67.1105 85.0693 67.0411 85.1445C66.9719 85.2238 66.9253 85.2529 66.8763 85.3224C66.6845 85.5864 66.5484 85.8795 66.4747 86.1873C66.315 86.8307 66.2854 87.4946 66.3873 88.1474C66.4513 88.7836 66.7123 89.3912 67.1411 89.9021C67.2434 90.0113 67.3668 90.1033 67.5053 90.1737C67.5715 90.2075 67.6413 90.2354 67.7136 90.2567C67.7491 90.2686 67.7875 90.2721 67.8241 90.2809L67.9582 90.3081C68.3523 90.3899 68.7337 90.5147 69.0937 90.6797C69.7802 90.9425 70.5041 91.1193 71.2448 91.2051L71.8074 91.2793L72.3757 91.3298C72.7549 91.3642 73.1348 91.3962 73.5173 91.4093C75.0476 91.4862 76.5814 91.4889 78.112 91.4171C78.8781 91.39 79.6434 91.3378 80.4088 91.2981C81.1739 91.2521 81.9374 91.1802 82.7013 91.1189C85.7551 90.8524 88.8044 90.5503 91.8546 90.2584L91.5673 90.5013C91.5635 90.5181 91.5657 90.4726 91.5592 90.4495C91.5546 90.4188 91.5474 90.3885 91.5377 90.3587C91.517 90.2917 91.4887 90.2268 91.4533 90.1649C91.418 90.0974 91.3759 90.0328 91.3274 89.9721C91.282 89.906 91.2298 89.8438 91.1715 89.7863C91.056 89.6637 90.9318 89.5477 90.7996 89.4393C90.6532 89.3377 90.521 89.2251 90.3652 89.1308C89.7442 88.7363 89.076 88.4048 88.373 88.1424C88.0269 87.9927 87.6589 87.879 87.3028 87.7452L86.2036 87.3987C85.4531 87.1795 84.7094 86.9406 83.9681 86.6944C82.4715 86.2212 81.0214 85.6378 79.6326 84.9502C78.9307 84.6052 78.2799 84.1831 77.6952 83.6937C77.0915 83.2083 76.6945 82.5511 76.5715 81.8337C76.571 81.8299 76.5715 81.8261 76.5727 81.8224C76.5739 81.8188 76.5759 81.8154 76.5786 81.8124C76.5813 81.8095 76.5847 81.807 76.5884 81.8052C76.5922 81.8034 76.5963 81.8023 76.6006 81.8019C76.6087 81.8014 76.6168 81.8036 76.6233 81.808C76.6298 81.8124 76.6343 81.8188 76.6359 81.8259C76.8226 82.4996 77.2567 83.0978 77.8688 83.5247C78.4701 83.9616 79.1256 84.3353 79.8225 84.6383C81.229 85.2452 82.6802 85.7655 84.1661 86.1956C84.9078 86.4201 85.6582 86.6235 86.4052 86.8368L87.5381 87.1763C87.9096 87.3097 88.2891 87.421 88.6544 87.5731C89.4039 87.8553 90.1158 88.2114 90.777 88.6347C90.9474 88.7375 91.0995 88.871 91.2603 88.9885C91.4156 89.1203 91.5608 89.2611 91.6952 89.41C91.7667 89.4848 91.8309 89.5648 91.8873 89.6493C91.9505 89.7334 92.0055 89.8222 92.0518 89.9146C92.1031 90.0106 92.1435 90.1109 92.1725 90.2141C92.1887 90.2691 92.2002 90.3252 92.2072 90.3818C92.2179 90.4518 92.2184 90.5228 92.2086 90.5929C92.2008 90.6555 92.1691 90.7138 92.1188 90.7579C92.0685 90.802 92.0027 90.8292 91.9325 90.835L91.9212 90.8358C88.861 91.0846 85.7982 91.3166 82.7257 91.4271C81.958 91.4586 81.1914 91.5006 80.4228 91.5167C79.655 91.5434 78.8884 91.5861 78.1201 91.6018C76.5837 91.6361 75.0487 91.6949 73.5067 91.6837C73.1213 91.6891 72.7354 91.6755 72.349 91.6593L71.7691 91.636L71.1886 91.5871C70.3998 91.5351 69.6237 91.3807 68.8847 91.1289C68.557 90.9878 68.2116 90.8824 67.8559 90.8147L67.709 90.7861C67.6527 90.774 67.5949 90.7663 67.5403 90.7492C67.43 90.7178 67.3236 90.6764 67.2227 90.6257C67.0261 90.5275 66.8505 90.3991 66.7038 90.2464C66.4315 89.9577 66.2263 89.6234 66.1004 89.263C65.9747 88.9199 65.8895 88.5661 65.8464 88.2071C65.7519 87.4956 65.8013 86.7746 65.9923 86.0787C66.0855 85.7147 66.2636 85.3723 66.5148 85.074C66.5715 84.999 66.6794 84.9208 66.729 84.8653L66.8963 84.6998C66.9962 84.569 67.0822 84.4301 67.1531 84.285C67.4244 83.6599 67.5939 83.0033 67.6566 82.3352C67.7385 81.6559 67.777 80.9729 67.7719 80.2896C67.7717 80.2819 67.7749 80.2744 67.7808 80.2688C67.7868 80.2632 67.7949 80.26 67.8036 80.2598C67.8117 80.2597 67.8195 80.2624 67.8256 80.2671C67.8317 80.2718 67.8357 80.2784 67.8368 80.2856Z" fill="#020202"/>
<path d="M70.0496 84.064C70.0278 84.5215 70.1249 84.9774 70.3333 85.3957C70.4396 85.5941 70.5856 85.7735 70.764 85.925C70.9545 86.0857 71.159 86.2326 71.3755 86.3644C71.0981 86.3328 70.8331 86.2422 70.6029 86.1002C70.3618 85.9562 70.1681 85.7573 70.0419 85.524C69.9162 85.2929 69.8529 85.0388 69.8571 84.7819C69.8565 84.5323 69.9225 84.2862 70.0496 84.064Z" fill="#020202"/>
<path d="M66.8917 90.0435C66.8917 90.0435 65.0448 90.6167 66.0652 93.6143C66.0652 93.6143 65.9158 94.7297 70.3615 94.5206L92.7461 94.5467C92.7461 94.5467 94.403 91.2733 90.9617 90.6313L85.3422 91.0961C85.3422 91.0961 86.7405 88.1071 86.3505 87.1311C85.7516 86.2579 84.8457 85.587 83.7746 85.2232C82.7034 84.8595 81.5276 84.8235 80.4311 85.1209C80.4311 85.1209 80.6621 89.9172 76.5258 91.5566C76.5258 91.5566 70.4415 91.2828 66.8917 90.0435Z" fill="#020202"/>
<path d="M60.9967 70.7046C60.8864 70.7597 60.7728 70.812 60.6592 70.8642C60.6969 70.8153 60.7473 70.7752 60.8061 70.7474C60.8649 70.7197 60.9303 70.705 60.9967 70.7046Z" fill="white"/>
<path d="M89.1141 34.502C89.0877 35.3714 88.9941 36.2382 88.8338 37.0961C88.6842 37.9544 88.4734 38.8034 88.2283 39.6461C87.9741 40.4901 87.6507 41.3162 87.2607 42.1177L86.9402 42.7109C86.8195 42.9035 86.6904 43.0925 86.5653 43.2811C86.4347 43.4674 86.2716 43.6394 86.1239 43.8132C85.9591 43.9762 85.7816 44.1285 85.5928 44.269L85.79 43.9941C85.861 43.9084 85.9232 43.8171 85.9758 43.7214C86.0757 43.5249 86.1987 43.3456 86.2844 43.1458L86.5516 42.5546L86.7887 41.9519C87.0822 41.1406 87.353 40.3213 87.6014 39.4941L88.3394 37.0033C88.5836 36.17 88.83 35.3358 89.1141 34.502Z" fill="#020202"/>
<path d="M91.0894 47.1006C91.3316 47.7047 91.5512 48.3145 91.7772 48.9226C92.0065 49.53 92.2188 50.1415 92.4343 50.7523C92.8603 51.975 93.268 53.2022 93.6664 54.4317L93.5917 54.3145C94.2994 54.9523 95.0348 55.5763 95.767 56.1966C96.5024 56.8154 97.2487 57.4227 98.0057 58.0187C98.7657 58.6111 99.539 59.1889 100.344 59.728C101.126 60.2981 102.012 60.7429 102.963 61.0427C102.453 60.9847 101.956 60.8528 101.494 60.6522C101.025 60.4644 100.571 60.248 100.135 60.0044C99.2672 59.5195 98.4338 58.9866 97.6399 58.4089C96.8423 57.8383 96.0753 57.2363 95.328 56.6163C94.5781 55.9975 93.8584 55.3561 93.1497 54.6947L93.1465 54.6917C93.1122 54.6596 93.0876 54.6202 93.0749 54.5773C92.7129 53.3389 92.3601 52.0981 92.0257 50.8529C91.861 50.2296 91.6931 49.6072 91.5421 48.9805C91.3879 48.3547 91.2272 47.7304 91.0894 47.1006Z" fill="#020202"/>
<path d="M43.3819 50.0088C42.5368 51.7432 41.6673 53.468 40.7732 55.1829C39.8797 56.8981 38.9519 58.5994 37.99 60.2866C37.0183 61.9694 36.0333 63.6482 34.9172 65.2693C34.3703 66.0933 33.7638 66.8846 33.1016 67.638C32.9337 67.8309 32.7533 68.0149 32.5614 68.189L32.269 68.4531C32.1662 68.5381 32.0471 68.6142 31.9364 68.6945L31.7661 68.8122L31.5689 68.9102L31.3705 69.0063C31.2985 69.0331 31.2248 69.0559 31.1496 69.0744C31.0744 69.094 31 69.1179 30.9236 69.1321L30.6897 69.1534C30.5402 69.1629 30.3901 69.1607 30.241 69.1467C30.1998 69.1462 30.1592 69.1385 30.1213 69.124C30.0835 69.1094 30.0492 69.0883 30.0205 69.062C29.9625 69.0087 29.9305 68.937 29.9317 68.8627C29.9328 68.7883 29.9669 68.7174 30.0265 68.6656C30.0861 68.6137 30.1663 68.5852 30.2495 68.5862L30.2517 68.5862L30.2856 68.587C31.732 68.6275 33.1797 68.5774 34.6183 68.4371C35.3384 68.37 36.0492 68.2586 36.7561 68.1333C37.4568 67.9994 38.1421 67.8079 38.8034 67.5613C38.9697 67.5058 39.1307 67.4384 39.285 67.3598C39.4393 67.2836 39.5995 67.2138 39.7501 67.1324L40.6255 66.5596C41.2388 66.1588 41.9525 65.8983 42.7044 65.8008C43.4445 65.711 44.1969 65.7474 44.9218 65.9081C45.6395 66.0576 46.3277 66.3032 46.9632 66.6367C46.3072 66.352 45.6103 66.1497 44.8924 66.0355C44.1847 65.9142 43.4577 65.9138 42.7498 66.0344C42.0555 66.162 41.4038 66.4319 40.8462 66.823L39.9765 67.4395C39.8188 67.5327 39.6528 67.613 39.4908 67.7003C39.4088 67.7422 39.3285 67.7881 39.2449 67.8266L38.9883 67.9297C37.6189 68.4562 36.169 68.7963 34.6868 68.9385C33.9534 69.0271 33.2169 69.0817 32.4796 69.1176C31.7406 69.1544 31.0075 69.1677 30.2589 69.1479L30.3035 68.5881C31.2242 68.7156 31.9558 67.9688 32.6007 67.2733C32.7678 67.0997 32.9202 66.9118 33.0704 66.7211C33.221 66.5312 33.3798 66.3478 33.524 66.1525C33.8068 65.7579 34.1075 65.3758 34.3759 64.9711C35.4793 63.3723 36.4976 61.7173 37.4981 60.0557C38.502 58.3948 39.479 56.7193 40.4528 55.0416L41.9172 52.5258C42.3999 51.6846 42.8853 50.8444 43.3819 50.0088Z" fill="#020202"/>
<path d="M91.3323 58.3818C88.9114 57.0138 86.5718 55.5342 84.3231 53.9488C82.8116 50.8409 83.4769 43.8936 83.4769 43.8936C83.4769 43.8936 93.5057 43.5742 91.3323 58.3818Z" fill="#020202"/>
<path d="M129.808 83.1758H107.15L107.908 86.682H129.051L129.808 83.1758Z" fill="black"/>
<path d="M110.053 94.0108L111.757 90.7286C111.76 90.7226 111.765 90.7172 111.77 90.7127C111.775 90.7083 111.782 90.7048 111.789 90.7025C111.796 90.7003 111.803 90.6992 111.81 90.6995C111.818 90.6998 111.825 90.7014 111.832 90.7042C111.844 90.7097 111.855 90.7192 111.86 90.7308L113.438 93.9773L113.259 93.9824L114.503 90.7136C114.508 90.6997 114.517 90.6869 114.528 90.6759C114.538 90.6649 114.552 90.6558 114.566 90.6494C114.581 90.6429 114.597 90.639 114.613 90.6381C114.63 90.6372 114.646 90.6391 114.662 90.6438C114.679 90.6494 114.695 90.6584 114.709 90.67C114.722 90.6817 114.732 90.6958 114.739 90.7113L116.117 93.966L115.85 93.9656L117.218 90.7023C117.225 90.6855 117.236 90.6701 117.249 90.6571C117.263 90.644 117.28 90.6334 117.298 90.626C117.316 90.6186 117.336 90.6145 117.356 90.6138C117.376 90.6132 117.396 90.6162 117.414 90.6224C117.451 90.6349 117.481 90.659 117.498 90.6901L119.304 93.9467L119.003 93.9701L120.078 90.7123C120.089 90.6776 120.116 90.6483 120.151 90.6308C120.186 90.6134 120.228 90.6093 120.267 90.6193C120.289 90.6251 120.309 90.6353 120.326 90.6489C120.343 90.6626 120.357 90.6795 120.365 90.6983L121.867 93.9619L121.6 93.9706L122.827 90.7155C122.832 90.7016 122.84 90.6888 122.85 90.6777C122.861 90.6666 122.874 90.6575 122.888 90.6508C122.903 90.6442 122.919 90.6402 122.935 90.639C122.951 90.6379 122.968 90.6396 122.983 90.6441C123 90.6491 123.015 90.6573 123.028 90.6679C123.041 90.6785 123.052 90.6915 123.059 90.7059L124.629 93.977L124.455 93.9809L125.874 90.7335C125.877 90.7276 125.88 90.7222 125.885 90.7175C125.89 90.7129 125.896 90.7091 125.902 90.7065C125.908 90.7038 125.915 90.7023 125.922 90.702C125.929 90.7017 125.936 90.7027 125.943 90.7048C125.951 90.7076 125.958 90.712 125.964 90.7176C125.97 90.7232 125.974 90.7299 125.976 90.7372L126.976 94.0108L125.873 90.7638L125.975 90.7675L124.631 94.0405C124.625 94.0562 124.613 94.0697 124.598 94.0795C124.583 94.0893 124.565 94.0948 124.546 94.0954C124.528 94.096 124.509 94.0916 124.494 94.0829C124.478 94.0741 124.465 94.0613 124.458 94.0461L124.457 94.0445L122.831 90.7951L123.063 90.7855L121.87 94.0508C121.859 94.0829 121.833 94.1095 121.8 94.1248C121.766 94.1401 121.727 94.1428 121.691 94.1323C121.671 94.1264 121.653 94.1169 121.638 94.1043C121.623 94.0917 121.611 94.0765 121.603 94.0595L120.084 90.8026L120.371 90.7887L119.314 94.0513C119.305 94.0794 119.287 94.1044 119.262 94.1229C119.236 94.1415 119.206 94.1528 119.173 94.1553C119.14 94.1578 119.108 94.1515 119.079 94.1371C119.051 94.1228 119.028 94.101 119.013 94.0748L117.224 90.8108L117.504 90.7987L116.117 94.0558C116.111 94.0715 116.101 94.0859 116.088 94.0982C116.075 94.1104 116.06 94.1203 116.043 94.1273C116.026 94.1343 116.007 94.1382 115.989 94.1388C115.97 94.1394 115.951 94.1367 115.934 94.1309C115.915 94.1243 115.897 94.1141 115.883 94.1011C115.868 94.0881 115.857 94.0725 115.85 94.0554L114.504 90.7897L114.74 90.7874L113.441 94.039L113.44 94.0404C113.434 94.0567 113.422 94.0708 113.406 94.081C113.39 94.0911 113.371 94.0967 113.352 94.0972C113.333 94.0976 113.314 94.0927 113.298 94.0832C113.281 94.0738 113.269 94.0601 113.261 94.0441L111.756 90.7701L111.859 90.7724L110.053 94.0108Z" fill="black"/>
<path d="M106.856 81.6119L108.917 76.9424C108.922 76.9306 108.931 76.9205 108.942 76.9132C108.954 76.906 108.968 76.902 108.982 76.9018C108.996 76.9015 109.01 76.905 109.022 76.9118C109.034 76.9186 109.043 76.9284 109.049 76.9399L109.05 76.9417C109.807 78.4807 110.556 80.0226 111.298 81.5675L111.06 81.5744L112.835 76.9179C112.846 76.8891 112.867 76.8641 112.894 76.8461C112.922 76.8282 112.955 76.8182 112.989 76.8177C113.023 76.8171 113.056 76.8259 113.084 76.8429C113.113 76.8599 113.134 76.8843 113.147 76.9127L113.147 76.9149L115.11 81.5526L114.755 81.552L116.706 76.9029C116.715 76.8806 116.729 76.8603 116.747 76.8429C116.765 76.8256 116.787 76.8116 116.811 76.8018C116.836 76.792 116.862 76.7865 116.888 76.7857C116.915 76.7849 116.941 76.7888 116.966 76.7972C117.014 76.8135 117.054 76.8455 117.076 76.8868L119.649 81.5269L119.251 81.558L120.781 76.9161C120.796 76.8701 120.831 76.8313 120.878 76.8082C120.924 76.7851 120.98 76.7796 121.031 76.7929C121.06 76.8007 121.087 76.8141 121.11 76.8322C121.132 76.8503 121.15 76.8727 121.162 76.8977L123.302 81.5472L122.948 81.5587L124.694 76.9204L124.695 76.9188C124.706 76.8906 124.726 76.8659 124.752 76.8481C124.779 76.8302 124.811 76.82 124.844 76.8188C124.877 76.8176 124.91 76.8254 124.938 76.8413C124.967 76.8572 124.989 76.8803 125.002 76.9076L127.242 81.5671L127.011 81.5723C127.676 80.0269 128.35 78.4845 129.033 76.9452L129.033 76.9437C129.04 76.9288 129.053 76.9168 129.069 76.9104C129.086 76.904 129.105 76.9037 129.121 76.9096C129.132 76.9134 129.141 76.9195 129.149 76.9273C129.156 76.9351 129.161 76.9444 129.163 76.9544L130.172 81.6119L129.03 76.9791L129.16 76.9883C128.527 78.5446 127.889 80.0989 127.244 81.6513C127.233 81.679 127.209 81.7014 127.179 81.7137C127.149 81.7259 127.115 81.727 127.084 81.7167C127.053 81.7057 127.027 81.6841 127.013 81.6566L124.7 77.0259L125.007 77.0132L123.307 81.665C123.291 81.7075 123.257 81.7427 123.213 81.763C123.168 81.7832 123.116 81.7868 123.069 81.7729C123.043 81.7651 123.019 81.7524 122.999 81.7358C122.979 81.7192 122.963 81.6989 122.953 81.6764L120.788 77.0359L121.169 77.0174L119.663 81.6657C119.651 81.7029 119.626 81.7359 119.593 81.7605C119.56 81.7851 119.519 81.8 119.475 81.8034C119.432 81.8068 119.389 81.7984 119.351 81.7793C119.314 81.7603 119.283 81.7315 119.264 81.6967L116.714 77.0467L117.084 77.0307L115.11 81.6717C115.101 81.6925 115.088 81.7115 115.071 81.7278C115.054 81.744 115.034 81.7571 115.011 81.7663C114.989 81.7756 114.964 81.7807 114.939 81.7815C114.915 81.7823 114.89 81.7787 114.866 81.771C114.841 81.7623 114.818 81.7489 114.799 81.7317C114.78 81.7145 114.765 81.6938 114.755 81.6711L112.836 77.0187L113.149 77.0156L111.3 81.6493C111.295 81.6634 111.287 81.6765 111.276 81.6876C111.265 81.6988 111.251 81.708 111.236 81.7145C111.221 81.7211 111.205 81.725 111.188 81.7259C111.171 81.7268 111.155 81.7248 111.139 81.7199C111.122 81.7145 111.107 81.7061 111.094 81.6951C111.08 81.6841 111.07 81.6709 111.063 81.6562C110.34 80.1044 109.624 78.5497 108.917 76.9919L109.05 76.9912L106.856 81.6119Z" fill="black"/>
<path d="M110.11 88.8093C110.236 88.8054 110.355 88.7579 110.443 88.6767C110.531 88.5955 110.58 88.487 110.58 88.3741C110.58 88.2613 110.531 88.1528 110.443 88.0716C110.355 87.9904 110.236 87.9429 110.11 87.939C109.983 87.9429 109.864 87.9904 109.776 88.0716C109.688 88.1528 109.639 88.2613 109.639 88.3741C109.639 88.487 109.688 88.5955 109.776 88.6767C109.864 88.7579 109.983 88.8054 110.11 88.8093Z" fill="black"/>
<path d="M113.36 88.8093C113.486 88.8054 113.606 88.7579 113.694 88.6767C113.781 88.5955 113.83 88.487 113.83 88.3741C113.83 88.2613 113.781 88.1528 113.694 88.0716C113.606 87.9904 113.486 87.9429 113.36 87.939C113.234 87.9429 113.114 87.9904 113.026 88.0716C112.939 88.1528 112.89 88.2613 112.89 88.3741C112.89 88.487 112.939 88.5955 113.026 88.6767C113.114 88.7579 113.234 88.8054 113.36 88.8093Z" fill="black"/>
<path d="M116.609 88.8093C116.735 88.8054 116.854 88.7579 116.942 88.6767C117.03 88.5955 117.079 88.487 117.079 88.3741C117.079 88.2613 117.03 88.1528 116.942 88.0716C116.854 87.9904 116.735 87.9429 116.609 87.939C116.482 87.9429 116.363 87.9904 116.275 88.0716C116.187 88.1528 116.138 88.2613 116.138 88.3741C116.138 88.487 116.187 88.5955 116.275 88.6767C116.363 88.7579 116.482 88.8054 116.609 88.8093Z" fill="black"/>
<path d="M119.859 88.8093C119.985 88.8054 120.105 88.7579 120.193 88.6767C120.28 88.5955 120.329 88.487 120.329 88.3741C120.329 88.2613 120.28 88.1528 120.193 88.0716C120.105 87.9904 119.985 87.9429 119.859 87.939C119.733 87.9429 119.613 87.9904 119.525 88.0716C119.438 88.1528 119.389 88.2613 119.389 88.3741C119.389 88.487 119.438 88.5955 119.525 88.6767C119.613 88.7579 119.733 88.8054 119.859 88.8093Z" fill="black"/>
<path d="M123.109 88.8093C123.235 88.8054 123.354 88.7579 123.442 88.6767C123.53 88.5955 123.579 88.487 123.579 88.3741C123.579 88.2613 123.53 88.1528 123.442 88.0716C123.354 87.9904 123.235 87.9429 123.109 87.939C122.982 87.9429 122.863 87.9904 122.775 88.0716C122.687 88.1528 122.638 88.2613 122.638 88.3741C122.638 88.487 122.687 88.5955 122.775 88.6767C122.863 88.7579 122.982 88.8054 123.109 88.8093Z" fill="black"/>
<path d="M126.358 88.8093C126.484 88.8054 126.604 88.7579 126.692 88.6767C126.779 88.5955 126.828 88.487 126.828 88.3741C126.828 88.2613 126.779 88.1528 126.692 88.0716C126.604 87.9904 126.484 87.9429 126.358 87.939C126.232 87.9429 126.112 87.9904 126.024 88.0716C125.937 88.1528 125.888 88.2613 125.888 88.3741C125.888 88.487 125.937 88.5955 126.024 88.6767C126.112 88.7579 126.232 88.8054 126.358 88.8093Z" fill="black"/>
<path d="M60.9967 70.7046C60.8864 70.7597 60.7728 70.812 60.6592 70.8642C60.6969 70.8153 60.7473 70.7752 60.8061 70.7474C60.8649 70.7197 60.9303 70.705 60.9967 70.7046Z" fill="white"/>
<path d="M69.3771 46.8943C69.5033 46.8904 69.6229 46.8428 69.7107 46.7616C69.7984 46.6805 69.8475 46.572 69.8475 46.4591C69.8475 46.3462 69.7984 46.2377 69.7107 46.1566C69.6229 46.0754 69.5033 46.0278 69.3771 46.0239C69.2509 46.0278 69.1313 46.0754 69.0435 46.1566C68.9558 46.2377 68.9067 46.3462 68.9067 46.4591C68.9067 46.572 68.9558 46.6805 69.0435 46.7616C69.1313 46.8428 69.2509 46.8904 69.3771 46.8943Z" fill="#020202"/>
<path d="M71.7955 46.9646C71.9217 46.9607 72.0413 46.9131 72.129 46.8319C72.2168 46.7508 72.2658 46.6423 72.2658 46.5294C72.2658 46.4165 72.2168 46.3081 72.129 46.2269C72.0413 46.1457 71.9217 46.0981 71.7955 46.0942C71.6693 46.0981 71.5497 46.1457 71.462 46.2269C71.3742 46.3081 71.3252 46.4165 71.3252 46.5294C71.3252 46.6423 71.3742 46.7508 71.462 46.8319C71.5497 46.9131 71.6693 46.9607 71.7955 46.9646Z" fill="#020202"/>
<path d="M74.0563 47.1741C74.1825 47.1702 74.3021 47.1226 74.3899 47.0414C74.4776 46.9602 74.5267 46.8518 74.5267 46.7389C74.5267 46.626 74.4776 46.5175 74.3899 46.4363C74.3021 46.3552 74.1825 46.3076 74.0563 46.3037C73.9301 46.3076 73.8105 46.3552 73.7227 46.4363C73.635 46.5175 73.5859 46.626 73.5859 46.7389C73.5859 46.8518 73.635 46.9602 73.7227 47.0414C73.8105 47.1226 73.9301 47.1702 74.0563 47.1741Z" fill="#020202"/>
<path d="M76.318 47.2434C76.4442 47.2395 76.5638 47.1919 76.6515 47.1107C76.7392 47.0296 76.7883 46.9211 76.7883 46.8082C76.7883 46.6953 76.7392 46.5869 76.6515 46.5057C76.5638 46.4245 76.4442 46.377 76.318 46.373C76.1918 46.377 76.0722 46.4245 75.9844 46.5057C75.8967 46.5869 75.8477 46.6953 75.8477 46.8082C75.8477 46.9211 75.8967 47.0296 75.9844 47.1107C76.0722 47.1919 76.1918 47.2395 76.318 47.2434Z" fill="#020202"/>
<path d="M78.8136 47.0334C78.9398 47.0295 79.0594 46.982 79.1472 46.9008C79.2349 46.8196 79.284 46.7111 79.284 46.5983C79.284 46.4854 79.2349 46.3769 79.1472 46.2957C79.0594 46.2145 78.9398 46.167 78.8136 46.1631C78.6874 46.167 78.5678 46.2145 78.4801 46.2957C78.3923 46.3769 78.3433 46.4854 78.3433 46.5983C78.3433 46.7111 78.3923 46.8196 78.4801 46.9008C78.5678 46.982 78.6874 47.0295 78.8136 47.0334Z" fill="#020202"/>
<path d="M81.3097 46.6863C81.4359 46.6824 81.5555 46.6348 81.6433 46.5536C81.731 46.4724 81.7801 46.364 81.7801 46.2511C81.7801 46.1382 81.731 46.0297 81.6433 45.9486C81.5555 45.8674 81.4359 45.8198 81.3097 45.8159C81.1835 45.8198 81.0639 45.8674 80.9762 45.9486C80.8884 46.0297 80.8394 46.1382 80.8394 46.2511C80.8394 46.364 80.8884 46.4724 80.9762 46.5536C81.0639 46.6348 81.1835 46.6824 81.3097 46.6863Z" fill="#020202"/>
<path d="M90.0455 46.4763C90.1717 46.4724 90.2913 46.4248 90.3791 46.3436C90.4668 46.2625 90.5158 46.154 90.5158 46.0411C90.5158 45.9283 90.4668 45.8198 90.3791 45.7386C90.2913 45.6574 90.1717 45.6099 90.0455 45.606C89.9193 45.6099 89.7997 45.6574 89.712 45.7386C89.6242 45.8198 89.5752 45.9283 89.5752 46.0411C89.5752 46.154 89.6242 46.2625 89.712 46.3436C89.7997 46.4248 89.9193 46.4724 90.0455 46.4763Z" fill="#020202"/>
<path d="M69.0654 44.3279C69.604 44.3774 70.1406 44.4316 70.6792 44.4694C71.2162 44.5169 71.7537 44.5602 72.2919 44.5915C73.3672 44.6588 74.4423 44.7301 75.5188 44.7362C76.5937 44.7692 77.6698 44.7535 78.7429 44.689C79.0123 44.6828 79.2783 44.6509 79.5459 44.6287C79.8137 44.606 80.0817 44.583 80.3458 44.5391C80.6106 44.5 80.881 44.4788 81.1431 44.4248C81.405 44.37 81.6688 44.3181 81.9346 44.269C80.912 44.5998 79.8474 44.8156 78.7652 44.9116C78.4952 44.9378 78.2245 44.9623 77.9535 44.9811L77.1396 45.0131C76.597 45.03 76.0542 45.0344 75.5112 45.0262C74.4264 44.9957 73.3438 44.9282 72.2678 44.8129C71.1914 44.7026 70.1224 44.5407 69.0654 44.3279Z" fill="#020202"/>
<path d="M52.5495 39.4529C52.6757 39.449 52.7953 39.4014 52.883 39.3202C52.9708 39.2391 53.0198 39.1306 53.0198 39.0177C53.0198 38.9048 52.9708 38.7963 52.883 38.7152C52.7953 38.634 52.6757 38.5864 52.5495 38.5825C52.4232 38.5864 52.3037 38.634 52.2159 38.7152C52.1281 38.7963 52.0791 38.9048 52.0791 39.0177C52.0791 39.1306 52.1281 39.2391 52.2159 39.3202C52.3037 39.4014 52.4232 39.449 52.5495 39.4529Z" fill="#020202"/>
<path d="M54.7145 40.761C54.8407 40.7571 54.9603 40.7095 55.0481 40.6283C55.1358 40.5472 55.1849 40.4387 55.1849 40.3258C55.1849 40.2129 55.1358 40.1044 55.0481 40.0233C54.9603 39.9421 54.8407 39.8945 54.7145 39.8906C54.5883 39.8945 54.4687 39.9421 54.3809 40.0233C54.2932 40.1044 54.2441 40.2129 54.2441 40.3258C54.2441 40.4387 54.2932 40.5472 54.3809 40.6283C54.4687 40.7095 54.5883 40.7571 54.7145 40.761Z" fill="#020202"/>
<path d="M56.9957 42.2239C57.122 42.22 57.2416 42.1724 57.3293 42.0912C57.4171 42.01 57.4661 41.9016 57.4661 41.7887C57.4661 41.6758 57.4171 41.5673 57.3293 41.4861C57.2416 41.405 57.122 41.3574 56.9957 41.3535C56.8695 41.3574 56.7499 41.405 56.6622 41.4861C56.5744 41.5673 56.5254 41.6758 56.5254 41.7887C56.5254 41.9016 56.5744 42.01 56.6622 42.0912C56.7499 42.1724 56.8695 42.22 56.9957 42.2239Z" fill="#020202"/>
<path d="M59.1007 43.5315C59.2269 43.5276 59.3465 43.48 59.4342 43.3988C59.522 43.3176 59.571 43.2092 59.571 43.0963C59.571 42.9834 59.522 42.875 59.4342 42.7938C59.3465 42.7126 59.2269 42.665 59.1007 42.6611C58.9745 42.665 58.8549 42.7126 58.7672 42.7938C58.6794 42.875 58.6304 42.9834 58.6304 43.0963C58.6304 43.2092 58.6794 43.3176 58.7672 43.3988C58.8549 43.48 58.9745 43.5276 59.1007 43.5315Z" fill="#020202"/>
<path d="M61.4991 44.7341C61.6253 44.7302 61.7449 44.6827 61.8327 44.6015C61.9204 44.5203 61.9694 44.4118 61.9694 44.2989C61.9694 44.1861 61.9204 44.0776 61.8327 43.9964C61.7449 43.9152 61.6253 43.8677 61.4991 43.8638C61.3729 43.8677 61.2533 43.9152 61.1656 43.9964C61.0779 44.0776 61.0288 44.1861 61.0288 44.2989C61.0288 44.4118 61.0779 44.5203 61.1656 44.6015C61.2533 44.6827 61.3729 44.7302 61.4991 44.7341Z" fill="#020202"/>
<path d="M63.9562 45.9363C64.0824 45.9324 64.202 45.8848 64.2898 45.8036C64.3775 45.7225 64.4266 45.614 64.4266 45.5011C64.4266 45.3882 64.3775 45.2797 64.2898 45.1986C64.202 45.1174 64.0824 45.0698 63.9562 45.0659C63.83 45.0698 63.7104 45.1174 63.6226 45.1986C63.5349 45.2797 63.4858 45.3882 63.4858 45.5011C63.4858 45.614 63.5349 45.7225 63.6226 45.8036C63.7104 45.8848 63.83 45.9324 63.9562 45.9363Z" fill="#020202"/>
<path d="M34.045 68.2263C34.1712 68.2224 34.2908 68.1748 34.3786 68.0937C34.4663 68.0125 34.5153 67.904 34.5153 67.7911C34.5153 67.6783 34.4663 67.5698 34.3786 67.4886C34.2908 67.4074 34.1712 67.3599 34.045 67.356C33.9188 67.3599 33.7992 67.4074 33.7115 67.4886C33.6237 67.5698 33.5747 67.6783 33.5747 67.7911C33.5747 67.904 33.6237 68.0125 33.7115 68.0937C33.7992 68.1748 33.9188 68.2224 34.045 68.2263Z" fill="#020202"/>
<path d="M36.463 67.6692C36.5892 67.6653 36.7088 67.6177 36.7965 67.5365C36.8843 67.4554 36.9333 67.3469 36.9333 67.234C36.9333 67.1211 36.8843 67.0127 36.7965 66.9315C36.7088 66.8503 36.5892 66.8027 36.463 66.7988C36.3368 66.8027 36.2172 66.8503 36.1295 66.9315C36.0417 67.0127 35.9927 67.1211 35.9927 67.234C35.9927 67.3469 36.0417 67.4554 36.1295 67.5365C36.2172 67.6177 36.3368 67.6653 36.463 67.6692Z" fill="#020202"/>
<path d="M38.8805 66.8332C39.0067 66.8293 39.1263 66.7818 39.2141 66.7006C39.3018 66.6194 39.3509 66.5109 39.3509 66.3981C39.3509 66.2852 39.3018 66.1767 39.2141 66.0955C39.1263 66.0143 39.0067 65.9668 38.8805 65.9629C38.7543 65.9668 38.6347 66.0143 38.547 66.0955C38.4592 66.1767 38.4102 66.2852 38.4102 66.3981C38.4102 66.5109 38.4592 66.6194 38.547 66.7006C38.6347 66.7818 38.7543 66.8293 38.8805 66.8332Z" fill="#020202"/>
<path d="M40.9859 65.5085C41.1122 65.5046 41.2317 65.4571 41.3195 65.3759C41.4072 65.2947 41.4563 65.1862 41.4563 65.0734C41.4563 64.9605 41.4072 64.852 41.3195 64.7708C41.2317 64.6896 41.1122 64.6421 40.9859 64.6382C40.8597 64.6421 40.7401 64.6896 40.6524 64.7708C40.5647 64.852 40.5156 64.9605 40.5156 65.0734C40.5156 65.1862 40.5647 65.2947 40.6524 65.3759C40.7401 65.4571 40.8597 65.5046 40.9859 65.5085Z" fill="#020202"/>
<path d="M43.5602 65.2981C43.6864 65.2942 43.806 65.2467 43.8938 65.1655C43.9815 65.0843 44.0306 64.9758 44.0306 64.8629C44.0306 64.75 43.9815 64.6416 43.8938 64.5604C43.806 64.4792 43.6864 64.4316 43.5602 64.4277C43.434 64.4316 43.3144 64.4792 43.2266 64.5604C43.1389 64.6416 43.0898 64.75 43.0898 64.8629C43.0898 64.9758 43.1389 65.0843 43.2266 65.1655C43.3144 65.2467 43.434 65.2942 43.5602 65.2981Z" fill="#020202"/>
</svg>
