<svg width="24" height="24" viewBox="0 0 24 24" fill="none" xmlns="http://www.w3.org/2000/svg">
<rect width="24" height="24" fill="white"/>
<path d="M14 11.0001H13V10.0001C13 9.73488 12.8947 9.48052 12.7071 9.29299C12.5196 9.10545 12.2652 9.00009 12 9.00009C11.7348 9.00009 11.4805 9.10545 11.2929 9.29299C11.1054 9.48052 11 9.73488 11 10.0001V11.0001H10C9.73481 11.0001 9.48046 11.1054 9.29292 11.293C9.10539 11.4805 9.00003 11.7349 9.00003 12.0001C9.00003 12.2653 9.10539 12.5197 9.29292 12.7072C9.48046 12.8947 9.73481 13.0001 10 13.0001H11V14.0001C11 14.2653 11.1054 14.5197 11.2929 14.7072C11.4805 14.8947 11.7348 15.0001 12 15.0001C12.2652 15.0001 12.5196 14.8947 12.7071 14.7072C12.8947 14.5197 13 14.2653 13 14.0001V13.0001H14C14.2652 13.0001 14.5196 12.8947 14.7071 12.7072C14.8947 12.5197 15 12.2653 15 12.0001C15 11.7349 14.8947 11.4805 14.7071 11.293C14.5196 11.1054 14.2652 11.0001 14 11.0001ZM20.16 5.00009C19.0937 3.9448 17.6854 3.30536 16.1891 3.19717C14.6928 3.08899 13.207 3.51917 12 4.41009C10.7277 3.46373 9.14402 3.0346 7.56795 3.20913C5.99188 3.38366 4.54047 4.14887 3.506 5.35068C2.47154 6.55248 1.93085 8.10161 1.99283 9.68611C2.05481 11.2706 2.71485 12.7728 3.84003 13.8901L9.84003 19.9401C10.4025 20.5019 11.165 20.8175 11.96 20.8175C12.755 20.8175 13.5175 20.5019 14.08 19.9401L20.08 13.8901C20.671 13.3127 21.142 12.6243 21.466 11.8643C21.79 11.1044 21.9606 10.2878 21.968 9.46172C21.9755 8.6356 21.8196 7.81615 21.5093 7.05047C21.199 6.28479 20.7405 5.58799 20.16 5.00009ZM18.75 12.4601L12.75 18.4601C12.6571 18.5538 12.5465 18.6282 12.4246 18.679C12.3027 18.7298 12.172 18.7559 12.04 18.7559C11.908 18.7559 11.7773 18.7298 11.6555 18.679C11.5336 18.6282 11.423 18.5538 11.33 18.4601L5.33003 12.4601C4.54579 11.6584 4.10664 10.5816 4.10664 9.46009C4.10664 8.33863 4.54579 7.26175 5.33003 6.46009C6.12919 5.67108 7.207 5.22866 8.33003 5.22866C9.45306 5.22866 10.5309 5.67108 11.33 6.46009C11.423 6.55382 11.5336 6.62821 11.6555 6.67898C11.7773 6.72975 11.908 6.75589 12.04 6.75589C12.172 6.75589 12.3027 6.72975 12.4246 6.67898C12.5465 6.62821 12.6571 6.55382 12.75 6.46009C13.5492 5.67108 14.627 5.22866 15.75 5.22866C16.8731 5.22866 17.9509 5.67108 18.75 6.46009C19.5403 7.26264 19.9832 8.34378 19.9832 9.47009C19.9832 10.5964 19.5403 11.6775 18.75 12.4801V12.4601Z" fill="#66BB6A"/>
</svg>
