<svg width="20" height="20" viewBox="0 0 20 20" fill="none" xmlns="http://www.w3.org/2000/svg">
<path d="M11.6667 9.16668H10.8334V8.33335C10.8334 8.11233 10.7456 7.90037 10.5893 7.74409C10.433 7.58781 10.2211 7.50002 10.0001 7.50002C9.77905 7.50002 9.56709 7.58781 9.41081 7.74409C9.25453 7.90037 9.16673 8.11233 9.16673 8.33335V9.16668H8.3334C8.11239 9.16668 7.90043 9.25448 7.74414 9.41076C7.58786 9.56704 7.50007 9.779 7.50007 10C7.50007 10.221 7.58786 10.433 7.74414 10.5893C7.90043 10.7456 8.11239 10.8333 8.3334 10.8333H9.16673V11.6667C9.16673 11.8877 9.25453 12.0997 9.41081 12.2559C9.56709 12.4122 9.77905 12.5 10.0001 12.5C10.2211 12.5 10.433 12.4122 10.5893 12.2559C10.7456 12.0997 10.8334 11.8877 10.8334 11.6667V10.8333H11.6667C11.8877 10.8333 12.0997 10.7456 12.256 10.5893C12.4123 10.433 12.5001 10.221 12.5001 10C12.5001 9.779 12.4123 9.56704 12.256 9.41076C12.0997 9.25448 11.8877 9.16668 11.6667 9.16668ZM16.8001 4.16668C15.9115 3.28727 14.7378 2.75441 13.4909 2.66425C12.244 2.57409 11.0059 2.93258 10.0001 3.67502C8.93978 2.88638 7.62006 2.52878 6.30667 2.67421C4.99327 2.81965 3.78377 3.45733 2.92171 4.45884C2.05966 5.46034 1.60909 6.75128 1.66073 8.07169C1.71238 9.39211 2.26242 10.6439 3.20007 11.575L8.20007 16.6167C8.66882 17.0848 9.30423 17.3478 9.96673 17.3478C10.6292 17.3478 11.2647 17.0848 11.7334 16.6167L16.7334 11.575C17.2258 11.0939 17.6184 10.5202 17.8884 9.88688C18.1584 9.25357 18.3006 8.57314 18.3067 7.88471C18.3129 7.19627 18.183 6.5134 17.9245 5.87533C17.6659 5.23727 17.2838 4.65659 16.8001 4.16668ZM15.6251 10.3833L10.6251 15.3833C10.5476 15.4615 10.4554 15.5234 10.3539 15.5658C10.2523 15.6081 10.1434 15.6298 10.0334 15.6298C9.92339 15.6298 9.81447 15.6081 9.71292 15.5658C9.61137 15.5234 9.5192 15.4615 9.44173 15.3833L4.44173 10.3833C3.7882 9.7153 3.42224 8.8179 3.42224 7.88335C3.42224 6.94879 3.7882 6.05139 4.44173 5.38335C5.1077 4.72584 6.00588 4.35716 6.94173 4.35716C7.87759 4.35716 8.77577 4.72584 9.44173 5.38335C9.5192 5.46146 9.61137 5.52345 9.71292 5.56576C9.81447 5.60807 9.92339 5.62985 10.0334 5.62985C10.1434 5.62985 10.2523 5.60807 10.3539 5.56576C10.4554 5.52345 10.5476 5.46146 10.6251 5.38335C11.291 4.72584 12.1892 4.35716 13.1251 4.35716C14.0609 4.35716 14.9591 4.72584 15.6251 5.38335C16.2836 6.05214 16.6527 6.95308 16.6527 7.89168C16.6527 8.83028 16.2836 9.73123 15.6251 10.4V10.3833Z" fill="#0B7D6C"/>
</svg>
