<svg width="320" height="168" viewBox="0 0 320 168" fill="none" xmlns="http://www.w3.org/2000/svg">
<rect width="320" height="168" fill="#FCFEFF"/>
<rect width="320" height="168" fill="url(#paint0_linear)"/>
<path fill-rule="evenodd" clip-rule="evenodd" d="M215.236 139.472C218.851 136.893 228.014 134.193 222.013 131.743C216.034 129.301 200.288 127.612 184.893 127.082C170.247 126.578 157.006 128.541 142.304 128.997C130.803 129.354 118.29 128.56 107.93 129.472C97.4556 130.394 93.0571 132.429 85.6712 133.98C76.906 135.821 64.0463 137.2 60.3083 139.472C56.2185 141.958 54.3628 145.065 64.168 147.05C74.2164 149.083 94.0211 148.292 108.664 149.259C120.642 150.051 129.758 151.729 142.304 152.212C156.819 152.772 173.866 153.645 186.218 152.248C198.685 150.837 197.58 147.711 202.939 145.352C207.424 143.378 212.353 141.529 215.236 139.472Z" fill="#A9D9FF"/>
<path d="M145.98 121.732L145.188 105.692C144.942 104.272 144.722 102.853 144.489 101.433L143.831 97.1695C143.393 94.3252 142.988 91.4782 142.581 88.6285C142.184 85.7788 141.789 82.9291 141.423 80.0767L140.875 75.7941C140.716 74.4313 140.544 73.0712 140.396 71.7084C140.265 71.6679 140.137 71.6275 140.009 71.5816L140.004 71.6248L139.971 72.0242C139.948 72.2886 139.94 72.5558 139.93 72.8229C139.901 73.3546 139.894 73.8889 139.878 74.4232C139.86 75.4892 139.853 76.5578 139.85 77.6264C139.837 79.761 139.84 81.8974 139.858 84.0356C139.881 88.3074 139.901 92.5793 139.948 96.8511L140.032 109.672L140.063 116.081V122.49C144.899 122.034 145.98 121.732 145.98 121.732ZM154.368 76.7764C154.044 76.3055 153.784 75.7886 153.597 75.2409C153.397 74.7012 153.226 74.1507 153.07 73.5948C152.757 72.4856 152.509 71.3603 152.283 70.2323C152.063 69.0989 151.866 67.9655 151.707 66.824C151.54 65.6825 151.412 64.5365 151.32 63.386C151.32 63.386 149.42 62.2068 148.892 61.6508C148.521 61.2596 147.842 61.2163 147.47 61.2271C147.36 61.2334 147.249 61.2145 147.146 61.1717C147.043 61.1288 146.95 61.0631 146.874 60.9789C146.828 60.9389 146.793 60.8876 146.772 60.8296C146.75 60.7717 146.743 60.709 146.75 60.6472C146.758 60.5855 146.78 60.5267 146.814 60.4762C146.849 60.4257 146.895 60.3851 146.948 60.3582C147.09 60.2523 147.263 60.2018 147.437 60.2152C147.89 60.2422 148.895 60.3339 149.368 60.6604C149.207 60.5234 149.037 60.399 148.859 60.288C143.403 58.8659 134.435 59.9265 134.435 59.9265C134.435 59.9265 134.274 61.1705 134.031 63.4454C134.277 62.9672 134.55 62.5049 134.848 62.061C134.994 61.8424 135.14 61.6238 135.291 61.4079C135.444 61.1841 135.608 60.9689 135.783 60.763C135.748 61.0429 135.674 61.3157 135.562 61.5726C135.458 61.8283 135.329 62.0724 135.178 62.3012C135.028 62.5302 134.857 62.7435 134.669 62.9381C134.48 63.139 134.266 63.3099 134.031 63.4454C133.111 71.9621 130.995 94.9271 131.623 120.971C134.263 122.242 137.172 122.765 140.063 122.49C139.983 120.356 139.932 118.218 139.868 116.084L139.727 109.675C139.64 105.403 139.597 101.128 139.548 96.8565C139.53 92.5819 139.51 88.3074 139.548 84.0329C139.571 81.8956 139.602 79.761 139.656 77.6237C139.686 76.5551 139.726 75.4865 139.773 74.4178C139.804 73.8862 139.825 73.3519 139.868 72.8176C139.889 72.5504 139.907 72.2859 139.942 72.0188L139.989 71.6221L139.996 71.5762C139.881 71.5358 139.766 71.4952 139.65 71.4521C139.307 71.3145 138.967 71.1714 138.634 71.0041C138.296 70.842 137.97 70.6544 137.658 70.4428C138.025 70.5019 138.387 70.5866 138.744 70.6965C139.097 70.8017 139.443 70.9286 139.789 71.0553C140.129 71.193 140.47 71.3334 140.806 71.4925C141.141 71.6491 141.469 71.8218 141.797 72.0134C141.426 71.9832 141.058 71.9127 140.701 71.8029C140.601 71.7759 140.503 71.7435 140.406 71.7139C140.637 73.0604 140.847 74.4124 141.069 75.7617L141.728 80.0255C142.166 82.8698 142.57 85.7168 142.978 88.5665C143.372 91.4162 143.769 94.2659 144.135 97.121L144.681 101.404C144.85 102.831 145.032 104.259 145.188 105.692L147.714 121.578C147.714 121.578 155.867 123.481 161.279 121.654C161.279 121.654 156.633 94.4629 154.368 76.7764ZM139.758 64.8271C139.727 65.4451 139.691 66.0603 139.63 66.6756C139.574 67.2908 139.502 67.9061 139.392 68.516C139.335 67.8953 139.32 67.2773 139.317 66.6594C139.315 66.0414 139.335 65.4234 139.358 64.8082C139.392 64.1902 139.428 63.575 139.486 62.9596C139.545 62.3444 139.617 61.7318 139.727 61.1192C139.781 61.7398 139.796 62.3578 139.799 62.9758C139.802 63.5938 139.784 64.2118 139.758 64.8271ZM139.727 60.7765C139.649 60.7735 139.576 60.7387 139.522 60.6796C139.467 60.6205 139.437 60.5415 139.437 60.4594C139.437 60.3773 139.467 60.2983 139.522 60.2392C139.576 60.1801 139.649 60.1453 139.727 60.1423C139.805 60.1453 139.879 60.1801 139.933 60.2392C139.987 60.2983 140.017 60.3773 140.017 60.4594C140.017 60.5415 139.987 60.6205 139.933 60.6796C139.879 60.7387 139.805 60.7735 139.727 60.7765ZM150.329 65.8093C150.048 65.7528 149.771 65.6789 149.499 65.5881C148.948 65.3949 148.433 65.1017 147.978 64.7219C147.529 64.3253 147.165 63.8333 146.909 63.2781C146.65 62.7354 146.529 62.1309 146.559 61.524C146.682 62.0899 146.893 62.6305 147.183 63.1243C147.468 63.6044 147.822 64.0343 148.234 64.398C148.442 64.576 148.663 64.7375 148.895 64.881C149.125 65.0311 149.364 65.1646 149.612 65.2804C149.735 65.344 149.861 65.3999 149.991 65.4478L150.378 65.6069C150.641 65.696 150.908 65.777 151.177 65.8822C150.895 65.8687 150.613 65.8444 150.329 65.8093ZM153.159 64.0229C153.154 63.61 153.162 63.2538 153.185 62.957L152.785 63.2295C152.327 63.4518 151.811 63.5069 151.32 63.386C151.564 64.5113 151.794 65.6375 152.012 66.7646L152.675 70.146C152.893 71.2712 153.125 72.393 153.372 73.5111C153.5 74.067 153.631 74.6256 153.782 75.1761C153.917 75.732 154.114 76.2691 154.368 76.7764C153.654 71.193 153.177 66.5568 153.159 64.0229H153.159Z" fill="black"/>
<path d="M152.419 59.4544C152.389 58.5982 152.047 57.7873 151.464 57.1902C150.506 56.6235 151.161 58.2372 151.197 58.329C151.185 58.3155 151.131 58.2562 151.041 58.1725C150.985 57.8784 150.934 57.568 150.885 57.2496L150.877 57.201C150.739 56.2835 150.621 55.2796 150.526 54.2299C150.527 54.2199 150.526 54.2099 150.524 54.2002C150.438 52.2078 150.659 50.2139 151.177 48.2957C151.556 46.7521 152.404 46.7008 152.404 46.7008L157.527 52.7051L152.619 58.7878C152.489 58.9833 152.42 59.2159 152.419 59.4544Z" fill="black"/>
<path d="M152.549 58.8684L152.456 59.3152C152.456 59.3152 152.152 57.1445 151.198 56.974C150.998 56.9383 150.925 57.0184 150.925 57.0184L150.704 56.1721C150.369 54.1275 150.452 51.0611 150.547 51.0619C150.547 51.0619 150.889 48.1639 151.539 47.1175C151.82 46.6648 152.45 46.5427 152.45 46.5427L157.666 52.7227L152.549 58.8684Z" fill="#F8E542" stroke="#F8E542" stroke-width="0.05714"/>
<path d="M200.836 100.818L200.836 100.818C204.538 101.567 207.394 99.1887 209.337 96.5909C210.307 95.2944 211.044 93.9498 211.538 92.9288C211.785 92.4185 211.972 91.9893 212.096 91.688C212.158 91.5374 212.205 91.4187 212.236 91.3378C212.239 91.3311 212.241 91.3247 212.244 91.3186C212.242 91.3184 212.24 91.3182 212.239 91.318C212.16 91.3086 212.044 91.2915 211.89 91.2605C211.582 91.1984 211.125 91.0808 210.521 90.8582C209.314 90.4131 207.521 89.5483 205.171 87.8695C200.47 84.512 193.537 77.8976 184.586 64.8675C172.066 46.6448 160.159 41.2869 154.154 39.7095C154.695 39.9867 155.195 40.3491 155.638 40.7865L155.639 40.7883L155.639 40.7884C156.837 42.0484 158.609 44.6011 160.078 46.8326C160.814 47.9496 161.475 48.9882 161.952 49.7475C162.19 50.1271 162.383 50.437 162.516 50.652C162.583 50.7595 162.634 50.8432 162.669 50.9001L162.709 50.965L162.719 50.9816L162.72 50.9828L162.721 50.985L162.735 51.0031C162.747 51.0188 162.764 51.0419 162.785 51.0718C162.826 51.1315 162.884 51.2186 162.947 51.3292C163.074 51.5501 163.226 51.866 163.328 52.2457C163.532 53.0072 163.531 54.0254 162.716 55.039C162.314 55.5397 161.569 56.2568 160.683 57.0479C159.796 57.8403 158.762 58.7106 157.778 59.5187C156.794 60.3268 155.86 61.0731 155.172 61.6173C154.828 61.8894 154.546 62.111 154.349 62.2646C154.251 62.3414 154.174 62.4012 154.122 62.4418L154.062 62.488L154.047 62.4998L154.043 62.5028L154.042 62.5036L154.042 62.5038C154.042 62.5038 154.042 62.5038 153.989 62.4361M200.836 100.818L193.773 98.4001M200.836 100.818C200.074 100.667 199.298 100.614 198.525 100.661M200.836 100.818L198.525 100.661M153.989 62.4361L153.927 62.4951L153.927 62.495L153.927 62.495L153.927 62.4947L153.926 62.4938L153.923 62.4903L153.91 62.477C153.899 62.4654 153.884 62.4483 153.864 62.4262C153.842 62.4023 153.816 62.3724 153.786 62.3373C153.647 62.5994 153.463 62.8319 153.241 63.022L153.233 63.0282L153.233 63.0277L152.893 63.2598C153.032 63.5697 153.155 63.8339 153.235 63.9823L153.237 63.9872L153.237 63.9873C153.25 64.0152 153.265 64.0418 153.282 64.0669L153.283 64.0682L153.283 64.0682C157.386 70.4298 160.441 76.7569 161.609 80.3987L161.527 80.4249L161.609 80.3987C163.571 86.5169 168.84 94.4386 173.732 100.608C176.178 103.691 178.526 106.333 180.316 108.089C181.212 108.968 181.965 109.622 182.518 109.999C182.797 110.188 183.017 110.303 183.177 110.344C183.257 110.365 183.313 110.365 183.35 110.355C183.384 110.345 183.408 110.326 183.424 110.291L183.502 110.328L183.424 110.291C183.625 109.868 184.237 109.081 185.139 108.138C186.044 107.192 187.25 106.081 188.647 105.008C191.348 102.936 194.779 100.999 198.156 100.688C196.652 100.018 195.18 99.2736 193.732 98.4751M153.989 62.4361L154.042 62.5038L153.98 62.5512L153.927 62.4951L153.989 62.4361ZM193.732 98.4751L193.773 98.4001M193.732 98.4751C193.732 98.4752 193.732 98.4753 193.732 98.4753L193.773 98.4001M193.732 98.4751C192.18 97.6293 190.664 96.7106 189.177 95.7409L189.177 95.7409C188.433 95.2541 187.706 94.7405 186.982 94.2251L186.979 94.2234L186.979 94.2234L185.917 93.4146L185.968 93.3456M193.773 98.4001C192.223 97.5554 190.709 96.6379 189.224 95.6691C188.481 95.1834 187.756 94.6707 187.031 94.1552L185.968 93.3456M185.968 93.3456L185.916 93.4138L185.917 93.4142C185.578 93.1644 185.256 92.8908 184.937 92.6203L184.873 92.5664C183.511 91.4127 182.18 90.1625 181.159 88.6468L181.292 88.5397C181.602 88.865 181.906 89.192 182.203 89.5209M185.968 93.3456C185.632 93.0975 185.311 92.8255 184.991 92.5544L184.928 92.501C183.724 91.4806 182.548 90.3883 181.59 89.1059C181.451 88.9563 181.31 88.807 181.168 88.6581L181.23 88.5989L181.301 88.551C181.415 88.7209 181.534 88.8874 181.656 89.0509C181.82 89.2271 181.982 89.4039 182.142 89.5811M198.525 100.661C197.261 99.9218 196.009 99.1664 194.757 98.411C194.508 98.2606 194.259 98.1101 194.01 97.9599C192.504 97.0426 191.012 96.1122 189.543 95.1389L189.542 95.1385C188.066 94.1788 186.62 93.1709 185.224 92.0984C185.224 92.0984 185.224 92.0984 185.224 92.0984L185.172 92.1663M198.525 100.661L183.178 90.4249L183.178 90.425L183.12 90.4879M185.172 92.1663C185.1 92.1115 185.029 92.057 184.957 92.0025C184.677 91.7889 184.397 91.5755 184.132 91.3433C184.01 91.2395 183.886 91.1379 183.763 91.0362C183.545 90.8576 183.327 90.6787 183.12 90.4879M185.172 92.1663C186.57 93.2404 188.017 94.2497 189.495 95.2104M185.172 92.1663L189.495 95.2104M183.12 90.4879L183.178 90.4248L182.203 89.5209M183.12 90.4879L182.142 89.5811M182.142 89.5811L182.205 89.5237C182.204 89.5228 182.203 89.5218 182.203 89.5209M182.142 89.5811L182.2 89.5183L182.203 89.5209M189.495 95.2104C190.966 96.1845 192.459 97.1155 193.965 98.0331C194.214 98.1834 194.464 98.3339 194.713 98.4844C195.752 99.1116 196.792 99.7391 197.839 100.357L189.495 95.2104ZM197.799 100.433C197.94 100.516 198.081 100.599 198.222 100.682C198.26 100.679 198.297 100.676 198.334 100.673L197.799 100.433Z" fill="#F8E542" stroke="black" stroke-width="0.17142"/>
<path d="M129.907 137.737C130.091 137.729 130.276 137.724 130.458 137.707C128.096 137.961 125.207 137.624 124.341 134.771C124.542 134.404 124.807 134.081 125.122 133.819C125.184 133.759 125.256 133.713 125.335 133.684C125.414 133.656 125.498 133.645 125.582 133.653C125.665 133.661 125.746 133.687 125.819 133.73C125.892 133.773 125.956 133.832 126.006 133.902C126.247 134.223 126.447 134.576 126.6 134.952C126.782 135.335 126.966 135.727 127.179 136.115C127.4 136.521 127.691 136.878 128.037 137.17C128.4 137.448 128.824 137.624 129.269 137.68C129.48 137.714 129.693 137.733 129.907 137.737Z" fill="black"/>
<path d="M142.97 130.23C142.74 129.912 142.532 129.339 142.483 128.309C142.36 125.737 140.583 127.178 140.583 127.178C137.558 128.865 136.728 126.252 136.503 125.839C136.277 125.429 134.389 125.197 133.639 126.428C133.366 126.822 133.029 127.162 132.642 127.432C132.983 127.475 133.315 127.572 133.629 127.718C133.944 127.856 134.244 128.032 134.523 128.241C134.81 128.451 135.063 128.709 135.271 129.005C135.504 129.295 135.623 129.669 135.603 130.049C135.441 129.756 135.228 129.497 134.976 129.286C134.738 129.072 134.484 128.873 134.223 128.678L133.434 128.085C133.168 127.882 132.904 127.674 132.642 127.434C132.061 127.861 131.451 128.242 130.816 128.573C131.152 128.571 131.484 128.642 131.792 128.781C132.103 128.914 132.393 129.098 132.65 129.326C132.912 129.553 133.132 129.829 133.298 130.141C133.47 130.448 133.571 130.792 133.593 131.148C133.367 130.88 133.193 130.619 132.973 130.389C132.769 130.158 132.55 129.941 132.32 129.739C131.861 129.326 131.359 128.975 130.816 128.573C130.335 128.829 129.989 128.989 129.989 128.989C129.597 129.118 129.231 129.253 128.89 129.388C129.227 129.472 129.55 129.611 129.845 129.801C130.146 129.984 130.423 130.208 130.67 130.465C130.926 130.724 131.138 131.028 131.295 131.363C131.462 131.699 131.526 132.081 131.477 132.456C131.335 132.147 131.159 131.855 130.955 131.587C130.754 131.327 130.539 131.08 130.309 130.848C129.861 130.365 129.364 129.925 128.888 129.388C123.404 131.56 124.021 134.251 124.021 134.251C124.059 134.469 124.111 134.684 124.174 134.896C124.29 134.463 124.504 134.067 124.797 133.741C124.966 133.554 125.196 133.442 125.44 133.425C125.693 133.432 125.934 133.537 126.116 133.722C126.284 133.88 126.428 134.064 126.544 134.267C126.662 134.461 126.759 134.648 126.864 134.839C127.064 135.222 127.248 135.606 127.456 135.962C127.638 136.315 127.88 136.629 128.17 136.89C128.245 136.944 128.314 137.009 128.393 137.06L128.639 137.2C128.816 137.279 128.998 137.343 129.185 137.392C129.978 137.555 130.787 137.623 131.595 137.594C132.79 137.262 133.918 136.702 134.922 135.943C137.527 134.019 140.437 134.121 142.389 133.023C142.43 132.999 142.471 132.974 142.512 132.953C142.727 132.82 142.912 132.639 143.054 132.423C143.197 132.207 143.293 131.962 143.336 131.703C143.38 131.444 143.37 131.178 143.307 130.924C143.243 130.67 143.129 130.433 142.97 130.23ZM139.312 130.567C138.997 130.821 138.672 131.061 138.337 131.282C138.001 131.504 137.655 131.709 137.302 131.895C136.945 132.09 136.573 132.252 136.19 132.381C136.467 132.075 136.768 131.793 137.089 131.539C137.404 131.285 137.729 131.045 138.065 130.824C138.398 130.602 138.744 130.4 139.1 130.211C139.456 130.016 139.828 129.853 140.211 129.725C139.935 130.032 139.634 130.314 139.312 130.567Z" fill="black"/>
<path d="M163.821 137.076C163.883 137.071 163.944 137.063 164.005 137.057C163.969 137.06 163.936 137.066 163.9 137.071C163.875 137.074 163.847 137.076 163.821 137.076Z" fill="#B21919"/>
<path d="M164.618 136.958C164.587 136.966 164.554 136.971 164.52 136.979C164.454 136.993 164.387 137.003 164.321 137.011C164.42 136.995 164.52 136.979 164.618 136.958Z" fill="#B21919"/>
<path d="M141.522 122.328C141.536 124.109 141.618 125.097 141.893 126.844C141.858 126.684 140.841 127.135 140.13 127.528C139.377 127.945 138.651 128.02 137.864 127.674C137.039 127.31 136.484 126.001 136.484 126.001C136.662 124.871 136.894 124.861 136.484 122.417C138.386 122.585 139.484 122.581 141.522 122.328Z" fill="#DA9770" stroke="#DA9770" stroke-width="0.05714"/>
<path d="M136.499 125.923C136.521 125.366 136.56 124.822 136.573 124.277C136.595 123.731 136.57 123.184 136.499 122.642C136.711 123.159 136.805 123.721 136.773 124.283C136.761 124.841 136.669 125.394 136.499 125.923Z" fill="black"/>
<path d="M141.91 126.859C141.816 126.476 141.749 126.089 141.688 125.701C141.625 125.313 141.58 124.923 141.541 124.531C141.507 124.14 141.476 123.747 141.47 123.353C141.457 122.959 141.467 122.564 141.5 122.171L141.623 123.342L141.741 124.51C141.775 124.901 141.814 125.29 141.84 125.682C141.869 126.073 141.898 126.464 141.91 126.859Z" fill="black"/>
<path d="M140.639 40.0651C141.113 40.1143 141.583 40.1921 142.048 40.2983C142.53 40.3958 143.004 40.527 143.469 40.6912L143.724 40.7869L143.54 40.9581C143.221 41.2562 142.886 41.5377 142.586 41.8553C142.286 42.1736 142.002 42.5076 141.733 42.8562L141.683 42.9205L141.594 42.8765C141.347 42.7531 141.098 42.6312 140.856 42.4981L140.133 42.0924C139.892 41.9576 139.652 41.8206 139.416 41.6754C139.18 41.5317 138.948 41.3799 138.716 41.2275L138.399 41.0194L138.726 40.8648C139.35 40.5638 139.989 40.2969 140.639 40.0651ZM140.643 40.1071C140.048 40.5334 139.477 40.8951 138.901 41.2333L138.911 40.8706C139.152 41.0054 139.393 41.1408 139.63 41.2842C139.867 41.4262 140.1 41.5764 140.332 41.7288L141.028 42.1846C141.258 42.3387 141.483 42.504 141.709 42.6678L141.57 42.6881C141.893 42.3964 142.203 42.0877 142.497 41.7631C142.79 41.4388 143.048 41.0785 143.322 40.7345L143.393 41.0015C142.93 40.9126 142.472 40.7898 142.025 40.6341C141.57 40.4837 141.115 40.319 140.643 40.1071Z" fill="black"/>
<path d="M143.431 40.8461L141.651 42.7718L142.985 44.343L145.876 42.0431L143.431 40.8461Z" fill="black"/>
<path d="M138.819 41.0692C138.348 41.258 137.879 41.4506 137.426 41.6782C136.97 41.8942 136.524 42.1348 136.09 42.3991C135.221 42.9108 134.408 43.5247 133.67 44.2289C132.171 45.6392 130.849 47.244 129.734 49.005C129.459 49.4467 129.209 49.9054 128.986 50.3787C128.934 50.4929 128.89 50.6116 128.856 50.7335C128.827 50.8583 128.806 50.985 128.793 51.1127C128.767 51.3669 128.774 51.6237 128.813 51.8761C128.833 52.0013 128.86 52.1251 128.895 52.2465C128.913 52.3085 128.932 52.3646 128.952 52.4222L129.032 52.6034L129.34 53.3314C129.548 53.8159 129.742 54.306 129.943 54.7932C130.75 56.7404 131.473 58.7213 132.14 60.7295L132.061 60.6744C132.254 60.6894 132.445 60.7186 132.633 60.7616L133.187 60.8846L133.738 61.0076C133.921 61.0506 134.106 61.0804 134.292 61.097V61.1393C134.102 61.1358 133.913 61.1187 133.725 61.0881L133.167 60.9969L132.61 60.9056C132.428 60.8748 132.245 60.857 132.061 60.8523L132.008 60.8525L131.983 60.7972C131.115 58.8754 130.302 56.9264 129.573 54.9436C129.391 54.4483 129.201 53.9559 129.025 53.4578L128.757 52.7122L128.693 52.5249C128.673 52.4568 128.654 52.3863 128.639 52.3198C128.546 51.9152 128.531 51.4952 128.594 51.0843C128.614 50.9486 128.643 50.8145 128.68 50.683C128.723 50.5516 128.776 50.4244 128.84 50.3028C129.081 49.8281 129.348 49.3763 129.628 48.9323C130.19 48.0468 130.768 47.1732 131.385 46.3259C131.996 45.4689 132.68 44.6727 133.429 43.9471C133.81 43.5862 134.213 43.2526 134.636 42.9486C135.061 42.651 135.502 42.3807 135.958 42.1391C136.412 41.8985 136.878 41.6826 137.353 41.4924C137.829 41.3083 138.315 41.1535 138.808 41.0287L138.819 41.0692Z" fill="black"/>
<path d="M137.198 43.5113C137.012 44.8902 136.792 46.2612 136.56 47.6297C136.324 48.9973 136.084 50.3638 135.787 51.7188C135.5 53.0759 135.209 54.4333 135.011 55.8076C134.903 56.4929 134.812 57.1815 134.735 57.8707C134.696 58.2153 134.661 58.5603 134.633 58.9044C134.599 59.2387 134.587 59.5751 134.596 59.9112L134.432 59.7584C135.638 59.7 136.844 59.6701 138.05 59.6393C139.256 59.6066 140.463 59.6005 141.67 59.6143C142.877 59.6281 144.084 59.6673 145.291 59.7319C145.895 59.7709 146.498 59.8158 147.1 59.8802C147.401 59.9139 147.701 59.9552 148.001 60.0083C148.306 60.0441 148.602 60.1347 148.878 60.2762L148.856 60.3113C148.721 60.2476 148.578 60.2064 148.431 60.1891C148.284 60.1645 148.135 60.1456 147.985 60.1324C147.687 60.1034 147.386 60.0905 147.086 60.077C146.486 60.0492 145.884 60.0408 145.282 60.0382C144.079 60.022 142.874 60.0375 141.67 60.0465L134.44 60.0961L134.28 60.0972L134.276 59.9433C134.276 59.584 134.305 59.2253 134.365 58.8715C134.413 58.525 134.47 58.1817 134.526 57.8384L134.88 55.784C135.126 54.4174 135.313 53.0401 135.513 51.6646C135.704 50.2871 135.966 48.9238 136.24 47.5632C136.518 46.2037 136.815 44.8481 137.158 43.5028L137.198 43.5113Z" fill="black"/>
<path d="M134.278 61.1483L133.375 70.1088C133.375 70.1088 133.031 69.5695 132.782 68.932C132.117 67.2268 132.204 65.6776 132.278 63.7954C132.323 62.6637 132.463 60.7874 132.463 60.7874C133.161 60.9694 133.56 61.0421 134.278 61.1483Z" fill="#DA9770" stroke="#DA9770" stroke-width="0.05714"/>
<path d="M133.517 70.3175C133.195 70.0569 132.929 69.7267 132.738 69.3491C132.64 69.1619 132.552 68.9693 132.473 68.7721L132.358 68.4746L132.265 68.1699C132.033 67.3541 131.899 66.5106 131.867 65.6595C131.85 65.2364 131.859 64.8137 131.865 64.3918C131.901 63.9718 131.912 63.5499 131.97 63.1334C132.028 62.7172 132.083 62.301 132.163 61.8901C132.253 61.4805 132.342 61.0716 132.453 60.6686C132.454 61.0907 132.433 61.5069 132.413 61.9223L132.369 63.1656L132.35 64.4029C132.359 64.8136 132.354 65.2253 132.379 65.6338L132.41 66.2469C132.421 66.4513 132.454 66.6521 132.47 66.8558C132.483 67.0603 132.514 67.2609 132.546 67.4617C132.575 67.6634 132.606 67.8644 132.65 68.0621C132.778 68.8721 133.074 69.6423 133.517 70.3175Z" fill="black"/>
<path d="M133.687 67.6568C133.44 67.6502 133.204 67.5452 133.026 67.363C132.86 67.1897 132.744 66.9708 132.69 66.7313C132.608 66.2805 132.594 65.8187 132.651 65.3634L132.809 62.6777L132.787 65.3675C132.755 65.8049 132.786 66.2448 132.88 66.6723C132.932 66.87 133.036 67.0484 133.18 67.1869C133.316 67.3145 133.492 67.3857 133.674 67.3873L133.687 67.6568Z" fill="black"/>
<path d="M148.293 138.835C148.08 138.856 147.866 138.861 147.652 138.849C147.204 138.841 146.765 138.711 146.377 138.474C146.005 138.221 145.681 137.896 145.424 137.516C145.173 137.152 144.953 136.782 144.732 136.42C144.545 136.061 144.312 135.731 144.041 135.438C143.925 135.317 143.771 135.245 143.608 135.236C143.437 135.245 143.275 135.321 143.154 135.449C142.867 135.745 142.634 136.096 142.468 136.482C143.605 139.216 146.492 139.251 148.81 138.755C148.641 138.784 148.467 138.809 148.293 138.835ZM160.715 129.833C160.457 129.539 160.196 128.991 160.047 127.974C159.676 125.429 158.046 127.048 158.046 127.048C155.201 129.05 154.122 126.541 153.859 126.155C153.597 125.769 151.694 125.742 151.067 127.045C150.834 127.466 150.532 127.839 150.175 128.149C150.517 128.157 150.855 128.218 151.179 128.33C151.506 128.435 151.822 128.577 152.119 128.754C152.426 128.932 152.702 129.162 152.939 129.434C153.198 129.699 153.353 130.057 153.372 130.438C153.18 130.165 152.943 129.931 152.673 129.747C152.414 129.561 152.145 129.388 151.866 129.223L151.023 128.716C150.739 128.543 150.457 128.365 150.173 128.152C149.636 128.638 149.067 129.081 148.469 129.48C148.801 129.443 149.137 129.478 149.456 129.582C149.778 129.683 150.084 129.836 150.362 130.035C150.644 130.234 150.89 130.484 151.087 130.775C151.286 131.062 151.419 131.395 151.474 131.746C151.225 131.503 151.026 131.261 150.785 131.058C150.56 130.85 150.322 130.657 150.073 130.481C149.576 130.119 149.046 129.822 148.467 129.482C148.011 129.79 147.683 129.984 147.683 129.984C147.306 130.157 146.953 130.327 146.625 130.5C146.97 130.547 147.305 130.651 147.619 130.807C147.935 130.958 148.232 131.15 148.503 131.379C148.783 131.609 149.022 131.89 149.21 132.208C149.409 132.523 149.509 132.896 149.497 133.274C149.325 132.98 149.122 132.709 148.892 132.464C148.668 132.227 148.43 132.006 148.18 131.8C147.686 131.369 147.15 130.983 146.625 130.5C141.379 133.244 142.253 135.856 142.253 135.856C142.311 136.07 142.383 136.279 142.468 136.482C142.542 136.04 142.716 135.622 142.975 135.265C143.125 135.062 143.341 134.925 143.582 134.882C143.835 134.863 144.086 134.942 144.287 135.106C144.467 135.246 144.628 135.414 144.763 135.603C144.899 135.783 145.011 135.959 145.134 136.137C145.373 136.496 145.593 136.86 145.834 137.192C146.048 137.524 146.319 137.811 146.633 138.039C146.712 138.085 146.789 138.142 146.871 138.185L147.13 138.299C147.314 138.356 147.501 138.4 147.691 138.431C148.498 138.506 149.311 138.486 150.114 138.371C151.269 137.912 152.334 137.236 153.259 136.374C155.667 134.183 158.572 133.973 160.406 132.672C160.446 132.645 160.485 132.615 160.521 132.588C160.722 132.433 160.889 132.234 161.011 132.005C161.132 131.775 161.204 131.52 161.223 131.258C161.241 130.996 161.205 130.733 161.118 130.487C161.03 130.241 160.893 130.018 160.715 129.833ZM157.109 130.559C156.82 130.845 156.519 131.117 156.207 131.374C155.895 131.63 155.572 131.868 155.237 132.094C154.901 132.326 154.547 132.527 154.179 132.696C154.425 132.362 154.697 132.05 154.991 131.762C155.28 131.476 155.581 131.205 155.892 130.948C156.205 130.691 156.528 130.451 156.863 130.227C157.199 129.993 157.554 129.791 157.924 129.623C157.677 129.958 157.405 130.271 157.109 130.559Z" fill="black"/>
<path d="M182.56 137.951C182.522 137.959 182.481 137.97 182.443 137.98C182.414 137.986 182.389 137.991 182.361 137.994C182.427 137.98 182.494 137.967 182.56 137.951Z" fill="#B21919"/>
<path d="M148.471 129.48L148.467 129.483C148.467 129.483 148.467 129.482 148.467 129.482C148.467 129.481 148.467 129.481 148.467 129.481C148.466 129.48 148.466 129.48 148.466 129.48C148.465 129.48 148.465 129.48 148.464 129.48H148.471Z" fill="#B21919"/>
<path d="M150.176 128.149L150.173 128.153C150.173 128.152 150.173 128.152 150.173 128.151C150.173 128.151 150.173 128.151 150.172 128.15C150.172 128.15 150.172 128.15 150.171 128.15C150.171 128.149 150.171 128.149 150.17 128.149H150.176Z" fill="#B21919"/>
<path d="M158.536 122.277C158.67 123.953 158.762 124.892 159.136 126.567C159.155 126.46 158.494 126.796 158.033 127.176C157.454 127.653 157.003 127.854 156.257 127.875C155.498 127.897 155.123 127.725 154.528 127.247C154.033 126.849 153.508 125.973 153.508 125.973C153.788 125.059 153.883 123.81 153.527 122.362C155.583 122.448 156.683 122.433 158.536 122.277Z" fill="#DA9770" stroke="#DA9770" stroke-width="0.05714"/>
<path d="M153.371 126.859L153.492 125.76C153.529 125.395 153.57 125.032 153.598 124.667C153.633 124.304 153.648 123.94 153.654 123.576C153.667 123.211 153.63 122.845 153.544 122.491C153.705 122.826 153.795 123.194 153.808 123.57C153.835 123.941 153.832 124.315 153.798 124.686C153.766 125.055 153.715 125.423 153.643 125.786C153.575 126.149 153.484 126.508 153.371 126.859Z" fill="black"/>
<path d="M159.337 127.431C159.215 127.011 159.118 126.586 159.026 126.16C158.932 125.734 158.855 125.305 158.782 124.875C158.713 124.444 158.646 124.013 158.602 123.578C158.55 123.143 158.52 122.706 158.511 122.268C158.597 122.697 158.676 123.125 158.754 123.553C158.834 123.981 158.906 124.41 158.979 124.839C159.047 125.269 159.119 125.698 159.177 126.13C159.237 126.562 159.296 126.994 159.337 127.431Z" fill="black"/>
<path d="M152.336 59.265C152.619 60.5744 152.949 61.2108 153.72 62.2419C153.478 62.8529 153.161 63.0178 152.57 63.2926C152.107 63.3747 151.844 63.4004 151.36 63.3567C151.357 63.3962 150.602 62.9058 150.105 62.5603C149.581 62.1961 148.792 61.5355 148.805 61.4892C148.805 61.4892 148.366 61.2602 148.038 61.191C147.745 61.1289 147.536 61.244 147.261 61.123C147.05 61.0301 146.824 60.9623 146.818 60.7293C146.814 60.5306 146.951 60.4175 147.125 60.3265C147.314 60.2284 147.456 60.3368 147.667 60.3265C148.237 60.2987 149.067 60.5054 149.265 60.5923L148.326 59.9695L146.818 59.585C146.818 59.585 146.449 59.4601 146.439 59.265C146.431 59.1055 146.515 58.9759 146.665 58.9259C146.935 58.8355 147.635 58.8614 148.236 58.9899C148.844 59.12 149.716 59.585 149.716 59.585C149.716 59.585 149.121 58.7061 148.57 58.4681C148.049 58.2432 147.125 58.3491 147.125 58.3491C147.125 58.3491 146.663 58.3593 146.705 57.9766C146.747 57.5939 147.355 57.4494 147.817 57.2591C147.817 57.2591 147.758 57.0395 147.917 56.8966C148.321 56.5327 148.792 56.7329 149.436 57.0995C150.079 57.4661 150.449 57.6989 151.146 58.2444C151.146 58.2444 150.751 57.1473 151.179 57.0995C151.429 57.0716 151.662 57.4186 151.662 57.4186C152.057 58.1383 152.23 58.5424 152.336 59.265Z" fill="#DA9770" stroke="#DA9770" stroke-width="0.05714"/>
<path d="M142.985 44.3431C142.985 44.3431 139.07 52.7052 139.026 54.7578L140.346 56.7201L142.861 55.0619C142.861 55.0619 143.525 46.0915 142.985 44.3431Z" fill="black"/>
<path d="M151.188 58.3329C151.021 58.0813 150.911 57.7934 150.864 57.4906C150.853 57.4083 150.856 57.3245 150.872 57.2431C150.88 57.194 150.9 57.148 150.931 57.1099C150.961 57.0717 151 57.0428 151.045 57.0261C151.126 57.0098 151.21 57.0223 151.283 57.0616C151.352 57.0908 151.415 57.1271 151.479 57.1617L151.481 57.163L151.483 57.1649C151.64 57.3046 151.786 57.4586 151.917 57.6252C152.044 57.7977 152.151 57.9847 152.238 58.1827C152.401 58.5828 152.468 59.0193 152.432 59.4531L152.431 59.4481L152.432 59.4703H152.412L152.407 59.4603L152.406 59.4552C152.376 59.3521 152.353 59.2496 152.328 59.1486C152.296 59.0486 152.275 58.9474 152.243 58.8494C152.187 58.6512 152.111 58.4621 152.042 58.2713C151.97 58.0804 151.885 57.8953 151.788 57.7172C151.7 57.5314 151.584 57.3618 151.444 57.2152L151.448 57.2184C151.336 57.1492 151.178 57.0877 151.086 57.1401C151.01 57.1841 151.031 57.3356 151.043 57.4673C151.076 57.7443 151.156 58.0282 151.206 58.3248L151.188 58.3329Z" fill="black"/>
<path d="M149.771 59.6529C149.449 59.3482 149.134 59.0361 148.804 58.7557C148.724 58.6864 148.639 58.624 148.55 58.5688C148.512 58.5443 148.469 58.5268 148.425 58.5171L148.269 58.4857C148.062 58.4451 147.852 58.418 147.641 58.4048C147.43 58.3913 147.212 58.3993 146.992 58.3756C146.933 58.3762 146.874 58.3619 146.82 58.3338C146.767 58.3058 146.721 58.2647 146.685 58.2141C146.652 58.1622 146.632 58.1018 146.627 58.0391C146.622 57.9763 146.634 57.9134 146.66 57.8567C146.763 57.6421 146.942 57.4791 147.159 57.4026C147.366 57.319 147.582 57.2634 147.802 57.2373L147.736 57.3402C147.706 57.237 147.699 57.1278 147.717 57.0215C147.726 56.9639 147.746 56.9088 147.775 56.8594C147.805 56.81 147.843 56.7672 147.888 56.7337C148.064 56.6289 148.268 56.5916 148.467 56.628C148.828 56.6834 149.178 56.7972 149.507 56.9654C149.831 57.1291 150.139 57.3266 150.426 57.555C150.711 57.7819 150.973 58.0397 151.207 58.3241L151.193 58.339C150.923 58.1009 150.638 57.882 150.341 57.6839C150.048 57.4846 149.741 57.3108 149.421 57.1643C149.107 57.0168 148.779 56.9073 148.442 56.8378C148.291 56.803 148.133 56.8218 147.993 56.8913C147.937 56.9382 147.897 57.002 147.877 57.0739C147.857 57.1459 147.858 57.2226 147.881 57.2936L147.903 57.3922L147.815 57.3966C147.604 57.4012 147.395 57.4349 147.192 57.4969C147.091 57.5221 146.997 57.5696 146.916 57.6361C146.834 57.7027 146.766 57.7869 146.718 57.883C146.697 57.9293 146.688 57.9807 146.693 58.0318C146.697 58.0828 146.714 58.1317 146.743 58.1733C146.772 58.2148 146.81 58.2475 146.855 58.2678C146.9 58.2881 146.949 58.2953 146.997 58.2886C147.209 58.2896 147.423 58.2591 147.643 58.251C147.863 58.24 148.085 58.2563 148.302 58.2994C148.356 58.308 148.41 58.323 148.463 58.3357C148.524 58.3517 148.582 58.3779 148.635 58.4133C148.731 58.4769 148.821 58.5485 148.905 58.6273C149.228 58.934 149.523 59.2727 149.786 59.6387L149.771 59.6529Z" fill="black"/>
<path d="M149.774 59.6562L149.771 59.6538L149.773 59.6553C149.246 59.4067 148.699 59.2075 148.138 59.0602C147.861 58.9735 147.576 58.9198 147.287 58.9002C147.143 58.891 146.999 58.8987 146.856 58.923C146.79 58.9269 146.725 58.9445 146.666 58.9748C146.606 59.0051 146.553 59.0476 146.509 59.0997C146.457 59.1958 146.541 59.3341 146.629 59.4215C146.724 59.5098 146.845 59.5631 146.971 59.5733C147.27 59.5785 147.566 59.6246 147.853 59.7105C148.425 59.8893 148.948 60.2127 149.375 60.6524L149.362 60.6689C148.878 60.3393 148.35 60.0892 147.794 59.9273C147.519 59.8461 147.236 59.7938 146.951 59.7709C146.785 59.75 146.631 59.6682 146.516 59.5397C146.458 59.4757 146.415 59.3991 146.388 59.3153C146.372 59.27 146.366 59.2211 146.371 59.1728C146.375 59.1245 146.391 59.0781 146.416 59.0374C146.531 58.9186 146.685 58.8513 146.846 58.8494C146.993 58.834 147.141 58.8281 147.289 58.8318C147.585 58.8236 147.881 58.8426 148.173 58.8886C148.758 59.0035 149.309 59.2595 149.784 59.6367L149.786 59.638L149.786 59.6382L149.788 59.6412L149.774 59.6562Z" fill="black"/>
<path d="M153.776 62.1867C153.587 62.6797 153.234 63.0831 152.783 63.321C152.553 63.4358 152.306 63.5067 152.054 63.5306C151.802 63.5516 151.55 63.5306 151.305 63.4686L151.288 63.4646L151.28 63.4585L149.544 62.2401C149.401 62.1369 149.256 62.0353 149.114 61.9263C148.972 61.8212 148.84 61.6797 148.71 61.5902C148.418 61.4209 148.09 61.332 147.757 61.3318C147.672 61.3277 147.588 61.3278 147.504 61.3307C147.409 61.3366 147.313 61.3289 147.22 61.3076C147.022 61.2659 146.847 61.1451 146.732 60.9704C146.664 60.8736 146.633 60.7539 146.644 60.6342C146.664 60.5182 146.722 60.4133 146.808 60.3376C146.955 60.1959 147.147 60.1162 147.346 60.1138C147.699 60.132 148.05 60.1797 148.396 60.2562C148.744 60.3178 149.076 60.4522 149.374 60.6514L149.379 60.6605C149.379 60.6572 149.374 60.6514 149.371 60.6526V60.6738C149.365 60.6751 149.357 60.6669 149.358 60.6606L149.363 60.6696C149.05 60.5195 148.716 60.4255 148.374 60.3914C148.036 60.3451 147.696 60.3198 147.355 60.3157C147.063 60.3287 146.717 60.6125 146.908 60.8436C146.994 60.9717 147.122 61.062 147.267 61.0973C147.343 61.1171 147.422 61.1256 147.5 61.1226C147.589 61.1222 147.678 61.1248 147.767 61.1319C148.131 61.1429 148.485 61.2588 148.791 61.467C148.942 61.5925 149.043 61.7268 149.178 61.8414C149.311 61.9564 149.445 62.0723 149.586 62.1776C150.152 62.5995 150.745 62.9791 151.361 63.3136L151.336 63.3036C151.799 63.4015 152.279 63.3559 152.718 63.1721C152.934 63.0714 153.132 62.9339 153.306 62.7652C153.483 62.5944 153.635 62.3966 153.757 62.1784L153.776 62.1867Z" fill="black"/>
<path d="M147.824 57.2129C148.071 57.2672 148.314 57.3391 148.552 57.4281C148.789 57.5143 149.019 57.6193 149.241 57.7421C149.695 57.97 150.075 58.3334 150.334 58.787C150.052 58.3595 149.657 58.0291 149.197 57.837C148.973 57.7329 148.743 57.6467 148.506 57.5792C148.273 57.5099 148.034 57.4573 147.794 57.4217L147.824 57.2129Z" fill="black"/>
<path d="M150.878 57.322L150.864 57.255L150.863 57.2532C150.76 56.753 150.667 56.2475 150.597 55.7388C150.562 55.4846 150.53 55.2296 150.503 54.9737L150.466 54.5896L150.438 54.2226L150.435 54.2045C150.351 52.8401 150.418 51.4699 150.637 50.122C150.746 49.4459 150.892 48.7869 151.061 48.1211C151.15 47.7733 151.296 47.4445 151.492 47.1498C151.596 46.9881 151.729 46.8496 151.884 46.7422C152.039 46.6347 152.212 46.5606 152.394 46.5239L152.468 46.5117L152.529 46.5823C153.389 47.5771 154.248 48.5726 155.094 49.5808L156.368 51.088L157.629 52.6078L157.71 52.705L157.632 52.7991L155.137 55.8035L152.665 58.8288L152.668 58.8243C152.583 58.9645 152.525 59.1212 152.498 59.2851C152.471 59.4491 152.476 59.6172 152.511 59.7794C152.577 60.1145 152.694 60.4363 152.856 60.7327C153.182 61.3338 153.582 61.8863 154.047 62.3754L153.941 62.3669C155.967 60.7447 157.978 59.0971 159.923 57.3736C160.407 56.9406 160.888 56.5033 161.356 56.0555C161.593 55.8333 161.821 55.6044 162.043 55.3708C162.159 55.2572 162.259 55.1339 162.364 55.0141C162.415 54.9533 162.472 54.8951 162.518 54.8323L162.652 54.6411C162.827 54.3883 162.963 54.1074 163.054 53.8091C163.133 53.5106 163.164 53.2002 163.145 52.8909C163.083 52.2657 162.855 51.6715 162.487 51.1764L162.475 51.1602L162.471 51.1529C161.788 50.0412 161.092 48.9365 160.384 47.8389C159.677 46.7412 158.949 45.6599 158.217 44.5827C157.48 43.5112 156.728 42.4462 155.905 41.4556C155.691 41.219 155.488 40.9631 155.262 40.752C155.034 40.5357 154.788 40.3432 154.525 40.177C153.991 39.8446 153.417 39.591 152.818 39.4235L152.844 39.427L152.839 39.4269L152.824 39.4267L152.812 39.4233C152.108 39.2276 151.388 39.1043 150.661 39.0553C149.931 39.0018 149.198 39.0134 148.47 39.09L148.464 39.0482C149.194 38.9382 149.931 38.8935 150.667 38.9144C151.408 38.9278 152.145 39.0255 152.866 39.2059L152.839 39.2023L152.844 39.2022L152.857 39.202L152.871 39.2058C153.497 39.3605 154.099 39.605 154.661 39.9327C154.944 40.0999 155.211 40.2955 155.458 40.5169C155.709 40.7403 155.914 40.9935 156.139 41.2331C156.994 42.2251 157.766 43.2804 158.526 44.3436C159.287 45.4065 160.007 46.4997 160.723 47.594C161.437 48.6913 162.138 49.7968 162.828 50.9107L162.812 50.8874C163.232 51.4566 163.488 52.1412 163.55 52.8595C163.568 53.221 163.529 53.5832 163.432 53.9307C163.326 54.2713 163.169 54.5916 162.965 54.8791L162.814 55.0912C162.761 55.1595 162.703 55.2187 162.648 55.2829C162.536 55.4081 162.427 55.5385 162.309 55.6523C162.078 55.8901 161.842 56.1204 161.602 56.343C161.125 56.7943 160.63 57.2194 160.135 57.644C158.146 59.3291 156.103 60.9319 154.037 62.5052L153.979 62.5496L153.932 62.4967C153.702 62.2397 153.486 61.9699 153.284 61.6886C153.08 61.4081 152.896 61.1117 152.735 60.8019C152.568 60.4907 152.45 60.1534 152.384 59.8028C152.347 59.6232 152.344 59.4377 152.376 59.2571C152.408 59.0765 152.474 58.9045 152.57 58.7509L152.571 58.7484L152.573 58.7464L155.009 55.6891L157.422 52.6109L157.424 52.802L156.123 51.3198L154.836 49.8249C153.975 48.8316 153.126 47.8257 152.279 46.819L152.413 46.8775C152.285 46.9026 152.164 46.9578 152.059 47.0389C151.943 47.1282 151.839 47.235 151.752 47.3559C151.576 47.6162 151.445 47.9068 151.364 48.2146C151.191 48.8559 151.046 49.5195 150.918 50.1763C150.671 51.4993 150.568 52.8478 150.612 54.1954L150.609 54.1775C150.614 54.2156 150.616 54.2539 150.616 54.2923L150.619 54.3866L150.627 54.5777L150.648 54.96C150.665 55.2147 150.686 55.4692 150.712 55.7235C150.763 56.2321 150.831 56.7382 150.906 57.2455L150.906 57.2438L150.917 57.3117L150.878 57.322Z" fill="black"/>
<path d="M146.06 39.0856C145.645 39.4573 145.23 39.7924 144.808 40.1066C144.394 40.4247 143.963 40.719 143.518 40.9882L143.499 40.6928C143.894 40.9201 144.281 41.1656 144.682 41.3813C145.084 41.5939 145.496 41.7841 145.917 41.9511L145.805 41.9745L146.406 41.1853C146.608 40.9241 146.819 40.672 147.03 40.4196C147.449 39.9118 147.879 39.4137 148.318 38.9254L148.466 39.2793L146.06 39.0856ZM146.049 39.0451L148.466 38.857L148.943 38.8198L148.614 39.2109C148.189 39.7139 147.755 40.2075 147.312 40.6917C147.092 40.9352 146.871 41.1789 146.642 41.4136L145.947 42.1118L145.891 42.1682L145.836 42.1353C145.443 41.9041 145.039 41.6947 144.626 41.508C144.211 41.3247 143.784 41.1712 143.364 40.9995L143.103 40.8927L143.344 40.704C143.774 40.3799 144.218 40.0798 144.677 39.8048C145.13 39.5254 145.59 39.2669 146.049 39.0451L146.049 39.0451Z" fill="black"/>
<path d="M139.842 35.5666C140.032 35.9081 140.189 36.2681 140.313 36.6417C140.441 37.0142 140.542 37.3965 140.614 37.7853C140.69 38.1739 140.734 38.5686 140.745 38.9651C140.761 39.3607 140.738 39.7568 140.676 40.1473C140.658 39.9496 140.666 39.7545 140.642 39.5594C140.632 39.3644 140.617 39.1703 140.592 38.9772C140.547 38.5912 140.494 38.2067 140.418 37.8265C140.348 37.4451 140.261 37.0672 140.166 36.6903C140.07 36.3137 139.96 35.9407 139.842 35.5666Z" fill="black"/>
<path d="M144.774 35.6402C144.794 35.9665 144.831 36.2877 144.872 36.6055C144.912 36.9214 144.975 37.2336 145.061 37.5394C145.14 37.843 145.26 38.133 145.417 38.4004C145.581 38.668 145.799 38.8948 146.054 39.0654C145.751 38.9605 145.485 38.7622 145.29 38.4961C145.097 38.2282 144.954 37.9238 144.869 37.5993C144.781 37.2811 144.73 36.9526 144.717 36.6213C144.699 36.293 144.718 35.9637 144.774 35.6402Z" fill="black"/>
<path d="M145.042 38.0966C145.279 38.625 145.618 38.8113 146.014 39.0623C144.945 39.6584 144.368 40.0199 143.39 40.7281C142.685 40.4674 142.107 40.3258 140.701 40.0858L140.758 39.4018V34.6167L139.958 33.5835C139.958 33.5835 139.06 32.6943 138.327 32.6281C137.978 32.5966 137.882 32.7061 137.533 32.6722C137.225 32.6424 137.068 32.4872 136.772 32.4508C136.379 32.4027 136.164 32.4127 135.801 32.5695C135.488 32.7044 135.424 33.0488 135.1 33.0928C134.71 33.1459 134.291 32.5695 134.291 32.5695C134.273 31.7918 134.278 31.3574 134.369 30.591C134.292 29.9725 134.276 29.6478 134.362 29.056C134.413 28.1064 134.494 27.6534 134.666 26.8883L134.967 24.2405L135.122 23.9707C135.122 23.9707 135.202 22.9486 135.639 22.5632C135.918 22.3164 136.007 22.1251 136.51 22.1831C137.013 22.2412 137.057 22.3821 137.452 22.5632C137.764 22.7059 138.009 22.7803 138.324 22.6454C138.597 22.5283 138.603 22.2615 138.84 22.0804C139.058 21.9141 139.19 21.8002 139.458 21.7516C139.767 21.6957 139.948 21.8051 140.249 21.8955C140.528 21.9793 140.649 22.1444 140.938 22.1831C141.514 22.2604 141.752 21.7656 142.306 21.5873C142.785 21.433 143.127 21.0438 143.562 21.2996C143.781 21.4282 143.877 21.5677 143.978 21.803C144.117 22.1308 143.878 22.3748 143.978 22.7173C144.047 22.9566 144.129 23.0788 144.271 23.2824C144.566 23.7037 145.136 23.6206 145.285 24.1145C145.362 24.3717 145.264 24.5348 145.285 24.8028C145.323 25.3074 145.568 26.0665 145.568 26.0665L148.122 27.5692C148.286 27.7239 148.695 28.6291 148.476 28.9738C148.132 29.5156 148.112 29.9092 147.868 30.5046C147.599 31.1655 147.684 31.7108 147.159 32.1894C146.935 32.3942 146.797 32.5443 146.501 32.6003C146.25 32.6477 145.825 32.491 145.825 32.491L145.761 32.7442C145.761 32.7442 145.76 34.3928 145.457 35.3844C145.264 36.0175 144.778 36.9357 144.778 36.9357C144.858 36.9084 144.804 37.5682 145.042 38.0966Z" fill="#DA9770" stroke="#DA9770" stroke-width="0.05714"/>
<path d="M133.991 24.382C133.991 24.382 134.874 25.3757 135.611 22.7508C135.611 22.7508 136.042 21.5896 137.373 22.5339C137.373 22.5339 138.322 23.1486 138.782 22.1674C138.887 22.0412 139.016 21.9394 139.161 21.8682C139.305 21.797 139.462 21.758 139.622 21.7537C139.781 21.7493 139.94 21.7797 140.088 21.8429C140.235 21.9061 140.369 22.0007 140.481 22.1209C140.481 22.1209 140.786 22.4426 141.491 22.0985C142.195 21.7544 143.342 20.926 143.819 21.5391C144.295 22.1523 143.636 22.5012 144.195 23.2035C144.755 23.9058 145.414 23.7178 145.231 24.5189C145.048 25.3201 145.641 25.8329 145.552 26.6117C145.463 27.3906 145.188 31.8981 144.599 32.3187C144.002 32.8557 143.471 33.4702 143.021 34.1474C142.776 34.4755 141.043 34.7115 140.556 34.049C140.205 33.6097 139.771 33.2519 139.282 32.998C139.282 32.998 138.29 32.1858 137.555 32.6876C137.555 32.6876 136.049 31.8214 135.121 33.075C135.121 33.075 134.403 33.0799 134.325 32.4603C134.286 31.8394 134.294 31.2163 134.349 30.5968C134.349 30.5968 133.983 30.4296 133.971 32.8092C133.959 35.1887 135.124 39.172 135.334 39.3711C135.544 39.5701 137.324 40.7708 141.044 39.5375C144.764 38.3042 145.349 36.001 145.527 35.4085C145.719 34.1966 145.835 32.9729 145.875 31.7451C145.887 31.296 145.747 29.2222 146.987 28.0657C146.987 28.0657 147.8 27.2183 148.214 27.6801C148.214 27.6801 149.082 26.0316 148.837 23.0877C148.814 22.8064 148.734 22.5334 148.604 22.2867C148.473 22.0399 148.295 21.8249 148.08 21.6556C148.041 21.6247 148.001 21.5939 147.962 21.5636C147.597 21.2736 147.351 20.8464 147.277 20.371C147.257 20.2133 147.207 20.0615 147.131 19.9241C147.055 19.7868 146.954 19.6666 146.833 19.5706C146.713 19.4746 146.576 19.4046 146.43 19.3646C146.284 19.3246 146.131 19.3154 145.982 19.3376C144.331 19.357 143.315 18.8038 142.808 18.9897C142.302 19.1757 140.04 17.9082 137.997 19.4948C137.073 20.2841 136.022 20.8927 134.895 21.2919C134.508 21.5086 132.676 22.7958 133.991 24.382Z" fill="black"/>
<g clip-path="url(#clip0)">
<path d="M134.943 24.2516C134.917 25.3282 134.795 26.3999 134.578 27.4522C134.453 27.9605 134.374 28.4798 134.34 29.0035C134.309 29.5343 134.312 30.0667 134.349 30.5971C134.179 30.0826 134.085 29.5438 134.071 28.9993C134.056 28.4522 134.113 27.9055 134.241 27.375C134.458 26.3357 134.658 25.2887 134.943 24.2516Z" fill="black"/>
<path d="M134.019 27.6343C134.019 27.6343 136.567 26.8408 137.568 28.5226C137.568 28.5226 138.69 28.2867 139.216 28.8568C139.767 28.4466 140.428 28.2325 141.102 28.2456C141.776 28.2587 142.429 28.4983 142.965 28.9296C142.965 28.9296 143.126 31.7455 141.01 31.8446C141.01 31.8446 138.853 31.3942 139.174 29.3036C139.174 29.3036 138.79 28.5224 137.526 28.9686C137.526 28.9686 136.613 31.5107 135.074 30.6731C133.535 29.8356 134.019 27.6343 134.019 27.6343Z" fill="white" fill-opacity="0.79"/>
<path d="M148.214 27.6801C148.435 27.8443 148.587 28.0934 148.635 28.3738C148.678 28.6625 148.64 28.958 148.525 29.2242C148.343 29.7205 148.187 30.2268 148.058 30.7411C147.897 31.274 147.637 31.7682 147.295 32.1954C147.112 32.4149 146.872 32.5739 146.606 32.6531C146.341 32.7126 146.065 32.6624 145.835 32.5129C146.07 32.5905 146.324 32.5801 146.554 32.4834C146.767 32.3768 146.952 32.2147 147.089 32.0122C147.367 31.5846 147.584 31.116 147.732 30.6217C147.821 30.3722 147.881 30.1289 147.964 29.8591C148.049 29.5975 148.156 29.3444 148.283 29.1029C148.415 28.888 148.479 28.635 148.466 28.3797C148.454 28.1244 148.366 27.8797 148.214 27.6801Z" fill="black"/>
<path d="M136.193 28.9388C136.291 28.9352 136.384 28.8915 136.453 28.8169C136.521 28.7422 136.56 28.6425 136.56 28.5387C136.56 28.4349 136.521 28.3351 136.453 28.2605C136.384 28.1858 136.291 28.1421 136.193 28.1385C136.094 28.1421 136.001 28.1858 135.932 28.2605C135.864 28.3351 135.826 28.4349 135.826 28.5387C135.826 28.6425 135.864 28.7422 135.932 28.8169C136.001 28.8915 136.094 28.9352 136.193 28.9388Z" fill="black"/>
<path d="M140.894 29.5947C140.993 29.5911 141.086 29.5473 141.154 29.4727C141.223 29.398 141.261 29.2983 141.261 29.1945C141.261 29.0907 141.223 28.9909 141.154 28.9163C141.086 28.8416 140.993 28.7979 140.894 28.7943C140.796 28.7979 140.703 28.8416 140.634 28.9163C140.566 28.9909 140.527 29.0907 140.527 29.1945C140.527 29.2983 140.566 29.398 140.634 29.4727C140.703 29.5473 140.796 29.5911 140.894 29.5947Z" fill="black"/>
<path d="M134.57 26.5759C135.114 26.4356 135.68 26.4297 136.226 26.5588C136.5 26.6226 136.767 26.7218 137.019 26.854C137.271 26.9888 137.494 27.1773 137.674 27.4078C137.183 27.1907 136.674 27.0252 136.152 26.9138C135.636 26.7939 135.114 26.7082 134.57 26.5759Z" fill="black"/>
<path d="M139.337 27.5824C139.923 27.3756 140.543 27.297 141.159 27.3513C141.783 27.3799 142.387 27.5898 142.905 27.9578C142.32 27.8386 141.728 27.757 141.133 27.7135C140.543 27.6648 139.952 27.6452 139.337 27.5824Z" fill="black"/>
<path d="M136.862 31.1401C136.944 31.262 137.04 31.3727 137.147 31.4696C137.244 31.5565 137.349 31.6335 137.459 31.6999C137.679 31.8414 137.928 31.9442 138.205 32.1179C138.055 32.1715 137.895 32.1896 137.738 32.1711C137.577 32.1515 137.422 32.0975 137.283 32.0122C137.139 31.9229 137.019 31.7956 136.935 31.6428C136.849 31.492 136.823 31.3113 136.862 31.1401Z" fill="black"/>
<path d="M147.468 27.687C146.754 28.0168 146.016 28.2834 145.26 28.484C144.508 28.7003 143.741 28.8494 142.965 28.9297C143.679 28.5991 144.417 28.3324 145.173 28.1327C145.925 27.9171 146.692 27.768 147.468 27.687Z" fill="black"/>
<path d="M136.56 35.7355C137.146 35.9422 137.766 36.0209 138.382 35.9666C139.006 35.938 139.61 35.7281 140.127 35.3601C139.542 35.4793 138.951 35.5609 138.356 35.6044C137.765 35.653 137.174 35.6727 136.56 35.7355Z" fill="#DA9770"/>
</g>
<path opacity="0.7" d="M66 80C66 89.3888 59.5081 97 51.5 97C43.4919 97 37 89.3888 37 80C37 70.6112 43.4919 63 51.5 63C59.5081 63 66 70.6112 66 80ZM46.0335 80C46.0335 83.5396 48.4809 86.409 51.5 86.409C54.5191 86.409 56.9665 83.5396 56.9665 80C56.9665 76.4604 54.5191 73.591 51.5 73.591C48.4809 73.591 46.0335 76.4604 46.0335 80Z" fill="#3168A7"/>
<path d="M282 118C282 124.075 275.508 129 267.5 129C259.492 129 253 124.075 253 118C253 111.925 259.492 107 267.5 107C275.508 107 282 111.925 282 118ZM262.033 118C262.033 120.29 264.481 122.147 267.5 122.147C270.519 122.147 272.966 120.29 272.966 118C272.966 115.71 270.519 113.853 267.5 113.853C264.481 113.853 262.033 115.71 262.033 118Z" fill="#5599BE"/>
<path d="M226 114C226 121.18 222.194 127 217.5 127C212.806 127 209 121.18 209 114C209 106.82 212.806 101 217.5 101C222.194 101 226 106.82 226 114ZM210.7 114C210.7 119.744 213.744 124.4 217.5 124.4C221.256 124.4 224.3 119.744 224.3 114C224.3 108.256 221.256 103.6 217.5 103.6C213.744 103.6 210.7 108.256 210.7 114Z" fill="#DAEDEB"/>
<circle cx="95" cy="56" r="9" fill="#F9E24D"/>
<circle cx="232" cy="75" r="6" fill="#F7E0CE"/>
<path opacity="0.5" d="M263 31.5C263 43.3741 252.926 53 240.5 53C228.074 53 218 43.3741 218 31.5C218 19.6259 228.074 10 240.5 10C252.926 10 263 19.6259 263 31.5ZM227.968 31.5C227.968 38.1139 233.578 43.4755 240.5 43.4755C247.422 43.4755 253.033 38.1139 253.033 31.5C253.033 24.8861 247.422 19.5245 240.5 19.5245C233.578 19.5245 227.968 24.8861 227.968 31.5Z" fill="#2F9DED"/>
<path d="M102 124C102 131.18 96.1797 137 89 137C81.8203 137 76 131.18 76 124C76 116.82 81.8203 111 89 111C96.1797 111 102 116.82 102 124ZM80.836 124C80.836 128.509 84.4911 132.164 89 132.164C93.5089 132.164 97.164 128.509 97.164 124C97.164 119.491 93.5089 115.836 89 115.836C84.4911 115.836 80.836 119.491 80.836 124Z" fill="#E8F2FA"/>
<defs>
<linearGradient id="paint0_linear" x1="160" y1="0" x2="160" y2="168" gradientUnits="userSpaceOnUse">
<stop stop-color="white"/>
<stop offset="1" stop-color="white" stop-opacity="0"/>
</linearGradient>
<clipPath id="clip0">
<rect width="15.3903" height="24.0566" fill="white" transform="translate(133.776 16)"/>
</clipPath>
</defs>
</svg>
