<svg width="28" height="28" viewBox="0 0 28 28" fill="none" xmlns="http://www.w3.org/2000/svg">
<g clip-path="url(#clip0)" filter="url(#filter0_d)">
<rect width="20" height="20" transform="translate(4)" fill="white"/>
<path d="M21.0375 16.8698H18.0747V12.2755C18.0747 11.18 18.0549 9.76968 16.5337 9.76968C14.9905 9.76968 14.7544 10.9633 14.7544 12.1958V16.8695H11.7915V7.42181H14.6359V8.71294H14.6757C14.9604 8.23103 15.3717 7.8346 15.8659 7.56585C16.3601 7.2971 16.9187 7.1661 17.4821 7.18681C20.4851 7.18681 21.0388 9.1426 21.0388 11.687L21.0375 16.8698ZM8.44844 6.13038C8.10838 6.13044 7.77592 6.03065 7.49314 5.84363C7.21035 5.65661 6.98994 5.39076 6.85975 5.0797C6.72956 4.76864 6.69544 4.42634 6.76172 4.09609C6.828 3.76583 6.99171 3.46245 7.23213 3.22432C7.47255 2.98618 7.77888 2.82398 8.1124 2.75824C8.44592 2.69249 8.79163 2.72614 9.10583 2.85494C9.42003 2.98374 9.6886 3.2019 9.87758 3.48183C10.0666 3.76177 10.1675 4.0909 10.1675 4.42762C10.1676 4.65119 10.1231 4.87257 10.0368 5.07914C9.95039 5.28571 9.82378 5.47341 9.66415 5.63152C9.50452 5.78964 9.31499 5.91507 9.10639 6.00067C8.8978 6.08626 8.67423 6.13034 8.44844 6.13038ZM9.92987 16.8698H6.96392V7.42181H9.92987V16.8698ZM22.5147 0.0011048H5.47509C5.08833 -0.0032167 4.71565 0.144671 4.43897 0.41227C4.16229 0.679868 4.00423 1.04528 3.99951 1.42822V18.37C4.00407 18.7531 4.16203 19.1188 4.43871 19.3866C4.71538 19.6545 5.08814 19.8027 5.47509 19.7986H22.5147C22.9024 19.8034 23.2762 19.6557 23.5539 19.3878C23.8317 19.1199 23.9907 18.7539 23.9961 18.37V1.427C23.9906 1.0433 23.8314 0.677471 23.5537 0.409879C23.2759 0.142286 22.9022 -0.00517857 22.5147 -0.000118069" fill="#0A66C2"/>
</g>
<defs>
<filter id="filter0_d" x="0" y="0" width="28" height="28" filterUnits="userSpaceOnUse" color-interpolation-filters="sRGB">
<feFlood flood-opacity="0" result="BackgroundImageFix"/>
<feColorMatrix in="SourceAlpha" type="matrix" values="0 0 0 0 0 0 0 0 0 0 0 0 0 0 0 0 0 0 127 0" result="hardAlpha"/>
<feOffset dy="4"/>
<feGaussianBlur stdDeviation="2"/>
<feColorMatrix type="matrix" values="0 0 0 0 0 0 0 0 0 0 0 0 0 0 0 0 0 0 0.25 0"/>
<feBlend mode="normal" in2="BackgroundImageFix" result="effect1_dropShadow"/>
<feBlend mode="normal" in="SourceGraphic" in2="effect1_dropShadow" result="shape"/>
</filter>
<clipPath id="clip0">
<rect width="20" height="20" fill="white" transform="translate(4)"/>
</clipPath>
</defs>
</svg>
