<svg width="114" height="96" viewBox="0 0 114 96" fill="none" xmlns="http://www.w3.org/2000/svg">
<path d="M114 48C114 21.4903 88.4802 0 57 0C25.5198 0 0 21.4903 0 48C0 74.5097 25.5198 96 57 96C88.4802 96 114 74.5097 114 48Z" fill="#FCFEFF"/>
<path d="M40.1205 56.3965C44.1961 56.3965 47.5 53.0967 47.5 49.0261C47.5 44.9555 44.1961 41.6556 40.1205 41.6556C36.045 41.6556 32.7411 44.9555 32.7411 49.0261C32.7411 53.0967 36.045 56.3965 40.1205 56.3965Z" fill="#CA884C"/>
<path d="M40.1205 54.9224H65.2107V91.5829C65.2107 91.5829 59.834 94.7227 52.6656 94.7227C45.4972 94.7227 40.1205 89.5973 40.1205 89.5973V54.9224Z" fill="#DA9770"/>
<path d="M64.9317 72.7765C64.9317 80.7145 63.6477 79.9627 55.2897 79.9627C46.9317 79.9627 43.0752 73.5283 43.0752 65.5903C43.0752 57.6539 42.7579 50.5001 49.5027 50.5001C68.5757 51.2018 64.9317 64.8386 64.9317 72.7765Z" fill="#C99688"/>
<path d="M81.2773 47.6993C81.2773 60.8511 79.2317 77.0233 62.9969 77.0233C46.7621 77.0233 39.2763 60.8511 39.2763 47.6993C35.6929 32.074 36.4308 13.6479 60.7831 13.6479C85.1353 13.6479 81.2773 34.5461 81.2773 47.6993Z" fill="#DA9770"/>
<path d="M56.4571 64.3684C56.4571 63.9774 56.6126 63.6025 56.8894 63.326C57.1662 63.0496 57.5416 62.8943 57.933 62.8943H71.4271C71.8186 62.8943 72.194 63.0496 72.4707 63.326C72.7475 63.6025 72.903 63.9774 72.903 64.3684C72.903 66.3231 72.1255 68.1978 70.7416 69.5801C69.3577 70.9623 67.4807 71.7388 65.5235 71.7388H63.8366C61.8794 71.7388 60.0025 70.9623 58.6185 69.5801C57.2346 68.1978 56.4571 66.3231 56.4571 64.3684Z" fill="#66253C"/>
<path fill-rule="evenodd" clip-rule="evenodd" d="M68.0074 71.3117C67.2102 71.5957 66.3699 71.7403 65.5235 71.7392H63.8365C61.9305 71.7392 60.0983 71.0026 58.7239 69.6837C57.3494 68.3647 56.5392 66.5658 56.463 64.6636C57.5905 64.242 59.2642 64.2906 60.9157 64.3393C61.4411 64.354 61.9636 64.3688 62.4654 64.3688C65.7271 64.3688 68.369 66.6787 68.369 69.5281C68.369 70.1545 68.2406 70.756 68.0074 71.3117Z" fill="#B03E67"/>
<path d="M58.0378 62.8943H72.7967V64.3684C72.7967 64.7593 72.6412 65.1343 72.3644 65.4107C72.0877 65.6871 71.7123 65.8425 71.3208 65.8425H59.5137C59.1222 65.8425 58.7468 65.6871 58.4701 65.4107C58.1933 65.1343 58.0378 64.7593 58.0378 64.3684V62.8943Z" fill="white"/>
<path d="M69.6384 54.9224H68.1625C67.3474 54.9224 66.6866 55.5823 66.6866 56.3965C66.6866 57.2106 67.3474 57.8705 68.1625 57.8705H69.6384C70.4535 57.8705 71.1143 57.2106 71.1143 56.3965C71.1143 55.5823 70.4535 54.9224 69.6384 54.9224Z" fill="#66253C"/>
<path d="M69.6384 82.9301H37.1687C32.7601 82.9301 28.4733 85.0752 26.0571 88.3774C26.0571 88.3774 32.0934 91.2541 36.3714 92.7149C41.2644 94.3858 44.8106 94.7947 49.9429 95.4259C56.9051 96.2822 61.4712 95.9771 68.4 94.8837C74.041 93.9935 82.1137 91.6306 82.1137 91.6306C80.2501 86.5531 75.3679 82.9301 69.6384 82.9301Z" fill="#E05A33"/>
<path fill-rule="evenodd" clip-rule="evenodd" d="M56.3038 33.1083C64.5835 35.8545 76.0645 39.6606 88.0871 27.6527C93.9907 21.7563 67.4246 -3.30314 46.0242 10.7007C29.2979 13.1757 30.2528 23.1862 30.9907 30.9104C31.1324 32.3889 31.2652 33.7819 31.2652 35.0231C31.2652 35.8088 31.3686 36.397 31.5604 36.8185C31.3617 38.4235 31.2631 40.0393 31.2652 41.6565C31.2652 43.2203 31.8872 44.7201 32.9944 45.8258C34.1015 46.9316 35.6031 47.5528 37.1688 47.5528C38.7345 47.5528 40.2361 46.9316 41.3433 45.8258C42.4504 44.7201 43.0724 43.2203 43.0724 41.6565C43.9737 41.6566 44.8631 41.4506 45.6723 41.0543C46.4816 40.6579 47.1892 40.0818 47.741 39.37C48.2929 38.6582 48.6742 37.8297 48.8557 36.9479C49.0373 36.0662 49.0143 35.1546 48.7885 34.2831L48.976 34.2861C50.7824 34.2861 52.3986 33.4753 53.4819 32.2002C54.3733 32.4685 55.3164 32.781 56.3038 33.1083Z" fill="black"/>
<path d="M58.2283 54.2414C61.708 54.2414 64.5288 51.424 64.5288 47.9485C64.5288 44.4731 61.708 41.6556 58.2283 41.6556C54.7485 41.6556 51.9277 44.4731 51.9277 47.9485C51.9277 51.424 54.7485 54.2414 58.2283 54.2414Z" stroke="black" stroke-width="2"/>
<path d="M75.7863 53.7924C79.266 53.7924 82.0869 50.975 82.0869 47.4995C82.0869 44.0241 79.266 41.2067 75.7863 41.2067C72.3066 41.2067 69.4857 44.0241 69.4857 47.4995C69.4857 50.975 72.3066 53.7924 75.7863 53.7924Z" stroke="black" stroke-width="2"/>
<path d="M41.8 44.4598L51.912 45.6393" stroke="black" stroke-width="2"/>
<path d="M64.0538 47.5677L69.5661 47.4712" stroke="black" stroke-width="2"/>
<path d="M54.2857 62.979C54.2857 61.8062 54.7522 60.6813 55.5825 59.852C56.4129 59.0227 57.5391 58.5568 58.7134 58.5568H71.9964C73.1707 58.5568 74.2969 59.0227 75.1273 59.852C75.9576 60.6813 76.4241 61.8062 76.4241 62.979H54.2857Z" fill="#1B0B47"/>
<path d="M61.8977 47.8753C61.8977 46.5879 60.9228 45.5442 59.7203 45.5442C58.5177 45.5442 57.5428 46.5879 57.5428 47.8753V49.4294C57.5428 50.7168 58.5177 51.7605 59.7203 51.7605C60.9228 51.7605 61.8977 50.7168 61.8977 49.4294V47.8753Z" fill="#1B0B47"/>
<path d="M79.2691 47.8753C79.2691 46.5879 78.2942 45.5442 77.0917 45.5442C75.8891 45.5442 74.9143 46.5879 74.9143 47.8753V49.4294C74.9143 50.7168 75.8891 51.7605 77.0917 51.7605C78.2942 51.7605 79.2691 50.7168 79.2691 49.4294V47.8753Z" fill="#1B0B47"/>
</svg>
