<svg width="24" height="25" viewBox="0 0 24 25" fill="none" xmlns="http://www.w3.org/2000/svg">
<path d="M9.6008 8.5H4.8C4.3584 8.5 4 8.8584 4 9.3C4 9.7416 4.3584 10.1 4.8 10.1H9.9488C9.7328 9.598 9.602 9.0644 9.6008 8.5Z" fill="#0B7D6C"/>
<path d="M8.7999 7.3C10.1254 7.3 11.1999 6.22548 11.1999 4.9C11.1999 3.57452 10.1254 2.5 8.7999 2.5C7.47442 2.5 6.3999 3.57452 6.3999 4.9C6.3999 6.22548 7.47442 7.3 8.7999 7.3Z" fill="#0B7D6C"/>
<path d="M6.16485 19.4665L4.16645 21.4649C4.02165 21.6101 3.82125 21.7001 3.60005 21.7001C3.15845 21.7001 2.80005 21.3417 2.80005 20.9001C2.80005 20.6789 2.89005 20.4785 3.03525 20.3341L5.03365 18.3349C5.17885 18.1901 5.37885 18.1001 5.60005 18.1001C6.04165 18.1001 6.40005 18.4585 6.40005 18.9001C6.40005 19.1213 6.31005 19.3217 6.16485 19.4665Z" fill="#0B7D6C"/>
<path d="M10.7999 20.0998C10.7999 19.6582 10.4416 19.2998 9.99995 19.2998C9.55835 19.2998 9.19995 19.6582 9.19995 20.0998V22.4998C9.19995 22.9414 9.55835 23.2998 9.99995 23.2998C10.4416 23.2998 10.7999 22.9414 10.7999 22.4998V20.0998Z" fill="#0B7D6C"/>
<path d="M2.4001 13.7002C1.9585 13.7002 1.6001 14.0586 1.6001 14.5002C1.6001 14.9418 1.9585 15.3002 2.4001 15.3002H4.8001C5.2417 15.3002 5.6001 14.9418 5.6001 14.5002C5.6001 14.0586 5.2417 13.7002 4.8001 13.7002H2.4001Z" fill="#0B7D6C"/>
<path d="M21.9251 7.76132L19.9727 3.85292C20.6127 3.41412 20.8023 2.94812 20.7999 2.59972C20.7991 2.53252 20.7927 2.46652 20.7795 2.40932C20.7379 2.22772 20.5779 2.10412 20.3999 2.09972C20.3671 2.09892 20.3335 2.10252 20.2999 2.10972L18.3751 2.49972C17.9123 2.60692 17.5995 3.01852 17.5999 3.47372C17.5999 3.54852 17.6083 3.62372 17.6255 3.69932C17.6423 3.77092 17.6663 3.83852 17.6959 3.90212L17.7983 4.11292C17.8555 4.12012 17.9123 4.12892 17.9691 4.14172C18.5655 4.27972 19.0343 4.75492 19.1627 5.35252C19.1879 5.46932 19.2007 5.58532 19.1999 5.69972C19.1971 5.99292 19.1107 6.27492 18.9639 6.52012L19.5559 7.74332L18.1651 9.09972C17.7383 9.51612 17.0955 9.69972 16.6043 9.69972C14.9959 9.69212 14.4915 8.64852 14.0507 7.98092L17.8967 6.44252C18.2423 6.30412 18.4695 5.93212 18.3807 5.52132C18.3179 5.22972 18.0807 4.98852 17.7899 4.92132C17.6159 4.88132 17.4487 4.89772 17.3027 4.95652L11.1999 7.29972C10.7171 7.49252 10.4003 7.97052 10.3999 8.49052C10.3999 10.8037 13.1115 12.7741 15.1999 13.4513V20.0997L14.7587 20.2465C14.3035 20.3985 13.9971 20.8257 13.9999 21.3061C14.0015 21.5241 14.1819 21.6997 14.3999 21.6997H16.3999C16.8415 21.6997 17.1999 21.3413 17.1999 20.8997V13.3573L21.7119 8.78772C21.8999 8.59732 21.9999 8.35972 21.9999 8.09972C21.9999 7.97892 21.9735 7.86412 21.9251 7.76132Z" fill="#0B7D6C"/>
</svg>
