<svg width="24" height="25" viewBox="0 0 24 25" fill="none" xmlns="http://www.w3.org/2000/svg">
<path d="M9.5 6C10.6 6 11.5 5.1 11.5 4C11.5 2.9 10.6 2 9.5 2C8.4 2 7.5 2.9 7.5 4C7.5 5.1 8.4 6 9.5 6ZM5.75 9.4L3 23.5H5.1L6.85 15.5L9 17.5V23.5H11V15.95L8.95 13.9L9.55 10.9C10.85 12.5 12.8 13.5 15 13.5V11.5C13.15 11.5 11.55 10.5 10.65 9.05L9.7 7.45C9.35 6.85 8.7 6.5 8 6.5C7.75 6.5 7.5 6.55 7.25 6.65L2 8.8V13.5H4V10.15L5.75 9.4ZM13 2.5V9.5H16.75V23.5H18.25V9.5H22V2.5H13ZM18.01 8.5V6.75H14.5V5.25H18.01V3.5L20.5 6L18.01 8.5Z" fill="#0B7D6C"/>
</svg>
