<svg width="24" height="25" viewBox="0 0 24 25" fill="none" xmlns="http://www.w3.org/2000/svg">
<path d="M4.6001 16.5C4.9313 16.5 5.2001 16.7688 5.2001 17.1C5.2001 17.4312 4.9313 17.7 4.6001 17.7H2.2001C1.8689 17.7 1.6001 17.4312 1.6001 17.1C1.6001 16.7688 1.8689 16.5 2.2001 16.5H4.6001Z" fill="#0B7D6C"/>
<path d="M22.1999 9.7002C22.5311 9.7002 22.7999 9.969 22.7999 10.3002C22.7999 10.6314 22.5311 10.9002 22.1999 10.9002H19.8C19.4688 10.9002 19.2 10.6314 19.2 10.3002C19.2 9.969 19.4688 9.7002 19.8 9.7002H22.1999Z" fill="#0B7D6C"/>
<path d="M21.4 2.5C21.7312 2.5 22 2.7688 22 3.1C22 3.4312 21.7312 3.7 21.4 3.7H17.8C17.4688 3.7 17.2 3.4312 17.2 3.1C17.2 2.7688 17.4688 2.5 17.8 2.5H21.4Z" fill="#0B7D6C"/>
<path d="M12.4001 16.2468C12.4001 15.282 11.6057 14.5 10.6533 14.5C10.1789 14.5 9.91767 14.7668 9.91767 14.7668L9.31567 16.6212C9.49007 16.7076 9.60007 16.8852 9.60007 17.0796V19.6564C9.60007 20.0896 9.92287 20.5 10.4001 20.5C10.7557 20.5 11.0533 20.2668 11.1577 19.946C11.1941 19.8328 12.0509 17.6292 12.3205 16.7688C12.3733 16.5996 12.4001 16.4244 12.4001 16.2468Z" fill="#0B7D6C"/>
<path d="M22.4001 21.2999H20.0681C21.9933 19.6619 22.4001 19.4571 22.4001 18.6527C22.4001 18.0775 22.0497 17.5599 21.5157 17.3459L20.4001 16.8999L18.8001 18.4999C18.8001 18.9207 18.8009 19.2991 18.4249 19.6751L17.8485 20.2515C17.6897 20.4103 17.6001 20.6263 17.6001 20.8515C17.6001 21.0167 17.6493 21.1695 17.7309 21.2999H2.4001C1.9585 21.2999 1.6001 21.6583 1.6001 22.0999C1.6001 22.5415 1.9585 22.8999 2.4001 22.8999H22.4001C22.8417 22.8999 23.2001 22.5415 23.2001 22.0999C23.2001 21.6583 22.8417 21.2999 22.4001 21.2999Z" fill="#0B7D6C"/>
<path d="M5.99995 11.7002C5.63995 11.7002 5.30355 11.8138 5.03595 12.0146C4.96915 12.065 4.88995 12.1002 4.79995 12.1002C4.57875 12.1002 4.39995 11.9214 4.39995 11.7002C4.39995 11.5674 4.46875 11.4558 4.56835 11.383C4.76155 11.2386 4.97715 11.1226 5.20875 11.0398L5.56435 10.6514L2.64835 8.4082L1.42235 10.4998C1.28435 10.7362 1.19995 11.0074 1.19995 11.3002C1.19995 11.909 1.54435 12.4326 2.04515 12.703L8.60635 16.2146L9.21475 14.341L7.05835 12.1002C6.81635 11.8342 6.40555 11.7002 5.99995 11.7002Z" fill="#0B7D6C"/>
<path d="M10.2 5.7001C9.8688 5.7001 9.6 5.9689 9.6 6.3001V8.5001L7.2 10.9001L2 6.9001C4.7236 4.5173 5.1944 4.3197 5.2 3.3001C5.2024 2.8373 5.0148 2.5301 4.8 2.1001H13.6C15.5316 4.0317 15.5188 4.8161 16.8 9.3001C16.8 9.3001 14.4 11.3001 10.8 11.3001V6.3001C10.8 5.9689 10.5312 5.7001 10.2 5.7001Z" fill="#0B7D6C"/>
<path d="M15.2161 11.1484C14.2473 11.5788 12.9837 11.9788 11.4929 12.0768L18.4741 17.6944L19.8593 16.3096C16.9989 12.4448 16.7065 11.7596 15.2161 11.1484Z" fill="#0B7D6C"/>
</svg>
