<svg width="15" height="24" viewBox="0 0 15 24" fill="none" xmlns="http://www.w3.org/2000/svg">
<path d="M4.69076 5.46558C5.1879 5.3413 6.72763 5.24118 7.43535 5.20666C7.57344 5.20666 8.37841 5.01315 10.2835 5.46558C12.121 5.90197 12.89 8.41731 12.9763 9.76371C13.1662 11.4036 13.6184 15.4186 13.9084 18.36C14.1984 21.3013 10.6822 22.7913 7.31764 22.7913C3.56733 22.7913 1.22116 20.7327 1.22119 18.36C1.22121 16.8743 1.78047 12.3737 1.94618 9.76371C2.15331 6.50128 4.06935 5.62094 4.69076 5.46558Z" fill="#DBF3FE"/>
<path fill-rule="evenodd" clip-rule="evenodd" d="M7.40763 4.49867C7.41305 4.49811 7.42316 4.49707 7.43943 4.49523L7.44726 4.49434C7.48524 4.49003 7.5406 4.48375 7.6079 4.47778C7.75432 4.46477 7.95277 4.45348 8.20932 4.45808C8.72178 4.46725 9.45003 4.53948 10.447 4.77626C11.6565 5.06348 12.4417 6.01501 12.918 6.95238C13.3951 7.89151 13.6306 8.94277 13.6818 9.69946C13.873 11.3514 14.3236 15.3532 14.6132 18.2903C14.7937 20.1213 13.7594 21.4589 12.3414 22.2897C10.9407 23.1103 9.08755 23.4995 7.31748 23.4995C3.36043 23.4995 0.512661 21.2857 0.512695 18.3598C0.512705 17.5733 0.657702 16.0329 0.816434 14.4142C0.835253 14.2222 0.854319 14.0288 0.87345 13.8346C1.01829 12.3647 1.16679 10.8576 1.2391 9.71866C1.35174 7.94462 1.93665 6.75304 2.63645 5.97548C3.32602 5.2093 4.0908 4.88524 4.51881 4.77824C4.83348 4.69957 5.40302 4.64016 5.92477 4.59644C6.47025 4.55073 7.04054 4.51657 7.40068 4.49901L7.40763 4.49867ZM12.9762 9.76355C12.8898 8.41715 12.1209 5.90181 10.2834 5.46542C8.63109 5.07303 7.80633 5.16651 7.52643 5.19823C7.48359 5.20309 7.45352 5.2065 7.43519 5.2065C6.72747 5.24102 5.18774 5.34114 4.6906 5.46542C4.06919 5.62077 2.15315 6.50111 1.94601 9.76355C1.87285 10.9159 1.72297 12.4368 1.57837 13.9041C1.39548 15.76 1.22104 17.5301 1.22103 18.3598C1.221 20.7326 3.56717 22.7912 7.31748 22.7912C10.6821 22.7912 14.1983 21.3012 13.9083 18.3598C13.6183 15.4184 13.166 11.4034 12.9762 9.76355Z" fill="#0B7D6C"/>
<path d="M12.9417 19.6255C12.9417 20.8724 10.5385 21.8833 7.57389 21.8833C4.60932 21.8833 2.20605 20.8724 2.20605 19.6255C2.20605 18.3785 4.60932 17.3677 7.57389 17.3677C10.5385 17.3677 12.9417 18.3785 12.9417 19.6255Z" fill="#C3E8F9"/>
<path fill-rule="evenodd" clip-rule="evenodd" d="M7.31801 5.21253C7.72224 5.2513 8.23053 5.33019 8.85843 5.47931C10.6945 5.91535 11.4629 8.4287 11.5491 9.77404C11.7388 11.4126 12.1907 15.4244 12.4805 18.3635C12.7491 21.0885 9.74844 22.5668 6.63037 22.7677C6.8534 22.7833 7.08213 22.7913 7.31633 22.7913C10.6809 22.7913 14.1971 21.3013 13.9071 18.36C13.6171 15.4186 13.1649 11.4036 12.975 9.76371C12.8887 8.41731 12.1197 5.90197 10.2822 5.46558C8.62994 5.07319 7.80518 5.16667 7.52528 5.1984C7.48245 5.20325 7.45237 5.20666 7.43405 5.20666C7.3975 5.20844 7.35873 5.2104 7.31801 5.21253Z" fill="#AEDBEE"/>
<path d="M13.2291 16.2514C13.2336 16.5631 13.0093 16.8191 12.7282 16.8231C12.447 16.8272 12.2155 16.5778 12.211 16.2661C12.2065 15.9543 12.4308 15.6984 12.7119 15.6943C12.9931 15.6903 13.2246 15.9397 13.2291 16.2514Z" fill="white"/>
<path d="M13.4479 18.1274C13.4524 18.4391 13.2281 18.6951 12.9469 18.6991C12.6658 18.7031 12.4342 18.4537 12.4297 18.142C12.4253 17.8303 12.6495 17.5744 12.9307 17.5703C13.2118 17.5663 13.4434 17.8157 13.4479 18.1274Z" fill="white"/>
<path d="M11.5607 17.9228C11.5651 18.2345 11.3409 18.4905 11.0597 18.4945C10.7786 18.4986 10.547 18.2492 10.5425 17.9375C10.5381 17.6257 10.7623 17.3698 11.0435 17.3657C11.3246 17.3617 11.5562 17.6111 11.5607 17.9228Z" fill="white"/>
<path d="M9.6737 17.3915C9.67819 17.7033 9.45391 17.9592 9.17276 17.9633C8.89161 17.9673 8.66006 17.7179 8.65558 17.4062C8.6511 17.0945 8.87538 16.8385 9.15652 16.8345C9.43767 16.8304 9.66922 17.0798 9.6737 17.3915Z" fill="white"/>
<path d="M10.3517 19.6606C10.3562 19.9723 10.1319 20.2283 9.85074 20.2323C9.56959 20.2363 9.33804 19.9869 9.33356 19.6752C9.32907 19.3635 9.55335 19.1076 9.8345 19.1035C10.1157 19.0995 10.3472 19.3489 10.3517 19.6606Z" fill="white"/>
<path d="M9.01794 21.4145C9.02243 21.7262 8.79815 21.9822 8.517 21.9862C8.23585 21.9903 8.0043 21.7408 7.99982 21.4291C7.99533 21.1174 8.21961 20.8615 8.50076 20.8574C8.78191 20.8534 9.01346 21.1028 9.01794 21.4145Z" fill="white"/>
<path d="M7.20205 20.619C7.20506 20.8279 7.05472 20.9995 6.86627 21.0022C6.67782 21.0049 6.52261 20.8377 6.5196 20.6288C6.5166 20.4199 6.66693 20.2483 6.85538 20.2456C7.04384 20.2429 7.19904 20.41 7.20205 20.619Z" fill="white"/>
<path d="M5.72451 21.0287C5.72752 21.2376 5.57718 21.4092 5.38873 21.4119C5.20028 21.4146 5.04507 21.2474 5.04206 21.0385C5.03906 20.8295 5.18939 20.658 5.37784 20.6552C5.5663 20.6525 5.72151 20.8197 5.72451 21.0287Z" fill="white"/>
<path d="M6.86733 19.2909C6.87034 19.4998 6.72 19.6714 6.53155 19.6741C6.3431 19.6768 6.18789 19.5096 6.18489 19.3007C6.18188 19.0917 6.33221 18.9202 6.52067 18.9175C6.70912 18.9147 6.86433 19.0819 6.86733 19.2909Z" fill="white"/>
<path d="M10.539 20.9285C10.542 21.1375 10.3916 21.309 10.2032 21.3118C10.0147 21.3145 9.85952 21.1473 9.85652 20.9384C9.85351 20.7294 10.0038 20.5579 10.1923 20.5552C10.3807 20.5524 10.536 20.7196 10.539 20.9285Z" fill="white"/>
<path d="M7.91592 17.7801C7.91892 17.989 7.76859 18.1606 7.58014 18.1633C7.39168 18.166 7.23647 17.9989 7.23347 17.7899C7.23046 17.581 7.3808 17.4094 7.56925 17.4067C7.7577 17.404 7.91291 17.5712 7.91592 17.7801Z" fill="white"/>
<path d="M9.4332 15.9497C9.43563 16.1186 9.31412 16.2573 9.1618 16.2595C9.00948 16.2617 8.88403 16.1265 8.8816 15.9577C8.87917 15.7888 9.00068 15.6501 9.153 15.6479C9.30532 15.6457 9.43077 15.7808 9.4332 15.9497Z" fill="white"/>
<path d="M12.1971 15.0977C12.1995 15.2665 12.078 15.4052 11.9257 15.4074C11.7734 15.4096 11.6479 15.2745 11.6455 15.1056C11.6431 14.9367 11.7646 14.798 11.9169 14.7958C12.0692 14.7936 12.1947 14.9288 12.1971 15.0977Z" fill="white"/>
<path d="M12.9942 13.5371C12.9967 13.706 12.8752 13.8447 12.7228 13.8469C12.5705 13.849 12.4451 13.7139 12.4426 13.545C12.4402 13.3762 12.5617 13.2375 12.714 13.2353C12.8664 13.2331 12.9918 13.3682 12.9942 13.5371Z" fill="white"/>
<path d="M11.5663 14.478C11.5687 14.6469 11.4472 14.7856 11.2949 14.7878C11.1425 14.79 11.0171 14.6548 11.0147 14.486C11.0122 14.3171 11.1337 14.1784 11.2861 14.1762C11.4384 14.174 11.5638 14.3091 11.5663 14.478Z" fill="white"/>
<path d="M12.2721 17.123C12.2745 17.2919 12.153 17.4306 12.0007 17.4328C11.8483 17.435 11.7229 17.2999 11.7205 17.131C11.718 16.9621 11.8395 16.8234 11.9919 16.8212C12.1442 16.819 12.2696 16.9542 12.2721 17.123Z" fill="white"/>
<path d="M10.4071 18.2739C10.4095 18.4428 10.288 18.5815 10.1357 18.5837C9.98335 18.5859 9.8579 18.4507 9.85547 18.2819C9.85304 18.113 9.97456 17.9743 10.1269 17.9721C10.2792 17.9699 10.4047 18.105 10.4071 18.2739Z" fill="white"/>
<path d="M12.517 19.8346C12.5234 20.2796 12.2033 20.645 11.8019 20.6508C11.4005 20.6565 11.07 20.3005 11.0636 19.8555C11.0572 19.4105 11.3774 19.0451 11.7787 19.0394C12.1801 19.0336 12.5106 19.3896 12.517 19.8346Z" fill="white"/>
<path d="M9.0141 19.3976C9.0205 19.8426 8.70032 20.208 8.29897 20.2138C7.89762 20.2195 7.56706 19.8635 7.56066 19.4185C7.55426 18.9735 7.87443 18.6081 8.27579 18.6023C8.67714 18.5966 9.0077 18.9526 9.0141 19.3976Z" fill="white"/>
<path d="M11.4267 16.1159C11.4331 16.5608 11.1129 16.9262 10.7116 16.932C10.3102 16.9378 9.97966 16.5817 9.97326 16.1368C9.96686 15.6918 10.287 15.3264 10.6884 15.3206C11.0897 15.3148 11.4203 15.6709 11.4267 16.1159Z" fill="white"/>
<path fill-rule="evenodd" clip-rule="evenodd" d="M3.63186 8.29534C3.78894 8.41189 3.82181 8.63372 3.70526 8.7908C3.59036 8.94566 3.23078 9.69227 3.10965 11.1112C2.98587 12.5612 2.88123 13.9702 2.84443 14.4927C2.83069 14.6878 2.66138 14.8348 2.46626 14.8211C2.27115 14.8073 2.12411 14.638 2.13785 14.4429C2.17484 13.9176 2.27975 12.5051 2.40389 11.051C2.53067 9.56572 2.91189 8.67135 3.1364 8.36875C3.25295 8.21166 3.47477 8.1788 3.63186 8.29534Z" fill="white"/>
<path fill-rule="evenodd" clip-rule="evenodd" d="M10.322 9.41658C10.0295 9.43876 9.81027 9.69391 9.83244 9.98647L10.5056 18.8675C10.5278 19.1601 10.783 19.3793 11.0755 19.3571C11.3681 19.3349 11.5873 19.0798 11.5651 18.7872L10.8919 9.90616C10.8697 9.6136 10.6146 9.39441 10.322 9.41658Z" fill="#0B7D6C"/>
<path fill-rule="evenodd" clip-rule="evenodd" d="M4.44409 9.41658C4.73665 9.43876 4.95584 9.69391 4.93366 9.98647L4.26047 18.8675C4.23829 19.1601 3.98314 19.3793 3.69058 19.3571C3.39802 19.3349 3.17883 19.0798 3.20101 18.7872L3.87421 9.90616C3.89638 9.6136 4.15153 9.39441 4.44409 9.41658Z" fill="#0B7D6C"/>
<path fill-rule="evenodd" clip-rule="evenodd" d="M7.33301 9.93018C7.62641 9.93018 7.86426 10.168 7.86426 10.4614V20.1969C7.86426 20.4903 7.62641 20.7282 7.33301 20.7282C7.03961 20.7282 6.80176 20.4903 6.80176 20.1969V10.4614C6.80176 10.168 7.03961 9.93018 7.33301 9.93018Z" fill="#0B7D6C"/>
<path d="M7.32347 7.69955C9.38266 7.69955 11.052 7.05269 11.052 6.25476V2.37061H3.59497V6.25476C3.59497 7.05269 5.26428 7.69955 7.32347 7.69955Z" fill="#0B7D6C"/>
<path fill-rule="evenodd" clip-rule="evenodd" d="M2.88672 2.37093C2.88672 1.97973 3.20385 1.6626 3.59505 1.6626H11.052C11.4432 1.6626 11.7604 1.97973 11.7604 2.37093V6.25508C11.7604 6.72073 11.5141 7.08639 11.2375 7.33974C10.9615 7.59265 10.6012 7.78787 10.2159 7.93718C9.44072 8.23757 8.41788 8.4082 7.32354 8.4082C6.22921 8.4082 5.20637 8.23757 4.43117 7.93718C4.04585 7.78787 3.68562 7.59265 3.40956 7.33974C3.13303 7.08639 2.88672 6.72073 2.88672 6.25508V2.37093ZM11.052 6.25508C11.052 7.05302 9.38273 7.69987 7.32354 7.69987C5.26435 7.69987 3.59505 7.05302 3.59505 6.25508V2.37093H11.052V6.25508Z" fill="#0B7D6C"/>
<path d="M11.051 6.25475V2.37061H9.34204L9.40805 7.45255C10.3993 7.19288 11.051 6.7533 11.051 6.25475Z" fill="#0B7D6C"/>
<path d="M11.052 2.42623C11.052 3.22417 9.38266 3.87102 7.32347 3.87102C5.26428 3.87102 3.59497 3.22417 3.59497 2.42623C3.59497 1.6283 5.26428 0.981445 7.32347 0.981445C9.38266 0.981445 11.052 1.6283 11.052 2.42623Z" fill="#AACFF1"/>
<path fill-rule="evenodd" clip-rule="evenodd" d="M10.2159 4.10866C9.44072 4.40905 8.41788 4.57969 7.32354 4.57969C6.22921 4.57969 5.20637 4.40905 4.43117 4.10866C4.04585 3.95935 3.68562 3.76414 3.40956 3.51122C3.13303 3.25787 2.88672 2.89221 2.88672 2.42656C2.88672 1.96091 3.13303 1.59525 3.40956 1.3419C3.68562 1.08899 4.04585 0.89377 4.43117 0.744461C5.20637 0.44407 6.22921 0.273438 7.32354 0.273438C8.41788 0.273438 9.44072 0.44407 10.2159 0.744461C10.6012 0.89377 10.9615 1.08899 11.2375 1.3419C11.5141 1.59525 11.7604 1.96091 11.7604 2.42656C11.7604 2.89221 11.5141 3.25787 11.2375 3.51122C10.9615 3.76414 10.6012 3.95935 10.2159 4.10866ZM7.32354 3.87135C9.38273 3.87135 11.052 3.2245 11.052 2.42656C11.052 1.62863 9.38273 0.981771 7.32354 0.981771C5.26435 0.981771 3.59505 1.62863 3.59505 2.42656C3.59505 3.2245 5.26435 3.87135 7.32354 3.87135Z" fill="#0B7D6C"/>
<path d="M8.30527 2.42633C8.30527 2.91554 7.28182 3.31213 6.01933 3.31213C4.75685 3.31213 3.7334 2.91554 3.7334 2.42633C3.7334 1.93711 4.75685 1.54053 6.01933 1.54053C7.28182 1.54053 8.30527 1.93711 8.30527 2.42633Z" fill="#ECF6FF"/>
<path d="M5.96631 2.37061C5.96631 2.55398 5.69873 2.70264 5.36865 2.70264C5.03858 2.70264 4.771 2.55398 4.771 2.37061C4.771 2.18723 5.03858 2.03857 5.36865 2.03857C5.69873 2.03857 5.96631 2.18723 5.96631 2.37061Z" fill="#0B7D6C"/>
<path d="M7.91992 1.76221C7.91992 1.94558 7.65234 2.09424 7.32227 2.09424C6.99219 2.09424 6.72461 1.94558 6.72461 1.76221C6.72461 1.57883 6.99219 1.43018 7.32227 1.43018C7.65234 1.43018 7.91992 1.57883 7.91992 1.76221Z" fill="#0B7D6C"/>
<path d="M9.87329 2.26025C9.87329 2.44363 9.60571 2.59229 9.27563 2.59229C8.94556 2.59229 8.67798 2.44363 8.67798 2.26025C8.67798 2.07688 8.94556 1.92822 9.27563 1.92822C9.60571 1.92822 9.87329 2.07688 9.87329 2.26025Z" fill="#0B7D6C"/>
<path d="M7.91992 2.85791C7.91992 3.04129 7.65234 3.18994 7.32227 3.18994C6.99219 3.18994 6.72461 3.04129 6.72461 2.85791C6.72461 2.67453 6.99219 2.52588 7.32227 2.52588C7.65234 2.52588 7.91992 2.67453 7.91992 2.85791Z" fill="#0B7D6C"/>
<path fill-rule="evenodd" clip-rule="evenodd" d="M4.57438 4.68408C4.76998 4.68408 4.92855 4.84265 4.92855 5.03825V6.43278C4.92855 6.62838 4.76998 6.78695 4.57438 6.78695C4.37878 6.78695 4.22021 6.62838 4.22021 6.43278V5.03825C4.22021 4.84265 4.37878 4.68408 4.57438 4.68408Z" fill="#B6DDFF"/>
</svg>
