<svg width="34" height="35" viewBox="0 0 34 35" fill="none" xmlns="http://www.w3.org/2000/svg">
<g clip-path="url(#clip0_2802:9608)">
<path d="M24.6981 17.4078L24.6551 13.3917C24.6542 13.2597 24.6272 13.1291 24.5756 13.0076C24.5241 12.8861 24.4489 12.776 24.3546 12.6836C24.2603 12.5913 24.1486 12.5186 24.026 12.4696C23.9034 12.4206 23.7723 12.3964 23.6403 12.3984C23.3761 12.402 23.1241 12.51 22.9393 12.6988C22.7545 12.8876 22.652 13.1419 22.654 13.406L22.6861 16.404L11.2316 16.5267L11.1995 13.5287C11.1959 13.2646 11.0879 13.0126 10.8991 12.8278C10.7103 12.643 10.4561 12.5404 10.1919 12.5424C10.0599 12.5433 9.92936 12.5703 9.80784 12.6219C9.68632 12.6735 9.57621 12.7486 9.48387 12.8429C9.39153 12.9373 9.31878 13.049 9.26982 13.1716C9.22086 13.2941 9.19666 13.4252 9.19862 13.5572L9.24118 17.5309L9.28374 21.5046C9.28383 21.637 9.31018 21.7679 9.36125 21.89C9.41233 22.012 9.48712 22.1227 9.58129 22.2157C9.72242 22.3554 9.90198 22.45 10.0971 22.4873C10.2922 22.5246 10.494 22.503 10.6767 22.4252C10.8594 22.3474 11.0149 22.2169 11.1232 22.0504C11.2315 21.8839 11.2878 21.6889 11.2848 21.4903L11.2532 18.5348L22.7076 18.4121L22.7397 21.41C22.7416 21.5414 22.7693 21.6711 22.8213 21.7918C22.8734 21.9125 22.9486 22.0217 23.0428 22.1133C23.1371 22.2049 23.2484 22.277 23.3705 22.3255C23.4926 22.3741 23.6231 22.3981 23.7545 22.3962C23.8858 22.3944 24.0156 22.3666 24.1362 22.3146C24.2569 22.2626 24.3661 22.1874 24.4577 22.0931C24.5493 21.9989 24.6214 21.8876 24.67 21.7655C24.7185 21.6434 24.7425 21.5129 24.7407 21.3815L24.6981 17.4078ZM7.22605 15.5725C7.2232 15.3062 7.11468 15.052 6.92437 14.8657C6.73406 14.6794 6.47755 14.5764 6.21126 14.5792C5.94497 14.5821 5.69073 14.6906 5.50445 14.8809C5.31817 15.0712 5.21513 15.3277 5.21798 15.594L5.26084 19.596C5.26279 19.7276 5.29069 19.8575 5.34295 19.9783C5.39521 20.0991 5.4708 20.2084 5.56538 20.2999C5.6589 20.3925 5.76978 20.4657 5.89166 20.5154C6.01354 20.5651 6.14403 20.5902 6.27563 20.5893C6.40764 20.5884 6.53817 20.5614 6.65969 20.5098C6.78121 20.4583 6.89132 20.3831 6.98366 20.2888C7.076 20.1945 7.14875 20.0828 7.19771 19.9602C7.24667 19.8376 7.27087 19.7065 7.26891 19.5745L7.22605 15.5725ZM28.7213 19.3447L28.6784 15.3427C28.677 15.2109 28.6497 15.0806 28.5979 14.9593C28.5461 14.8381 28.471 14.7282 28.3768 14.6359C28.2825 14.5437 28.171 14.4709 28.0487 14.4218C27.9263 14.3726 27.7955 14.348 27.6636 14.3495C27.5318 14.3509 27.4015 14.3782 27.2802 14.43C27.159 14.4818 27.0491 14.5569 26.9568 14.6511C26.8646 14.7454 26.7918 14.8568 26.7427 14.9792C26.6935 15.1016 26.669 15.2324 26.6704 15.3642L26.7132 19.3662C26.7141 19.4983 26.7411 19.6288 26.7927 19.7503C26.8443 19.8718 26.9194 19.9819 27.0137 20.0743C27.1081 20.1666 27.2197 20.2394 27.3423 20.2883C27.4649 20.3373 27.596 20.3615 27.728 20.3595C27.86 20.3587 27.9906 20.3316 28.1121 20.2801C28.2336 20.2285 28.3437 20.1534 28.436 20.059C28.5284 19.9647 28.6011 19.853 28.6501 19.7304C28.6991 19.6078 28.7233 19.4767 28.7213 19.3447Z" fill="#0B7D6C"/>
</g>
<defs>
<clipPath id="clip0_2802:9608">
<rect width="24" height="24" fill="white" transform="translate(16.7878 0.5) rotate(44.3864)"/>
</clipPath>
</defs>
</svg>
