<svg width="24" height="25" viewBox="0 0 24 25" fill="none" xmlns="http://www.w3.org/2000/svg">
<path fill-rule="evenodd" clip-rule="evenodd" d="M11.9999 3.50049C12.2651 3.50054 12.5194 3.60594 12.7069 3.79349L19.7069 10.7935C19.8891 10.9821 19.9899 11.2347 19.9876 11.4969C19.9853 11.7591 19.8801 12.0099 19.6947 12.1953C19.5093 12.3807 19.2585 12.4859 18.9963 12.4882C18.7341 12.4904 18.4815 12.3896 18.2929 12.2075L12.9999 6.91449V20.5005C12.9999 20.7657 12.8946 21.0201 12.707 21.2076C12.5195 21.3951 12.2651 21.5005 11.9999 21.5005C11.7347 21.5005 11.4803 21.3951 11.2928 21.2076C11.1053 21.0201 10.9999 20.7657 10.9999 20.5005V6.91449L5.70692 12.2075C5.51832 12.3896 5.26571 12.4904 5.00352 12.4882C4.74132 12.4859 4.49051 12.3807 4.3051 12.1953C4.11969 12.0099 4.01452 11.7591 4.01224 11.4969C4.00997 11.2347 4.11076 10.9821 4.29292 10.7935L11.2929 3.79349C11.4804 3.60594 11.7347 3.50054 11.9999 3.50049Z" fill="#0B7D6C"/>
</svg>
