<svg width="114" height="96" viewBox="0 0 114 96" fill="none" xmlns="http://www.w3.org/2000/svg">
<g clip-path="url(#clip0)">
<path d="M114 48.2436C114 21.5994 88.4802 0 57 0C25.5198 0 0 21.5994 0 48.2436C0 74.8877 25.5198 96.4871 57 96.4871C88.4802 96.4871 114 74.8877 114 48.2436Z" fill="#FCFEFF"/>
<path d="M40.7116 59.0635C44.7201 59.0635 47.9696 55.5669 47.9696 51.2537C47.9696 46.9404 44.7201 43.4439 40.7116 43.4439C36.703 43.4439 33.4535 46.9404 33.4535 51.2537C33.4535 55.5669 36.703 59.0635 40.7116 59.0635Z" fill="#DA9770"/>
<path d="M40.1714 57.764H65.1428V95.9101C65.1428 95.9101 59.7916 97 52.6571 97C45.5226 97 40.1714 94.2753 40.1714 94.2753V57.764Z" fill="#DA9770"/>
<path d="M65.389 77.6C65.389 86.4313 60.3084 87.1779 55.7837 85.5941C51.2605 84.0134 42.1632 70.2369 42.1632 61.4056C42.1632 52.5743 43.3013 52.8149 50.0208 52.8149C69.018 53.5958 65.389 68.7687 65.389 77.6Z" fill="#553329"/>
<path d="M81.1912 49.8474C81.1912 63.7832 75.5474 79.3684 66.1119 81.7114C52.3216 80.1494 39.8812 63.7832 39.8812 49.8474C36.3567 33.2907 37.0825 13.7662 61.0341 13.7662C84.9857 13.7662 81.1912 35.9101 81.1912 49.8474Z" fill="#DA9770"/>
<path d="M69.7438 57.5015H68.2922C67.4905 57.5015 66.8406 58.2008 66.8406 59.0635C66.8406 59.9261 67.4905 60.6254 68.2922 60.6254H69.7438C70.5455 60.6254 71.1954 59.9261 71.1954 59.0635C71.1954 58.2008 70.5455 57.5015 69.7438 57.5015Z" fill="#68463C"/>
<path d="M56.4572 66.8748C56.4572 66.4819 56.6126 66.105 56.8894 65.8272C57.1662 65.5493 57.5416 65.3932 57.933 65.3932H71.4271C71.8186 65.3932 72.194 65.5493 72.4707 65.8272C72.7475 66.105 72.903 66.4819 72.903 66.8748C72.903 68.8395 72.1256 70.7237 70.7416 72.1129C69.3577 73.5022 67.4807 74.2826 65.5236 74.2826H63.8366C61.8795 74.2826 60.0025 73.5022 58.6185 72.1129C57.2346 70.7237 56.4572 68.8395 56.4572 66.8748Z" fill="#66253C"/>
<path fill-rule="evenodd" clip-rule="evenodd" d="M68.0073 73.8534C67.2101 74.1388 66.3698 74.2842 65.5234 74.2831H63.8365C61.9304 74.2831 60.0983 73.5427 58.7238 72.2171C57.3493 70.8915 56.5391 69.0834 56.4629 67.1715C57.5905 66.7478 59.2641 66.7967 60.9157 66.8456C61.4411 66.8604 61.9635 66.8752 62.4653 66.8752C65.7271 66.8752 68.3689 69.1968 68.3689 72.0607C68.3689 72.6904 68.2405 73.2949 68.0073 73.8534Z" fill="#B03E67"/>
<path d="M67.467 88.2809H34.9974C32.0287 88.2809 27.1429 89.3707 27.1429 89.3707C27.1429 89.3707 30.7194 91.7171 34.9974 93.1853C39.8904 94.8647 44.7719 97 49.9429 97C59.7144 97 63.5144 96.455 70.0287 95.3651C78.1318 94.0094 84.6858 90.4606 84.6858 90.4606C81.9715 88.826 73.1965 88.2809 67.467 88.2809Z" fill="#F8E542"/>
<path d="M14.5811 14.7934C26.1896 4.10562 33.4535 18.8046 33.4535 18.8046L30.5474 29.4977C30.5474 29.4977 27.6441 32.8393 30.5474 42.8641C33.4506 52.8889 26.9183 58.2354 26.9183 58.2354C26.9183 58.2354 21.8377 61.5783 17.4829 58.9051C13.128 56.2318 12.5517 53.6628 13.128 48.8803C13.8538 42.8654 16.0312 44.8677 16.0312 38.8528C16.0312 32.838 2.97109 25.4811 14.5796 14.7934H14.5811Z" fill="#1B0B47"/>
<path d="M33.4971 19.0475L41.4925 22.2313L36.3074 33.2719L28.3134 30.0908C28.3134 30.0908 26.9198 27.4937 29.0972 23.4851C31.2703 19.4752 33.4985 19.0475 33.4985 19.0475H33.4971Z" fill="#FF6C98"/>
<path fill-rule="evenodd" clip-rule="evenodd" d="M40.7115 56.2321L38.791 44.4389C37.095 44.8659 35.625 45.8452 34.654 47.1949C33.6831 48.5447 33.2773 50.1731 33.5119 51.7776C33.7466 53.3821 34.6059 54.8536 35.93 55.9187C37.2542 56.9838 38.9532 57.5701 40.7115 57.5687V68.6628C38.4104 66.7831 36.4144 64.6089 34.7845 62.2068C32.3168 58.5926 30.5923 54.449 29.73 50.0528C28.8683 45.6445 28.8879 41.1283 29.7881 36.7265C30.6881 32.3383 32.4489 28.2121 34.95 24.6233C37.4497 21.0357 40.6331 18.0697 44.2839 15.9271C47.9332 13.7832 51.9658 12.512 56.1102 12.1992C57.012 12.1313 57.9173 12.109 58.8218 12.1324C62.6828 12.0384 66.5266 12.64 70.1371 13.9035C73.4831 15.0797 76.5242 16.8026 79.0849 18.9747C81.6142 21.1061 83.6482 23.6874 85.064 26.5627C86.1408 28.7611 86.8157 31.1082 87.0615 33.5092H87.1631V39.2381C87.1631 39.2381 86.6855 39.4412 85.7144 39.7273V51.0726C85.7144 51.0726 85.7144 52.9493 83.5369 54.3554C82.7821 54.8433 81.7689 55.2176 80.7644 55.4996C81.049 53.5712 81.1931 51.6274 81.1955 49.6812C81.1955 48.2991 81.2463 46.8221 81.2986 45.2917C81.3508 43.7973 81.4045 42.2508 81.4147 40.6923C78.7263 41.1454 75.0755 41.5291 70.4144 41.5291C59.0221 41.5291 52.3244 39.2381 52.3244 39.2381V37.9028C51.3373 39.3249 50.2689 41.0439 49.4212 42.8657C48.3324 45.2048 48.3324 47.6027 48.3324 49.617C48.3324 51.6327 48.3324 53.2661 47.2437 54.0747C45.0663 55.6921 40.7115 56.2321 40.7115 56.2321Z" fill="#1B0B47"/>
<path d="M62.4857 52.0339C62.4857 50.74 61.5108 49.691 60.3083 49.691C59.1057 49.691 58.1309 50.74 58.1309 52.0339V53.5959C58.1309 54.8899 59.1057 55.9388 60.3083 55.9388C61.5108 55.9388 62.4857 54.8899 62.4857 53.5959V52.0339Z" fill="#1B0B47"/>
<path d="M77.0018 52.0339C77.0018 50.74 76.0269 49.691 74.8244 49.691C73.6218 49.691 72.647 50.74 72.647 52.0339V53.5959C72.647 54.8899 73.6218 55.9388 74.8244 55.9388C76.0269 55.9388 77.0018 54.8899 77.0018 53.5959V52.0339Z" fill="#1B0B47"/>
</g>
<defs>
<clipPath id="clip0">
<rect width="114" height="96" fill="white"/>
</clipPath>
</defs>
</svg>
